<svg width="600" height="600" viewBox="0 0 600 600" fill="none" xmlns="http://www.w3.org/2000/svg">
<path fill-rule="evenodd" clip-rule="evenodd" d="M487.031 371C495.412 348.936 500 325.004 500 300C500 189.543 410.457 100 300 100C189.543 100 100 189.543 100 300C100 325.004 104.588 348.936 112.969 371H487.031Z" fill="url(#paint0_linear_95_2)"/>
<path d="M487.031 371V382C491.599 382 495.692 379.176 497.314 374.906L487.031 371ZM112.969 371L102.686 374.906C104.308 379.176 108.401 382 112.969 382V371ZM489 300C489 323.649 484.662 346.258 476.748 367.094L497.314 374.906C506.161 351.613 511 326.359 511 300H489ZM300 111C404.382 111 489 195.618 489 300H511C511 183.468 416.532 89 300 89V111ZM111 300C111 195.618 195.618 111 300 111V89C183.468 89 89 183.468 89 300H111ZM123.252 367.094C115.338 346.258 111 323.649 111 300H89C89 326.359 93.8385 351.613 102.686 374.906L123.252 367.094ZM112.969 382H487.031V360H112.969V382Z" fill="black"/>
<path d="M397.505 216.941L382.107 183.546C377.17 172.837 366.453 165.979 354.662 165.979H245.439C233.648 165.979 222.931 172.837 217.994 183.546L202.596 216.941H397.505Z" fill="#BBD1B0"/>
<path d="M411.354 216.939H188.745L183.375 223.878C178.823 229.759 176.354 236.986 176.354 244.424V305.709C176.354 319.568 187.586 330.799 201.444 330.799H398.655C412.513 330.799 423.745 319.568 423.745 305.709V244.424C423.745 236.986 421.277 229.759 416.725 223.878L411.354 216.939Z" fill="#329F00"/>
<path d="M176.824 310.359L176.354 310.145V356.785C176.354 362.01 180.59 366.246 185.815 366.246H212.116C217.341 366.246 221.576 362.01 221.576 356.785V330.8H201.444C189.179 330.804 179.005 321.988 176.824 310.359Z" fill="#595453"/>
<path d="M423.28 310.359L423.75 310.145V356.785C423.75 362.01 419.514 366.246 414.289 366.246H387.988C382.763 366.246 378.528 362.01 378.528 356.785V330.8H398.66C410.921 330.804 421.095 321.988 423.28 310.359Z" fill="#595453"/>
<path d="M328.069 216.941H397.509L382.111 183.546C377.174 172.837 366.457 165.979 354.666 165.979H328.069V216.941Z" fill="#D2E1CC"/>
<path d="M397.504 222.915H202.599C200.561 222.915 198.668 221.877 197.565 220.158C196.467 218.444 196.321 216.284 197.172 214.435L212.57 181.045C218.464 168.261 231.365 160 245.438 160H354.665C368.742 160 381.64 168.261 387.533 181.045L402.932 214.435C403.783 216.284 403.637 218.444 402.539 220.158C401.44 221.877 399.543 222.915 397.504 222.915ZM211.934 210.962H388.17L376.683 186.046C372.739 177.482 364.093 171.953 354.665 171.953H245.438C236.01 171.953 227.369 177.486 223.421 186.046L211.934 210.962Z" fill="black"/>
<path d="M398.656 336.78H201.445C184.316 336.78 170.376 322.845 170.376 305.716V244.426C170.376 235.712 173.315 227.119 178.649 220.224L184.02 213.285C185.151 211.822 186.898 210.967 188.746 210.967H411.355C413.203 210.967 414.95 211.822 416.081 213.285L421.456 220.224C426.786 227.123 429.724 235.716 429.724 244.426V305.716C429.72 322.845 415.785 336.78 398.656 336.78ZM191.676 222.916L188.101 227.537C184.376 232.348 182.33 238.343 182.33 244.426V305.716C182.33 316.254 190.906 324.831 201.449 324.831H398.66C409.199 324.831 417.771 316.258 417.771 305.716V244.426C417.771 238.347 415.72 232.352 412.003 227.537L408.428 222.916H191.676Z" fill="black"/>
<path d="M212.117 372.224H185.815C177.303 372.224 170.376 365.301 170.376 356.789V310.148C170.376 308.118 171.406 306.221 173.116 305.126C174.827 304.02 176.979 303.882 178.828 304.709C180.599 305.516 182.338 307.348 182.698 309.261C184.389 318.283 192.276 324.829 201.445 324.829H221.577C224.877 324.829 227.552 327.505 227.552 330.804V356.789C227.556 365.297 220.629 372.224 212.117 372.224ZM182.33 330.18V356.785C182.33 358.707 183.894 360.271 185.815 360.271H212.117C214.038 360.271 215.603 358.707 215.603 356.785V336.778H201.445C194.299 336.778 187.635 334.334 182.33 330.18Z" fill="black"/>
<path d="M414.285 372.224H387.983C379.472 372.224 372.549 365.302 372.549 356.79V330.804C372.549 327.505 375.224 324.83 378.523 324.83H398.66C407.828 324.83 415.716 318.284 417.406 309.261C417.763 307.356 419.027 305.735 420.79 304.932L421.257 304.717C423.105 303.858 425.257 304.016 426.976 305.119C428.686 306.221 429.724 308.114 429.724 310.149V356.79C429.72 365.297 422.797 372.224 414.285 372.224ZM384.498 336.779V356.786C384.498 358.707 386.062 360.271 387.983 360.271H414.285C416.206 360.271 417.771 358.707 417.771 356.786V330.18C412.465 334.339 405.802 336.779 398.66 336.779H384.498Z" fill="black"/>
<path d="M411.366 222.935H188.733C185.434 222.935 182.759 220.26 182.759 216.961C182.759 213.661 185.434 210.986 188.733 210.986H411.366C414.666 210.986 417.341 213.661 417.341 216.961C417.341 220.256 414.666 222.935 411.366 222.935Z" fill="black"/>
<path d="M187.436 221.127C185.908 221.127 184.376 220.544 183.213 219.376L170.214 206.378C168.872 205.036 167.085 204.294 165.188 204.294H158.082C154.783 204.294 152.108 201.619 152.108 198.32C152.108 195.02 154.783 192.345 158.082 192.345H165.188C170.279 192.345 175.066 194.331 178.665 197.927L191.664 210.925C193.998 213.26 193.998 217.042 191.664 219.376C190.496 220.544 188.964 221.127 187.436 221.127Z" fill="black"/>
<path d="M412.664 221.127C411.136 221.127 409.608 220.544 408.44 219.376C406.106 217.042 406.106 213.256 408.44 210.925L421.443 197.927C425.043 194.327 429.825 192.345 434.92 192.345H442.026C445.325 192.345 448 195.02 448 198.32C448 201.619 445.325 204.294 442.026 204.294H434.92C433.024 204.294 431.236 205.032 429.894 206.378L416.891 219.376C415.72 220.544 414.192 221.127 412.664 221.127Z" fill="black"/>
<path d="M356.262 286.454H243.837C239.679 286.454 236.31 283.085 236.31 278.927V255.689H363.789V278.927C363.789 283.085 360.421 286.454 356.262 286.454Z" fill="#1A4109"/>
<path d="M348.992 292.428H251.105C239.651 292.428 230.336 283.11 230.336 271.659V255.689C230.336 252.39 233.012 249.715 236.311 249.715H363.79C367.089 249.715 369.765 252.39 369.765 255.689V271.659C369.769 283.11 360.446 292.428 348.992 292.428ZM242.289 261.664V271.659C242.289 276.523 246.245 280.479 251.109 280.479H348.996C353.864 280.479 357.82 276.523 357.82 271.659V261.664H242.289Z" fill="black"/>
<path d="M236.31 255.689L177.704 235.273V286.453H245.483C245.483 286.453 236.31 282.372 236.31 273.872V255.689Z" fill="#BBD1B0"/>
<path d="M365.139 255.689L423.745 235.273V286.453H355.967C355.967 286.453 365.135 282.372 365.135 273.872L365.139 255.689Z" fill="#BBD1B0"/>
<path d="M245.479 292.429H177.704C174.405 292.429 171.73 289.754 171.73 286.454V235.278C171.73 233.345 172.666 231.529 174.243 230.406C175.82 229.283 177.842 229 179.67 229.632L238.28 250.044C240.68 250.879 242.293 253.145 242.293 255.69V273.873C242.293 278.328 247.903 280.987 247.956 281.015C250.501 282.199 251.899 284.999 251.295 287.735C250.687 290.467 248.284 292.429 245.479 292.429ZM183.679 280.476H231.641C230.831 278.498 230.336 276.297 230.336 273.869V259.934L183.679 243.68V280.476Z" fill="black"/>
<path d="M423.745 292.428H355.97C353.149 292.428 350.709 290.454 350.121 287.693C349.538 284.933 350.96 282.136 353.542 280.989C353.554 280.985 359.164 278.322 359.164 273.868V255.685C359.164 253.139 360.773 250.878 363.177 250.039L421.783 229.626C423.607 229.002 425.629 229.286 427.21 230.401C428.787 231.519 429.723 233.339 429.723 235.273V286.449C429.719 289.752 427.044 292.428 423.745 292.428ZM369.812 280.474H417.77V243.683L371.117 259.928V273.868C371.117 276.3 370.623 278.501 369.812 280.474Z" fill="black"/>
<path d="M333.58 313.172H266.519C263.22 313.172 260.544 310.497 260.544 307.197C260.544 303.898 263.22 301.223 266.519 301.223H333.58C336.88 301.223 339.555 303.898 339.555 307.197C339.555 310.497 336.88 313.172 333.58 313.172Z" fill="black"/>
<path d="M76 371H524" stroke="black" stroke-width="22" stroke-linecap="round"/>
<path d="M91.6847 450H78.0483L93.4119 403.455H110.685L126.048 450H112.412L102.23 416.273H101.866L91.6847 450ZM89.1392 431.636H114.776V441.091H89.1392V431.636ZM130.531 450V403.455H164.077V413.636H143.168V421.636H162.349V431.818H143.168V439.818H163.986V450H130.531ZM213.798 420.909H200.98C200.889 419.848 200.647 418.886 200.253 418.023C199.874 417.159 199.344 416.417 198.662 415.795C197.995 415.159 197.185 414.674 196.23 414.341C195.276 413.992 194.192 413.818 192.98 413.818C190.859 413.818 189.063 414.333 187.594 415.364C186.139 416.394 185.033 417.871 184.276 419.795C183.533 421.72 183.162 424.03 183.162 426.727C183.162 429.576 183.541 431.962 184.298 433.886C185.071 435.795 186.185 437.235 187.639 438.205C189.094 439.159 190.844 439.636 192.889 439.636C194.056 439.636 195.101 439.492 196.026 439.205C196.95 438.902 197.753 438.47 198.435 437.909C199.116 437.348 199.67 436.674 200.094 435.886C200.533 435.083 200.829 434.182 200.98 433.182L213.798 433.273C213.647 435.242 213.094 437.25 212.139 439.295C211.185 441.326 209.829 443.205 208.071 444.932C206.329 446.644 204.17 448.023 201.594 449.068C199.018 450.114 196.026 450.636 192.616 450.636C188.344 450.636 184.51 449.72 181.116 447.886C177.738 446.053 175.063 443.356 173.094 439.795C171.139 436.235 170.162 431.879 170.162 426.727C170.162 421.545 171.162 417.182 173.162 413.636C175.162 410.076 177.859 407.386 181.253 405.568C184.647 403.735 188.435 402.818 192.616 402.818C195.556 402.818 198.26 403.22 200.73 404.023C203.2 404.826 205.366 406 207.23 407.545C209.094 409.076 210.594 410.962 211.73 413.205C212.866 415.447 213.556 418.015 213.798 420.909ZM250.281 432.727H260.099L263.645 437.182L269.645 444L277.463 453.455H266.281L260.736 447L257.009 441.636L250.281 432.727ZM277.372 426.727C277.372 431.909 276.365 436.28 274.349 439.841C272.334 443.386 269.615 446.076 266.19 447.909C262.766 449.727 258.948 450.636 254.736 450.636C250.493 450.636 246.66 449.72 243.236 447.886C239.827 446.038 237.115 443.341 235.099 439.795C233.099 436.235 232.099 431.879 232.099 426.727C232.099 421.545 233.099 417.182 235.099 413.636C237.115 410.076 239.827 407.386 243.236 405.568C246.66 403.735 250.493 402.818 254.736 402.818C258.948 402.818 262.766 403.735 266.19 405.568C269.615 407.386 272.334 410.076 274.349 413.636C276.365 417.182 277.372 421.545 277.372 426.727ZM264.372 426.727C264.372 423.939 264.001 421.591 263.259 419.682C262.531 417.758 261.448 416.303 260.009 415.318C258.584 414.318 256.827 413.818 254.736 413.818C252.645 413.818 250.88 414.318 249.44 415.318C248.016 416.303 246.933 417.758 246.19 419.682C245.463 421.591 245.099 423.939 245.099 426.727C245.099 429.515 245.463 431.871 246.19 433.795C246.933 435.705 248.016 437.159 249.44 438.159C250.88 439.144 252.645 439.636 254.736 439.636C256.827 439.636 258.584 439.144 260.009 438.159C261.448 437.159 262.531 435.705 263.259 433.795C264.001 431.871 264.372 429.515 264.372 426.727ZM306.099 434.727V415.091H318.645V450H306.736V443.364H306.372C305.615 445.591 304.289 447.333 302.395 448.591C300.501 449.833 298.251 450.455 295.645 450.455C293.205 450.455 291.069 449.894 289.236 448.773C287.418 447.652 286.001 446.106 284.986 444.136C283.986 442.167 283.478 439.909 283.463 437.364V415.091H296.009V434.727C296.024 436.455 296.463 437.811 297.327 438.795C298.205 439.78 299.433 440.273 301.009 440.273C302.054 440.273 302.955 440.053 303.713 439.614C304.486 439.159 305.077 438.523 305.486 437.705C305.91 436.871 306.115 435.879 306.099 434.727ZM334.753 450.545C332.526 450.545 330.556 450.182 328.844 449.455C327.147 448.712 325.813 447.591 324.844 446.091C323.874 444.591 323.389 442.682 323.389 440.364C323.389 438.455 323.715 436.826 324.366 435.477C325.018 434.114 325.927 433 327.094 432.136C328.26 431.273 329.616 430.614 331.162 430.159C332.723 429.705 334.404 429.409 336.207 429.273C338.162 429.121 339.73 428.939 340.912 428.727C342.109 428.5 342.973 428.189 343.503 427.795C344.033 427.386 344.298 426.848 344.298 426.182V426.091C344.298 425.182 343.95 424.485 343.253 424C342.556 423.515 341.662 423.273 340.571 423.273C339.374 423.273 338.397 423.538 337.639 424.068C336.897 424.583 336.45 425.379 336.298 426.455H324.753C324.904 424.333 325.579 422.379 326.776 420.591C327.988 418.788 329.753 417.348 332.071 416.273C334.389 415.182 337.283 414.636 340.753 414.636C343.253 414.636 345.495 414.932 347.48 415.523C349.465 416.098 351.154 416.909 352.548 417.955C353.942 418.985 355.003 420.197 355.73 421.591C356.473 422.97 356.844 424.47 356.844 426.091V450H345.116V445.091H344.844C344.147 446.394 343.298 447.447 342.298 448.25C341.313 449.053 340.185 449.636 338.912 450C337.654 450.364 336.268 450.545 334.753 450.545ZM338.844 442.636C339.798 442.636 340.692 442.439 341.526 442.045C342.374 441.652 343.063 441.083 343.594 440.341C344.124 439.598 344.389 438.697 344.389 437.636V434.727C344.056 434.864 343.7 434.992 343.321 435.114C342.957 435.235 342.563 435.348 342.139 435.455C341.73 435.561 341.291 435.659 340.821 435.75C340.366 435.841 339.889 435.924 339.389 436C338.42 436.152 337.624 436.402 337.003 436.75C336.397 437.083 335.942 437.5 335.639 438C335.351 438.485 335.207 439.03 335.207 439.636C335.207 440.606 335.548 441.348 336.23 441.864C336.912 442.379 337.783 442.636 338.844 442.636ZM375.384 403.455V450H362.838V403.455H375.384ZM381.776 450V415.091H394.321V450H381.776ZM388.048 411.455C386.351 411.455 384.897 410.894 383.685 409.773C382.473 408.652 381.866 407.303 381.866 405.727C381.866 404.152 382.473 402.803 383.685 401.682C384.897 400.561 386.351 400 388.048 400C389.76 400 391.215 400.561 392.412 401.682C393.624 402.803 394.23 404.152 394.23 405.727C394.23 407.303 393.624 408.652 392.412 409.773C391.215 410.894 389.76 411.455 388.048 411.455ZM421.622 415.091V424.182H398.259V415.091H421.622ZM402.713 450V414.091C402.713 411.212 403.228 408.826 404.259 406.932C405.289 405.038 406.743 403.621 408.622 402.682C410.501 401.742 412.713 401.273 415.259 401.273C416.849 401.273 418.395 401.394 419.895 401.636C421.41 401.879 422.531 402.091 423.259 402.273L421.44 411.273C420.986 411.136 420.455 411.03 419.849 410.955C419.243 410.864 418.713 410.818 418.259 410.818C417.077 410.818 416.281 411.068 415.872 411.568C415.463 412.068 415.259 412.727 415.259 413.545V450H402.713ZM426.463 450V415.091H439.009V450H426.463ZM432.736 411.455C431.039 411.455 429.584 410.894 428.372 409.773C427.16 408.652 426.554 407.303 426.554 405.727C426.554 404.152 427.16 402.803 428.372 401.682C429.584 400.561 431.039 400 432.736 400C434.448 400 435.902 400.561 437.099 401.682C438.312 402.803 438.918 404.152 438.918 405.727C438.918 407.303 438.312 408.652 437.099 409.773C435.902 410.894 434.448 411.455 432.736 411.455ZM462.128 450.636C458.401 450.636 455.188 449.924 452.491 448.5C449.81 447.061 447.741 445 446.287 442.318C444.848 439.621 444.128 436.394 444.128 432.636C444.128 429.03 444.855 425.879 446.31 423.182C447.764 420.485 449.817 418.386 452.469 416.886C455.12 415.386 458.249 414.636 461.855 414.636C464.491 414.636 466.878 415.045 469.014 415.864C471.151 416.682 472.976 417.871 474.491 419.432C476.007 420.977 477.173 422.856 477.991 425.068C478.81 427.28 479.219 429.773 479.219 432.545V435.455H448.037V428.545H467.673C467.658 427.545 467.401 426.667 466.901 425.909C466.416 425.136 465.757 424.538 464.923 424.114C464.105 423.674 463.173 423.455 462.128 423.455C461.113 423.455 460.181 423.674 459.332 424.114C458.484 424.538 457.802 425.129 457.287 425.886C456.787 426.644 456.522 427.53 456.491 428.545V436C456.491 437.121 456.726 438.121 457.196 439C457.666 439.879 458.34 440.568 459.219 441.068C460.098 441.568 461.158 441.818 462.401 441.818C463.264 441.818 464.052 441.697 464.764 441.455C465.491 441.212 466.113 440.864 466.628 440.409C467.143 439.939 467.522 439.379 467.764 438.727H479.219C478.825 441.152 477.893 443.258 476.423 445.045C474.954 446.818 473.007 448.197 470.582 449.182C468.173 450.152 465.355 450.636 462.128 450.636ZM496.974 450.455C494.49 450.455 492.202 449.803 490.111 448.5C488.035 447.197 486.368 445.22 485.111 442.568C483.868 439.917 483.247 436.576 483.247 432.545C483.247 428.333 483.899 424.909 485.202 422.273C486.52 419.636 488.217 417.705 490.293 416.477C492.384 415.25 494.58 414.636 496.884 414.636C498.611 414.636 500.126 414.939 501.429 415.545C502.732 416.136 503.823 416.932 504.702 417.932C505.58 418.917 506.247 420 506.702 421.182H506.884V403.455H519.429V450H506.974V444.273H506.702C506.217 445.455 505.52 446.515 504.611 447.455C503.717 448.379 502.626 449.114 501.338 449.659C500.065 450.189 498.611 450.455 496.974 450.455ZM501.611 440.818C502.762 440.818 503.747 440.485 504.565 439.818C505.399 439.136 506.035 438.182 506.474 436.955C506.929 435.712 507.156 434.242 507.156 432.545C507.156 430.818 506.929 429.341 506.474 428.114C506.035 426.871 505.399 425.924 504.565 425.273C503.747 424.606 502.762 424.273 501.611 424.273C500.459 424.273 499.474 424.606 498.656 425.273C497.853 425.924 497.232 426.871 496.793 428.114C496.368 429.341 496.156 430.818 496.156 432.545C496.156 434.273 496.368 435.758 496.793 437C497.232 438.227 497.853 439.174 498.656 439.841C499.474 440.492 500.459 440.818 501.611 440.818Z" fill="black"/>
<defs>
<linearGradient id="paint0_linear_95_2" x1="300" y1="100" x2="300" y2="500" gradientUnits="userSpaceOnUse">
<stop offset="0.161458" stop-color="white"/>
<stop offset="0.734375" stop-color="#D9D9D9"/>
</linearGradient>
</defs>
</svg>
