<svg xmlns="http://www.w3.org/2000/svg" xmlns:xlink="http://www.w3.org/1999/xlink" xmlns:inkscape="http://www.inkscape.org/namespaces/inkscape" version="1.1" width="82.76465" height="105.631229" viewBox="0 0 82.76465 105.631229">
<defs>
<clipPath id="clip_1">
<path transform="matrix(1,0,0,-1,-40.201658,194.8645)" d="M40.201658 89.23328H122.96631V194.8645H40.201658Z" clip-rule="evenodd"/>
</clipPath>
<clipPath id="clip_2">
<path transform="matrix(1,0,0,-1,-40.201658,194.8645)" d="M0 0H612.283V824.882H0Z"/>
</clipPath>
<clipPath id="clip_3">
<path transform="matrix(1,0,0,-1,-40.201658,194.8645)" d="M25.167 17.598H101.46V776.428H25.167Z"/>
</clipPath>
<clipPath id="clip_4">
<path transform="matrix(1,0,0,-1,-40.201658,194.8645)" d="M22.5522 30.8293H589.857V776.886H22.5522Z"/>
</clipPath>
<clipPath id="clip_5">
<path transform="matrix(1,0,0,-1,-115.56796,257.3804)" d="M49.44 112.32H437.26V788.62H49.44Z" clip-rule="evenodd"/>
</clipPath>
<clipPath id="clip_6">
<path transform="matrix(1,0,0,-1,-116.15668,231.95264)" d="M49.44 112.32H437.26V788.62H49.44Z" clip-rule="evenodd"/>
</clipPath>
<clipPath id="clip_7">
<path transform="matrix(1.0000153,0,0,-.8243408,148.42946,168.86357)" d="M49.44 112.32H437.26V788.62H49.44Z" clip-rule="evenodd"/>
</clipPath>
<clipPath id="clip_8">
<path transform="matrix(1,0,0,-.7453613,-16.156674,107.646198)" d="M49.44 112.32H437.26V788.62H49.44Z" clip-rule="evenodd"/>
</clipPath>
<clipPath id="clip_9">
<path transform="matrix(1,0,0,-1,-115.56796,271.3804)" d="M49.44 112.32H437.26V788.62H49.44Z" clip-rule="evenodd"/>
</clipPath>
<clipPath id="clip_10">
<path transform="matrix(1,0,0,-1,-115.56796,285.3804)" d="M49.44 112.32H437.26V788.62H49.44Z" clip-rule="evenodd"/>
</clipPath>
<clipPath id="clip_11">
<path transform="matrix(1,0,0,-1,-116.15668,244.95264)" d="M49.44 112.32H437.26V788.62H49.44Z" clip-rule="evenodd"/>
</clipPath>
<clipPath id="clip_12">
<path transform="matrix(1,0,0,-1,-115.56796,273.3804)" d="M49.44 112.32H437.26V788.62H49.44Z" clip-rule="evenodd"/>
</clipPath>
<clipPath id="clip_13">
<path transform="matrix(.8545837,0,0,-.8545837,245.10803,1080.3497)" d="M103.77 443.55H659.37V1642.73H103.77Z" clip-rule="evenodd"/>
</clipPath>
<clipPath id="clip_14">
<path transform="matrix(1,0,0,-1,-116.15668,179.95264)" d="M49.44 112.32H437.26V788.62H49.44Z" clip-rule="evenodd"/>
</clipPath>
<clipPath id="clip_15">
<path transform="matrix(.8545837,0,0,-.8545837,244.9472,693.467)" d="M103.77 443.55H659.37V1642.73H103.77Z" clip-rule="evenodd"/>
</clipPath>
<clipPath id="clip_16">
<path transform="matrix(.8505554,0,0,-.8505554,245.56061,1057.8213)" d="M103.77 360.3H659.37V1642.73H103.77Z" clip-rule="evenodd"/>
</clipPath>
<clipPath id="clip_17">
<path transform="matrix(1,0,0,-1,-40.20167,230.66249)" d="M30.12 53.28H577.8V780.33999H30.12Z" clip-rule="evenodd"/>
</clipPath>
<clipPath id="clip_18">
<path transform="matrix(1,0,0,-1,-40.20167,230.66249)" d="M30.12 53.28H577.8V780.33999H30.12Z" clip-rule="evenodd"/>
</clipPath>
<clipPath id="clip_19">
<path transform="matrix(1,0,0,-1,-40.20167,230.66249)" d="M30.12 53.28H577.8V780.33999H30.12Z" clip-rule="evenodd"/>
</clipPath>
<clipPath id="clip_20">
<path transform="matrix(1,0,0,-1,-40.20167,230.66249)" d="M30.12 53.28H577.8V780.33999H30.12Z" clip-rule="evenodd"/>
</clipPath>
<clipPath id="clip_21">
<path transform="matrix(1,0,0,-1,-40.20167,230.66249)" d="M30.12 53.28H577.8V780.33999H30.12Z" clip-rule="evenodd"/>
</clipPath>
<clipPath id="clip_22">
<path transform="matrix(1,0,0,-1,-40.20167,230.66249)" d="M30.12 53.28H577.8V780.33999H30.12Z" clip-rule="evenodd"/>
</clipPath>
<clipPath id="clip_23">
<path transform="matrix(1,0,0,-1,-40.20167,230.66249)" d="M30.12 53.28H577.8V780.33999H30.12Z" clip-rule="evenodd"/>
</clipPath>
<clipPath id="clip_24">
<path transform="matrix(1,0,0,-1,-40.20167,230.66249)" d="M30.12 53.28H577.8V780.33999H30.12Z" clip-rule="evenodd"/>
</clipPath>
<clipPath id="clip_25">
<path transform="matrix(1,0,0,-1,-40.20167,230.66249)" d="M30.12 53.28H577.8V780.33999H30.12Z" clip-rule="evenodd"/>
</clipPath>
<clipPath id="clip_26">
<path transform="matrix(1,0,0,-1,-40.20167,230.66249)" d="M30.12 53.28H577.8V780.33999H30.12Z" clip-rule="evenodd"/>
</clipPath>
<clipPath id="clip_27">
<path transform="matrix(1,0,0,-1,-40.20167,230.66249)" d="M30.12 53.28H577.8V780.33999H30.12Z" clip-rule="evenodd"/>
</clipPath>
<clipPath id="clip_28">
<path transform="matrix(1,0,0,-1,-40.20167,230.66249)" d="M30.12 53.28H577.8V780.33999H30.12Z" clip-rule="evenodd"/>
</clipPath>
<clipPath id="clip_29">
<path transform="matrix(1,0,0,-1,-40.20167,230.66249)" d="M30.12 53.28H577.8V780.33999H30.12Z" clip-rule="evenodd"/>
</clipPath>
<clipPath id="clip_30">
<path transform="matrix(.6652374,0,0,-1,46.341176,230.66249)" d="M30.12 53.28H577.8V780.33999H30.12Z" clip-rule="evenodd"/>
</clipPath>
<clipPath id="clip_31">
<path transform="matrix(1,0,0,-1,-40.20167,230.66249)" d="M30.12 53.28H577.8V780.33999H30.12Z" clip-rule="evenodd"/>
</clipPath>
<clipPath id="clip_32">
<path transform="matrix(1,0,0,-1,-40.20167,230.66249)" d="M30.12 53.28H577.8V780.33999H30.12Z" clip-rule="evenodd"/>
</clipPath>
<clipPath id="clip_33">
<path transform="matrix(1,0,0,-1,-40.20167,230.66249)" d="M30.12 53.28H577.8V780.33999H30.12Z" clip-rule="evenodd"/>
</clipPath>
<clipPath id="clip_34">
<path transform="matrix(1,0,0,-1,-40.20167,230.66249)" d="M30.12 53.28H577.8V780.33999H30.12Z" clip-rule="evenodd"/>
</clipPath>
<path id="font_35_54" d="M.044921876 .23046875 .13427735 .23828125C.13850911 .20247396 .14835613 .1730957 .16381836 .15014649 .1792806 .12719727 .20328777 .10864258 .23583985 .09448242 .26839195 .080322269 .30501304 .07324219 .34570313 .07324219 .38183595 .07324219 .41373698 .07861328 .44140626 .08935547 .46907554 .100097659 .4896647 .11482748 .5031738 .13354492 .5166829 .15226238 .5234375 .1726888 .5234375 .19482422 .5234375 .21728516 .51692709 .23689778 .50390627 .2536621 .4908854 .27042643 .46940104 .28450523 .43945313 .29589845 .4202474 .3033854 .37776695 .3150228 .31201173 .33081056 .24625652 .3465983 .20019531 .36149089 .17382813 .37548829 .13964844 .39339195 .11417643 .41560874 .09741211 .44213868 .08064779 .4686686 .072265628 .4983724 .072265628 .53125 .072265628 .5673828 .08251953 .6011556 .103027347 .63256838 .123535159 .66398116 .15348308 .6878255 .1928711 .70410159 .23225911 .7203776 .27604167 .7285156 .32421876 .7285156 .37727867 .7285156 .42407228 .7199707 .4645996 .70288088 .50512698 .685791 .5362956 .66064456 .55810549 .6274414 .57991537 .5942383 .5916341 .5566406 .5932617 .51464846L.5024414 .5078125C.4975586 .55322268 .48103843 .5875244 .45288087 .6107178 .4247233 .63391116 .38313804 .6455078 .328125 .6455078 .27083335 .6455078 .22908528 .6349996 .20288086 .61398318 .17667644 .59297689 .16357422 .5676524 .16357422 .53800967 .16357422 .51227316 .17285156 .49109904 .19140625 .4744873 .20963542 .4578654 .25724284 .44084168 .33422853 .42341615 .4112142 .4059906 .46402995 .39076234 .49267579 .37773133 .53434249 .3585154 .5651042 .33416239 .58496096 .30467225 .6048177 .27519227 .6147461 .24123128 .6147461 .2027893 .6147461 .16468303 .6038411 .12876892 .58203127 .095047 .5602214 .061335248 .52888998 .035110475 .4880371 .01637268 .44718424-.0023549398 .40120445-.01171875 .35009767-.01171875 .285319-.01171875 .2310384-.0022786458 .18725586 .016601563 .14347331 .03548177 .10913086 .06388346 .084228519 .10180664 .059326173 .13972982 .046223958 .18261719 .044921876 .23046875Z"/>
<path id="font_35_39" d="M.07714844 0V.7158203H.32373048C.37939454 .7158203 .421875 .71240237 .45117188 .7055664 .4921875 .6961263 .52718099 .67903646 .55615237 .6542969 .5939128 .6223958 .6221517 .5816243 .64086917 .5319824 .6595866 .48234049 .6689453 .4256185 .6689453 .3618164 .6689453 .30745445 .66259768 .25927735 .64990237 .21728516 .63720706 .17529297 .62093099 .14054363 .6010742 .11303711 .58121749 .0855306 .55948898 .06388346 .5358887 .048095704 .5122884 .03230794 .48380534 .020345053 .45043946 .012207031 .41707359 .0040690104 .3787435 0 .33544923 0H.07714844M.171875 .084472659H.32470704C.37190757 .084472659 .40893556 .08886719 .43579103 .09765625 .46264649 .10644531 .48404948 .1188151 .5 .13476563 .52246096 .15722656 .5399577 .18741863 .55249026 .2253418 .56502279 .26326499 .57128909 .30924479 .57128909 .36328126 .57128909 .43815104 .5590007 .49568687 .5344238 .5358887 .509847 .5760905 .47998048 .60302737 .44482423 .6166992 .4194336 .62646487 .37858073 .63134768 .32226563 .63134768H.171875V.084472659Z"/>
<path id="font_35_20" d="M.3725586 0H.28466798V.5600586C.26350913 .5398763 .23575847 .51969406 .20141602 .49951173 .16707357 .47932945 .13623047 .46419273 .10888672 .45410157V.5390625C.15804036 .5621745 .20100911 .59016928 .23779297 .6230469 .2745768 .6559245 .3006185 .6878255 .31591798 .71875H.3725586V0Z"/>
<path id="font_35_21" d="M.50341799 .084472659V0H.030273438C.029622397 .021148682 .033040365 .041483564 .040527345 .06100464 .052571615 .09321085 .07185873 .124928798 .09838867 .15615845 .12491862 .1873881 .1632487 .22350057 .2133789 .26449586 .29117839 .3282369 .34375 .37872825 .37109376 .41596986 .3984375 .45321147 .41210938 .48841859 .41210938 .5215912 .41210938 .5563914 .3996582 .5857442 .37475587 .60964968 .34985353 .6335551 .3173828 .6455078 .27734376 .6455078 .23502605 .6455078 .20117188 .6328125 .17578125 .6074219 .15039063 .58203127 .13753255 .546875 .13720703 .5019531L.046875 .5112457C.053059896 .5787811 .07633463 .630249 .11669922 .6656494 .1570638 .7010498 .21126302 .71875 .27929688 .71875 .34798179 .71875 .40234376 .69970199 .4423828 .66160586 .48242188 .6235097 .5024414 .57629397 .5024414 .5199585 .5024414 .4913025 .49658204 .46313478 .48486329 .43545533 .47314454 .40777589 .45369468 .3786316 .42651368 .34802247 .39933268 .3174235 .35416667 .27542115 .29101563 .22201538 .23828125 .17779541 .20442708 .14779663 .18945313 .13201905 .17447917 .116251628 .16210938 .10040283 .15234375 .084472659H.50341799Z"/>
<path id="font_35_22" d="M.041992189 .19042969 .12988281 .20214844C.13997396 .15234375 .15714519 .11645508 .18139649 .09448242 .20564778 .072509769 .2351888 .061523439 .27001954 .061523439 .3113607 .061523439 .3462728 .07582092 .37475587 .10441589 .40323893 .13301087 .41748048 .1684316 .41748048 .2106781 .41748048 .25098167 .40429688 .2842102 .3779297 .31036378 .3515625 .3365275 .31803385 .34960938 .27734376 .34960938 .2607422 .34960938 .24007161 .34635417 .21533203 .33984376L.22509766 .4169922C.23095703 .41634117 .23567708 .41601563 .23925781 .41601563 .27669273 .41601563 .31038413 .42569987 .34033204 .44506837 .37027995 .46443687 .3852539 .4942932 .3852539 .53463748 .3852539 .56658938 .37434898 .59305319 .35253907 .61402896 .33072917 .63501486 .30257163 .6455078 .2680664 .6455078 .23388672 .6455078 .20540364 .6347656 .18261719 .61328127 .15983074 .5917969 .1451823 .5595703 .13867188 .51660159L.05078125 .53222659C.061523439 .591451 .0859375 .63734439 .12402344 .6699066 .16210938 .7024689 .20947266 .71875 .26611329 .71875 .30517579 .71875 .34114585 .71039327 .37402345 .6936798 .40690104 .67696639 .43204753 .6541646 .4494629 .62527468 .46687828 .59639486 .47558595 .5657247 .47558595 .53326418 .47558595 .5024312 .46728517 .47435508 .4506836 .44903565 .43408204 .4237264 .40950523 .40360514 .37695313 .38867188 .41927085 .37890626 .45214845 .35864259 .47558595 .32788087 .49902345 .29711915 .5107422 .2586263 .5107422 .21240235 .5107422 .14990235 .48795573 .09692383 .4423828 .053466798 .3968099 .010009766 .33919273-.01171875 .26953126-.01171875 .20670574-.01171875 .15454102 .007044474 .11303711 .044570924 .0715332 .082097377 .047851564 .13071697 .041992189 .19042969Z"/>
<path id="font_35_27" d="M.17675781 .38916017C.14029949 .40246583 .11328125 .42145286 .095703128 .44612123 .078125 .47078959 .06933594 .5003255 .06933594 .534729 .06933594 .5866597 .08805338 .63031008 .12548828 .66567996 .16292317 .70106 .21272786 .71875 .27490235 .71875 .33740235 .71875 .3876953 .7006531 .42578126 .6644592 .4638672 .6282756 .48291017 .5842183 .48291017 .5322876 .48291017 .4991862 .47420249 .4703827 .4567871 .44587709 .43937174 .42137147 .4129232 .40246583 .3774414 .38916017 .42138673 .3748169 .45483399 .3516744 .4777832 .31973268 .5007324 .28780113 .51220706 .24966939 .51220706 .20533753 .51220706 .1440684 .4905599 .09257507 .44726563 .050857545 .40397135 .009140015 .34700523-.01171875 .2763672-.01171875 .20572917-.01171875 .14876302 .009221395 .10546875 .051101686 .06217448 .09298197 .040527345 .14521282 .040527345 .20779419 .040527345 .25439454 .052327474 .29342143 .075927738 .32487489 .09952799 .35632835 .13313802 .37775675 .17675781 .38916017M.15917969 .53707888C.15917969 .5035197 .17008464 .47608949 .19189453 .4547882 .21370442 .4334971 .24202474 .42285157 .27685548 .42285157 .31070964 .42285157 .3384603 .4334208 .36010743 .45455934 .38175456 .47569786 .39257813 .501592 .39257813 .5322418 .39257813 .5641937 .38142906 .5910594 .35913087 .61283877 .33683268 .6346181 .30908204 .6455078 .2758789 .6455078 .24235027 .6455078 .21451824 .6348572 .19238281 .6135559 .17024739 .59226486 .15917969 .56677249 .15917969 .53707888M.13085938 .20776367C.13085938 .18273926 .13680013 .15852864 .14868164 .13513184 .16056316 .11173502 .17822266 .09361776 .20166016 .08078003 .22509766 .0679423 .25032554 .061523439 .27734376 .061523439 .31933595 .061523439 .3540039 .07500712 .38134767 .10197449 .4086914 .12895203 .42236329 .16323853 .42236329 .20483399 .42236329 .24708049 .40828453 .28201295 .38012696 .30963136 .3519694 .33725993 .31673179 .35107423 .27441407 .35107423 .23307292 .35107423 .19881185 .3374227 .17163086 .31011964 .14444988 .28282676 .13085938 .24870809 .13085938 .20776367Z"/>
<path id="font_35_26" d="M.04736328 .6225586V.70703127H.5107422V.6386719C.46516929 .5901286 .42000328 .5256246 .37524415 .4451599 .33048503 .36469523 .29589845 .2819519 .27148438 .19692993 .25390626 .13698323 .24267578 .07133993 .23779297 0H.14746094C.1484375 .056355794 .1595052 .12444051 .18066406 .20425415 .20182292 .28407798 .23217774 .3610433 .27172853 .43515016 .3112793 .50926718 .35335288 .57173666 .39794923 .6225586H.04736328Z"/>
<path id="font_35_25" d="M.4975586 .5400543 .41015626 .5332031C.40234376 .5675557 .39127604 .59251406 .37695313 .608078 .3531901 .6330312 .32389323 .6455078 .2890625 .6455078 .26106773 .6455078 .23649089 .637736 .21533203 .6221924 .18766277 .602122 .16585286 .57282 .14990235 .5342865 .13395183 .49575297 .12565105 .4408671 .125 .3696289 .14615886 .40185548 .17203777 .42578126 .20263672 .44140626 .23323567 .45703126 .26529948 .46484376 .29882813 .46484376 .35742188 .46484376 .40730796 .44327799 .44848634 .40014649 .4896647 .35701499 .5102539 .30126954 .5102539 .23291016 .5102539 .18798828 .50056967 .14624024 .48120118 .107666019 .46183268 .0690918 .43522135 .03955078 .4013672 .019042969 .36751304-.0014648438 .32910157-.01171875 .2861328-.01171875 .21289063-.01171875 .15315755 .015197754 .106933597 .06903076 .060709638 .12287394 .037597658 .2116038 .037597658 .33522035 .037597658 .47347514 .06315104 .57399496 .11425781 .6367798 .15885417 .6914266 .21891277 .71875 .2944336 .71875 .3507487 .71875 .39689128 .70292159 .43286134 .67126467 .4688314 .6396077 .49039714 .595871 .4975586 .5400543M.13867188 .23287964C.13867188 .20269776 .1451009 .17381287 .15795899 .14622498 .17081706 .118637088 .18880208 .09762064 .21191406 .08317566 .23502605 .068740848 .25927735 .061523439 .28466798 .061523439 .32177735 .061523439 .35367839 .07645162 .3803711 .10630798 .4070638 .13616435 .42041017 .17673238 .42041017 .22801209 .42041017 .27734886 .40722657 .31621299 .38085938 .3446045 .3544922 .3730062 .32128907 .38720704 .28125 .38720704 .24153646 .38720704 .20784505 .3730062 .18017578 .3446045 .15250652 .31621299 .13867188 .27897135 .13867188 .23287964Z"/>
<path id="font_35_42" d="M.41210938 .28222657V.36523438L.71533206 .36572267V.10058594C.66878256 .063313808 .62076827 .03527832 .57128909 .016479493 .5218099-.002319336 .47102867-.01171875 .4189453-.01171875 .3486328-.01171875 .28474937 .0033365887 .22729492 .033447267 .1698405 .063557948 .12646485 .10709635 .09716797 .1640625 .067871097 .22102864 .053222658 .28466798 .053222658 .35498048 .053222658 .42464195 .06778971 .4896647 .09692383 .5500488 .12605794 .6104329 .16796875 .65527346 .22265625 .6845703 .27734376 .7138672 .34033204 .7285156 .4116211 .7285156 .4633789 .7285156 .51017257 .7201538 .55200198 .7034302 .59383139 .68670657 .6266276 .6634013 .6503906 .6335144 .6741536 .6036377 .69222006 .56466677 .70458987 .51660159L.6191406 .49316407C.60839846 .5296224 .59505209 .55826827 .57910159 .57910159 .56315109 .5999349 .54036459 .61661788 .5107422 .6291504 .48111979 .6416829 .4482422 .6479492 .41210938 .6479492 .3688151 .6479492 .33138023 .64135238 .2998047 .62815859 .26822917 .6149648 .24275716 .59761556 .22338867 .57611086 .20402019 .55460616 .18896485 .53098556 .17822266 .505249 .15999349 .4609375 .1508789 .41288249 .1508789 .36108399 .1508789 .29723106 .16186524 .24379985 .18383789 .2007904 .20581055 .15778096 .23779297 .12584941 .27978517 .10499573 .32177735 .08415222 .3663737 .07373047 .41357423 .07373047 .45458985 .07373047 .4946289 .08167521 .5336914 .0975647 .5727539 .113454189 .6023763 .13041179 .6225586 .1484375V.28222657H.41210938Z"/>
<path id="font_35_23" d="M.3232422 0V.17138672H.0126953129V.25195313L.33935548 .7158203H.4111328V.25195313H.5078125V.17138672H.4111328V0H.3232422M.3232422 .25195313V.57470706L.099121097 .25195313H.3232422Z"/>
<path id="font_35_24" d="M.041503908 .18847656 .13378906 .19628906C.140625 .15151978 .15649414 .117863979 .18139649 .095321658 .20629883 .07278951 .23632813 .061523439 .27148438 .061523439 .3138021 .061523439 .34960938 .077448528 .37890626 .109298709 .40820313 .14115906 .42285157 .18341573 .42285157 .23606873 .42285157 .28612773 .4087728 .32562257 .38061524 .35455323 .35245768 .3834839 .31559245 .39794923 .27001954 .39794923 .24169922 .39794923 .21614583 .39156596 .19335938 .37879945 .17057292 .36603294 .15266927 .34946696 .13964844 .32910157L.057128908 .33984376 .12646485 .70703127H.48242188V.62402346H.19677735L.15820313 .43115235C.20117188 .46077476 .24625652 .47558595 .29345704 .47558595 .35595704 .47558595 .4086914 .45391337 .45166017 .41056825 .4946289 .36723329 .5161133 .31151835 .5161133 .24342346 .5161133 .17857361 .49723307 .122528079 .45947267 .075286868 .41357423 .017283122 .35091148-.01171875 .27148438-.01171875 .2063802-.01171875 .15323894 .006556193 .11206055 .04310608 .070882167 .07965597 .04736328 .1281128 .041503908 .18847656Z"/>
</defs>
<g clip-path="url(#clip_1)">
<g clip-path="url(#clip_2)">
</g>
<g clip-path="url(#clip_3)">
<path transform="matrix(1,0,0,-1,60.75864,-581.0632)" d="M0 0" fill="#e30213"/>
<path transform="matrix(1,0,0,-1,60.75864,-581.0632)" stroke-width=".5" stroke-linecap="butt" stroke-miterlimit="4" stroke-linejoin="miter" fill="none" stroke="#2c292a" d="M0 0"/>
</g>
<g clip-path="url(#clip_4)">
</g>
<path transform="matrix(1,0,0,-1,-40.201658,194.8645)" stroke-width=".5" stroke-linecap="butt" stroke-miterlimit="4" stroke-linejoin="miter" fill="none" stroke="#030000" d="M369.004 62.612H578.213V572.348H369.004Z"/>
<g clip-path="url(#clip_5)">
</g>
<g clip-path="url(#clip_6)">
</g>
<g clip-path="url(#clip_7)">
</g>
<g clip-path="url(#clip_8)">
</g>
<g clip-path="url(#clip_9)">
</g>
<g clip-path="url(#clip_10)">
</g>
<g clip-path="url(#clip_11)">
</g>
<g clip-path="url(#clip_12)">
</g>
<g clip-path="url(#clip_13)">
</g>
<g clip-path="url(#clip_14)">
</g>
<g clip-path="url(#clip_15)">
</g>
<g clip-path="url(#clip_16)">
</g>
<g clip-path="url(#clip_17)">
</g>
<g clip-path="url(#clip_18)">
</g>
<g clip-path="url(#clip_19)">
</g>
<g clip-path="url(#clip_20)">
</g>
<g clip-path="url(#clip_21)">
</g>
<g clip-path="url(#clip_22)">
</g>
<g clip-path="url(#clip_23)">
</g>
<g clip-path="url(#clip_24)">
</g>
<g clip-path="url(#clip_25)">
</g>
<g clip-path="url(#clip_26)">
</g>
<g clip-path="url(#clip_27)">
</g>
<g clip-path="url(#clip_28)">
</g>
<g clip-path="url(#clip_29)">
</g>
<g clip-path="url(#clip_30)">
</g>
<g clip-path="url(#clip_31)">
</g>
<g clip-path="url(#clip_32)">
</g>
<g clip-path="url(#clip_33)">
</g>
<g clip-path="url(#clip_34)">
</g>
<use data-text="S" xlink:href="#font_35_54" transform="matrix(5.8486,0,0,-5.8486,10.453842,99.7304)"/>
<use data-text="S" xlink:href="#font_35_54" transform="matrix(5.8486,0,0,-5.8486,32.789648,99.7304)"/>
<path transform="matrix(-.7310791,-0,0,.7310791,44.000127,55.516847)" stroke-width=".75" stroke-linecap="butt" stroke-linejoin="bevel" fill="none" stroke="#000000" d="M0 0H12.75"/>
<path transform="matrix(-.7310791,-0,0,.7310791,75.56241,30.102967)" stroke-width=".75" stroke-linecap="butt" stroke-linejoin="bevel" fill="none" stroke="#000000" d="M0 0H87"/>
<path transform="matrix(.7310791,0,0,-.7310791,11.958271,84.12628)" stroke-width=".75" stroke-linecap="butt" stroke-linejoin="bevel" fill="none" stroke="#000000" d="M0 0H61.5"/>
<path transform="matrix(.0077057,.7310791,.7310791,-.0077057,11.825642,17.784363)" stroke-width=".75" stroke-linecap="butt" stroke-linejoin="bevel" fill="none" stroke="#000000" d="M0 0 16.496 .002"/>
<path transform="matrix(0,.7310791,.7310791,0,44.00014,51.381868)" stroke-width=".75" stroke-linecap="butt" stroke-linejoin="bevel" fill="none" stroke="#000000" d="M0 0H10.5"/>
<path transform="matrix(0,.7310791,.7310791,0,44.00014,61.491273)" stroke-width=".75" stroke-linecap="butt" stroke-linejoin="bevel" fill="none" stroke="#000000" d="M0 0H10.5"/>
<path transform="matrix(-.7310791,-0,0,-.7310791,34.20801,55.562898)" d="M0 0-6-3V3Z"/>
<path transform="matrix(-.7310791,-0,0,-.7310791,34.20801,55.562898)" stroke-width=".75" stroke-linecap="butt" stroke-linejoin="bevel" fill="none" stroke="#0d0d0d" d="M0 0-6-3V3Z"/>
<path transform="matrix(-.7310791,-0,0,.7310791,13.47234,16.13565)" stroke-width=".75" stroke-linecap="butt" stroke-linejoin="bevel" fill="none" stroke="#000000" d="M0 0C0-1.5 1.008-2.25 2.25-2.25 3.75-2.25 4.5-1.242 4.5 0 4.5 1.5 3.493 2.25 2.25 2.25 .75 2.25 0 1.246 0 0Z"/>
<path transform="matrix(-.7310791,-0,0,.7310791,13.47234,91.25433)" stroke-width=".75" stroke-linecap="butt" stroke-linejoin="bevel" fill="none" stroke="#000000" d="M0 0C0-1.5 1.008-2.25 2.25-2.25 3.75-2.25 4.5-1.242 4.5 0 4.5 1.5 3.493 2.25 2.25 2.25 .75 2.25 0 1.246 0 0Z"/>
<path transform="matrix(-.7310791,-0,0,.7310791,35.953115,91.25433)" stroke-width=".75" stroke-linecap="butt" stroke-linejoin="bevel" fill="none" stroke="#000000" d="M0 0C0-1.5 1.008-2.25 2.25-2.25 3.75-2.25 4.5-1.242 4.5 0 4.5 1.5 3.493 2.25 2.25 2.25 .75 2.25 0 1.246 0 0Z"/>
<path transform="matrix(0,-.7310791,-.7310791,-0,57.0631,30.102967)" stroke-width=".75" stroke-linecap="butt" stroke-linejoin="bevel" fill="none" stroke="#000000" d="M0 0H17.25"/>
<path transform="matrix(.7310791,0,0,-.7310791,55.418157,90.782779)" stroke-width=".75" stroke-linecap="butt" stroke-linejoin="bevel" fill="none" stroke="#000000" d="M0 0C0-1.5 1.007-2.25 2.25-2.25 3.75-2.25 4.5-1.243 4.5 0 4.5 1.5 3.492 2.25 2.25 2.25 .75 2.25 0 1.242 0 0Z"/>
<path transform="matrix(.7310791,0,0,-.7310791,55.418157,15.664124)" stroke-width=".75" stroke-linecap="butt" stroke-linejoin="bevel" fill="none" stroke="#000000" d="M0 0C0-1.5 1.007-2.25 2.25-2.25 3.75-2.25 4.5-1.243 4.5 0 4.5 1.5 3.492 2.25 2.25 2.25 .75 2.25 0 1.242 0 0Z"/>
<path transform="matrix(.7310791,0,0,-.7310791,32.389074,15.664124)" stroke-width=".75" stroke-linecap="butt" stroke-linejoin="bevel" fill="none" stroke="#000000" d="M0 0C0-1.5 1.007-2.25 2.25-2.25 3.75-2.25 4.5-1.243 4.5 0 4.5 1.5 3.492 2.25 2.25 2.25 .75 2.25 0 1.242 0 0Z"/>
<use data-text="S" xlink:href="#font_35_54" transform="matrix(5.8486,0,0,-5.8486,55.415044,99.7304)"/>
<use data-text="D" xlink:href="#font_35_39" transform="matrix(5.8486,0,0,-5.8486,10.456856,10.083069)"/>
<use data-text="D" xlink:href="#font_35_39" transform="matrix(5.8486,0,0,-5.8486,32.79851,10.083069)"/>
<use data-text="D" xlink:href="#font_35_39" transform="matrix(5.8486,0,0,-5.8486,55.41505,10.083069)"/>
<use data-text="1" xlink:href="#font_35_20" transform="matrix(5.8486,0,0,-5.8486,4,92.226657)"/>
<use data-text="2" xlink:href="#font_35_21" transform="matrix(5.8486,0,0,-5.8486,27.025944,92.226657)"/>
<use data-text="3" xlink:href="#font_35_22" transform="matrix(5.8486,0,0,-5.8486,49.23308,92.226657)"/>
<use data-text="8" xlink:href="#font_35_27" transform="matrix(5.8486,0,0,-5.8486,4.5497667,18.563538)"/>
<use data-text="7" xlink:href="#font_35_26" transform="matrix(5.8486,0,0,-5.8486,27.575703,18.563538)"/>
<use data-text="6" xlink:href="#font_35_25" transform="matrix(5.8486,0,0,-5.8486,49.78284,18.563538)"/>
<path transform="matrix(-.7310791,-0,0,-.7310791,43.906545,65.86093)" stroke-width=".75" stroke-linecap="butt" stroke-linejoin="bevel" fill="none" stroke="#000000" d="M0 0H13.5"/>
<path transform="matrix(-.7310791,-0,0,-.7310791,43.67188,45.18448)" stroke-width=".75" stroke-linecap="butt" stroke-linejoin="bevel" fill="none" stroke="#000000" d="M0 0H13.5"/>
<path transform="matrix(0,.7310791,.7310791,0,44.00014,40.81552)" stroke-width=".75" stroke-linecap="butt" stroke-linejoin="bevel" fill="none" stroke="#000000" d="M0 0H10.5"/>
<path transform="matrix(0,-.7310791,.7310791,0,34.034017,45.45569)" stroke-width=".75" stroke-linecap="butt" stroke-linejoin="bevel" fill="none" stroke="#000000" d="M0 0H38.25"/>
<path transform="matrix(-.001358,-.7310791,.7310791,-.001358,34.30657,89.61243)" stroke-width=".75" stroke-linecap="butt" stroke-linejoin="bevel" fill="none" stroke="#000000" d="M0 0 46.5 .001"/>
<path transform="matrix(-.7310791,.0000153,.0000153,.7310791,76.40587,69.33597)" stroke-width=".75" stroke-linecap="butt" stroke-linejoin="bevel" fill="none" stroke="#000000" d="M0 0 37.5-.001"/>
<path transform="matrix(0,-.7310791,-.7310791,-0,33.933858,66.794528)" d="M0 0C0-.75 .563-1.5 1.254-1.5 2.25-1.5 2.512-.934 2.512-.242 2.25 .75 1.949 1.016 1.254 1.016 .75 .75 0 .453 0-.242Z"/>
<path transform="matrix(0,-.7310791,-.7310791,-0,33.933858,66.794528)" stroke-width=".75" stroke-linecap="butt" stroke-linejoin="bevel" fill="none" stroke="#000000" d="M0 0C0-.75 .563-1.5 1.254-1.5 2.25-1.5 2.512-.934 2.512-.242 2.25 .75 1.949 1.016 1.254 1.016 .75 .75 0 .453 0-.242Z"/>
<path transform="matrix(0,-.7310791,-.7310791,-0,25.749394,73.967899)" stroke-width=".75" stroke-linecap="butt" stroke-linejoin="bevel" fill="none" stroke="#000000" d="M0 0H51"/>
<path transform="matrix(-.7310791,-0,0,-.7310791,34.939107,36.751436)" stroke-width=".75" stroke-linecap="butt" stroke-linejoin="bevel" fill="none" stroke="#000000" d="M0 0H12.75"/>
<path transform="matrix(0,-.7310791,-.7310791,-0,33.842473,37.668214)" d="M0 0C0-.75 .562-1.5 1.254-1.5 2.25-1.5 2.512-.937 2.512-.246 2.25 .75 1.949 1.012 1.254 1.012 .75 .75 0 .449 0-.246Z"/>
<path transform="matrix(0,-.7310791,-.7310791,-0,33.842473,37.668214)" stroke-width=".75" stroke-linecap="butt" stroke-linejoin="bevel" fill="none" stroke="#000000" d="M0 0C0-.75 .562-1.5 1.254-1.5 2.25-1.5 2.512-.937 2.512-.246 2.25 .75 1.949 1.012 1.254 1.012 .75 .75 0 .449 0-.246Z"/>
<path transform="matrix(-.7310791,-0,0,-.7310791,48.838445,69.14786)" stroke-width=".75" stroke-linecap="butt" stroke-linejoin="bevel" fill="none" stroke="#000000" d="M0 0-.007 38.25"/>
<path transform="matrix(.7310791,0,0,-.7310791,74.76625,90.782779)" stroke-width=".75" stroke-linecap="butt" stroke-linejoin="bevel" fill="none" stroke="#000000" d="M0 0C0-1.5 1.007-2.25 2.25-2.25 3.75-2.25 4.5-1.243 4.5 0 4.5 1.5 3.492 2.25 2.25 2.25 .75 2.25 0 1.242 0 0Z"/>
<use data-text="G" xlink:href="#font_35_42" transform="matrix(5.8486,0,0,-5.8486,74.21445,99.7304)"/>
<use data-text="4" xlink:href="#font_35_23" transform="matrix(5.8486,0,0,-5.8486,68.582248,92.220798)"/>
<path transform="matrix(0,.7310791,.7310791,0,76.411197,69.33356)" stroke-width=".75" stroke-linecap="butt" stroke-linejoin="bevel" fill="none" stroke="#000000" d="M0 0H27"/>
<path transform="matrix(0,-.7310791,-.7310791,-0,75.86287,30.102967)" stroke-width=".75" stroke-linecap="butt" stroke-linejoin="bevel" fill="none" stroke="#000000" d="M0 0H17.25"/>
<path transform="matrix(.7310791,0,0,-.7310791,74.217929,15.664124)" stroke-width=".75" stroke-linecap="butt" stroke-linejoin="bevel" fill="none" stroke="#000000" d="M0 0C0-1.5 1.007-2.25 2.25-2.25 3.75-2.25 4.5-1.243 4.5 0 4.5 1.5 3.492 2.25 2.25 2.25 .75 2.25 0 1.242 0 0Z"/>
<use data-text="D" xlink:href="#font_35_39" transform="matrix(5.8486,0,0,-5.8486,74.21445,10.082504)"/>
<use data-text="5" xlink:href="#font_35_24" transform="matrix(5.8486,0,0,-5.8486,68.582248,18.562973)"/>
<path transform="matrix(0,.7310791,-.7310791,-0,25.794728,56.465059)" d="M0 0-6-3V3Z"/>
<path transform="matrix(0,.7310791,-.7310791,-0,25.794728,56.465059)" stroke-width=".75" stroke-linecap="butt" stroke-linejoin="bevel" fill="none" stroke="#0d0d0d" d="M0 0-6-3V3Z"/>
<path transform="matrix(-.7310791,-0,0,.7310791,28.047917,56.433626)" stroke-width=".75" stroke-linecap="butt" stroke-linejoin="bevel" fill="none" stroke="#000000" d="M0 0H6"/>
<path transform="matrix(-.7310791,-0,0,-.7310791,35.31853,73.790988)" stroke-width=".75" stroke-linecap="butt" stroke-linejoin="bevel" fill="none" stroke="#000000" d="M0 0H13.5"/>
<path transform="matrix(0,-.7310791,-.7310791,-0,34.221914,74.71069)" d="M0 0C0-.75 .562-1.5 1.258-1.5 2.25-1.5 2.516-.938 2.516-.243 2.25 .75 1.953 1.011 1.258 1.011 .75 .75 0 .449 0-.243Z"/>
<path transform="matrix(0,-.7310791,-.7310791,-0,34.221914,74.71069)" stroke-width=".75" stroke-linecap="butt" stroke-linejoin="bevel" fill="none" stroke="#000000" d="M0 0C0-.75 .562-1.5 1.258-1.5 2.25-1.5 2.516-.938 2.516-.243 2.25 .75 1.953 1.011 1.258 1.011 .75 .75 0 .449 0-.243Z"/>
<path transform="matrix(0,-.7310791,-.7310791,-0,33.842473,31.08847)" d="M0 0C0-.75 .562-1.5 1.254-1.5 2.25-1.5 2.512-.937 2.512-.246 2.25 .75 1.949 1.012 1.254 1.012 .75 .75 0 .449 0-.246Z"/>
<path transform="matrix(0,-.7310791,-.7310791,-0,33.842473,31.08847)" stroke-width=".75" stroke-linecap="butt" stroke-linejoin="bevel" fill="none" stroke="#000000" d="M0 0C0-.75 .562-1.5 1.254-1.5 2.25-1.5 2.512-.937 2.512-.246 2.25 .75 1.949 1.012 1.254 1.012 .75 .75 0 .449 0-.246Z"/>
<path transform="matrix(0,-.7310791,-.7310791,-0,56.871557,31.08847)" d="M0 0C0-.75 .562-1.5 1.254-1.5 2.25-1.5 2.512-.937 2.512-.246 2.25 .75 1.949 1.012 1.254 1.012 .75 .75 0 .449 0-.246Z"/>
<path transform="matrix(0,-.7310791,-.7310791,-0,56.871557,31.08847)" stroke-width=".75" stroke-linecap="butt" stroke-linejoin="bevel" fill="none" stroke="#000000" d="M0 0C0-.75 .562-1.5 1.254-1.5 2.25-1.5 2.512-.937 2.512-.246 2.25 .75 1.949 1.012 1.254 1.012 .75 .75 0 .449 0-.246Z"/>
<path transform="matrix(0,.7310791,.7310791,0,57.0631,84.38583)" stroke-width=".75" stroke-linecap="butt" stroke-linejoin="bevel" fill="none" stroke="#000000" d="M0 0H6.75"/>
<path transform="matrix(0,-.7310791,-.7310791,-0,34.221914,85.1286)" d="M0 0C0-.75 .562-1.5 1.258-1.5 2.25-1.5 2.516-.938 2.516-.243 2.25 .75 1.953 1.011 1.258 1.011 .75 .75 0 .449 0-.243Z"/>
<path transform="matrix(0,-.7310791,-.7310791,-0,34.221914,85.1286)" stroke-width=".75" stroke-linecap="butt" stroke-linejoin="bevel" fill="none" stroke="#000000" d="M0 0C0-.75 .562-1.5 1.258-1.5 2.25-1.5 2.516-.938 2.516-.243 2.25 .75 1.953 1.011 1.258 1.011 .75 .75 0 .449 0-.243Z"/>
<path transform="matrix(0,.7310791,.7310791,0,11.827412,84.30908)" stroke-width=".75" stroke-linecap="butt" stroke-linejoin="bevel" fill="none" stroke="#000000" d="M0 0H7.5"/>
<path transform="matrix(1,0,0,-1,337.05934,-177.22248)" stroke-width=".207" stroke-linecap="square" stroke-linejoin="round" fill="none" stroke="#231f20" d="M0 0V-175.21"/>
<path transform="matrix(1,0,0,-1,-28.201657,209.98253)" d="M365.154 211.895H365.361V387.313H365.154Z" fill="#231f20"/>
<path transform="matrix(1,0,0,-1,527.98837,-177.01548)" stroke-width=".207" stroke-linecap="square" stroke-linejoin="round" fill="none" stroke="#231f20" d="M0 0V-175.003"/>
<path transform="matrix(1,0,0,-1,-28.201657,209.98253)" d="M556.091 211.895H556.297V387.10603H556.091Z" fill="#231f20"/>
<path transform="matrix(1,0,0,-1,364.74336,-166.06748)" stroke-width=".207" stroke-linecap="square" stroke-linejoin="round" fill="none" stroke="#231f20" d="M0 0V-164.055"/>
<path transform="matrix(1,0,0,-1,-28.201657,209.98253)" d="M392.846 211.895H393.053V376.15803H392.846Z" fill="#231f20"/>
<path transform="matrix(1,0,0,-1,420.13233,-166.06748)" stroke-width=".207" stroke-linecap="square" stroke-linejoin="round" fill="none" stroke="#231f20" d="M0 0V-164.055"/>
<path transform="matrix(1,0,0,-1,-28.201657,209.98253)" d="M448.226 211.895H448.433V376.15803H448.226Z" fill="#231f20"/>
<path transform="matrix(1,0,0,-1,475.49934,-166.06748)" stroke-width=".207" stroke-linecap="square" stroke-linejoin="round" fill="none" stroke="#231f20" d="M0 0V-164.055"/>
<path transform="matrix(1,0,0,-1,-28.201657,209.98253)" d="M503.594 211.895H503.8V376.15803H503.594Z" fill="#231f20"/>
<path transform="matrix(1,0,0,-1,392.42735,-122.271457)" stroke-width=".207" stroke-linecap="square" stroke-linejoin="round" fill="none" stroke="#231f20" d="M0 0V-120.259"/>
<path transform="matrix(1,0,0,-1,-28.201657,209.98253)" d="M420.529 211.895H420.736V332.36103H420.529Z" fill="#231f20"/>
<path transform="matrix(1,0,0,-1,447.81636,-122.271457)" stroke-width=".207" stroke-linecap="square" stroke-linejoin="round" fill="none" stroke="#231f20" d="M0 0V-120.259"/>
<path transform="matrix(1,0,0,-1,-28.201657,209.98253)" d="M475.91 211.895H476.117V332.36103H475.91Z" fill="#231f20"/>
</g>
</svg>
