<?xml version="1.0" encoding="UTF-8" standalone="no"?>
<!DOCTYPE svg PUBLIC "-//W3C//DTD SVG 1.1//EN" "http://www.w3.org/Graphics/SVG/1.1/DTD/svg11.dtd">
<svg width="100%" height="100%" viewBox="0 0 80 119" version="1.1" xmlns="http://www.w3.org/2000/svg" xmlns:xlink="http://www.w3.org/1999/xlink" xml:space="preserve" xmlns:serif="http://www.serif.com/" style="fill-rule:evenodd;clip-rule:evenodd;stroke-miterlimit:10;">
    <g>
        <clipPath id="_clip1">
            <rect x="0" y="0" width="79.408" height="118.904"/>
        </clipPath>
        <g clip-path="url(#_clip1)">
            <g transform="matrix(0.486954,0,0,-0.486954,-107.71066,292.93403)">
                <rect x="225.3" y="397.25" width="150.25" height="164.4" style="fill:white;"/>
            </g>
            <g transform="matrix(0.486954,0,0,-0.486954,-107.71066,292.93403)">
                <rect x="225.3" y="397.25" width="150.25" height="164.4" style="fill:none;fill-rule:nonzero;stroke:black;stroke-width:1.5px;"/>
            </g>
            <g transform="matrix(0.486954,0,0,-0.486954,-107.71066,292.93403)">
                <rect x="348.55" y="561.65" width="14.4" height="5.65" style="fill:white;"/>
            </g>
            <g transform="matrix(0.486954,0,0,-0.486954,-107.71066,292.93403)">
                <rect x="348.55" y="561.65" width="14.4" height="5.65" style="fill:none;fill-rule:nonzero;stroke:black;stroke-width:1.5px;"/>
            </g>
            <g transform="matrix(0.486954,0,0,-0.486954,-107.71066,292.93403)">
                <rect x="236.55" y="561.85" width="14.4" height="5.65" style="fill:white;"/>
            </g>
            <g transform="matrix(0.486954,0,0,-0.486954,-107.71065,292.93403)">
                <rect x="236.55" y="561.85" width="14.4" height="5.65" style="fill:none;fill-rule:nonzero;stroke:black;stroke-width:1.5px;"/>
            </g>
            <g transform="matrix(0.486954,0,0,-0.486954,-107.71066,292.93403)">
                <rect x="311.6" y="561.65" width="14.4" height="5.65" style="fill:white;"/>
            </g>
            <g transform="matrix(0.486954,0,0,-0.486954,-107.71066,292.93403)">
                <rect x="311.6" y="561.65" width="14.4" height="5.65" style="fill:none;fill-rule:nonzero;stroke:black;stroke-width:1.5px;"/>
            </g>
            <g transform="matrix(0.486954,0,0,-0.486954,-107.71065,292.93403)">
                <rect x="349.95" y="391.65" width="14.4" height="5.65" style="fill:white;"/>
            </g>
            <g transform="matrix(0.486954,0,0,-0.486954,-107.71066,292.93403)">
                <rect x="349.95" y="391.65" width="14.4" height="5.65" style="fill:none;fill-rule:nonzero;stroke:black;stroke-width:1.5px;"/>
            </g>
            <g transform="matrix(0.486954,0,0,-0.486954,-107.71066,292.93403)">
                <rect x="237.95" y="391.6" width="14.4" height="5.65" style="fill:white;"/>
            </g>
            <g transform="matrix(0.486954,0,0,-0.486954,-107.71065,292.93403)">
                <rect x="237.95" y="391.6" width="14.4" height="5.65" style="fill:none;fill-rule:nonzero;stroke:black;stroke-width:1.5px;"/>
            </g>
            <g transform="matrix(0.486954,0,0,-0.486954,-107.71066,292.93403)">
                <rect x="274.25" y="561.85" width="14.4" height="5.65" style="fill:white;"/>
            </g>
            <g transform="matrix(0.486954,0,0,-0.486954,-107.71066,292.93403)">
                <rect x="274.25" y="561.85" width="14.4" height="5.65" style="fill:none;fill-rule:nonzero;stroke:black;stroke-width:1.5px;"/>
            </g>
            <g transform="matrix(0.486954,0,0,-0.486954,-107.71065,292.93403)">
                <rect x="312.95" y="391.6" width="14.4" height="5.65" style="fill:white;"/>
            </g>
            <g transform="matrix(0.486954,0,0,-0.486954,-107.71066,292.93403)">
                <rect x="312.95" y="391.6" width="14.4" height="5.65" style="fill:none;fill-rule:nonzero;stroke:black;stroke-width:1.5px;"/>
            </g>
            <g transform="matrix(0.486954,0,0,-0.486954,-107.71066,292.93403)">
                <rect x="275.85" y="391.6" width="14.4" height="5.65" style="fill:white;"/>
            </g>
            <g transform="matrix(0.486954,0,0,-0.486954,-107.71066,292.93403)">
                <rect x="275.85" y="391.6" width="14.4" height="5.65" style="fill:none;fill-rule:nonzero;stroke:black;stroke-width:1.5px;"/>
            </g>
            <g transform="matrix(0.486954,0,0,-0.486954,-107.71066,292.93403)">
                <rect x="235.8" y="365.6" width="140.25" height="19.9" style="fill:white;"/>
            </g>
            <g transform="matrix(0.486954,0,0,-0.486954,-107.71066,292.934)">
                <rect x="235.8" y="365.6" width="140.25" height="19.9" style="fill:none;fill-rule:nonzero;stroke:white;stroke-width:0.75px;"/>
            </g>
            <g id="font_35_20" transform="matrix(5.844,0,0,-5.844,10.817505,112.58285)">
                <path d="M0.373,0L0.285,0L0.285,0.56C0.264,0.54 0.236,0.52 0.201,0.5C0.167,0.479 0.136,0.464 0.109,0.454L0.109,0.539C0.158,0.562 0.201,0.59 0.238,0.623C0.275,0.656 0.301,0.688 0.316,0.719L0.373,0.719L0.373,0Z" style="fill-rule:nonzero;"/>
            </g>
            <g id="font_35_21" transform="matrix(5.844,0,0,-5.844,28.709839,112.58285)">
                <path d="M0.503,0.084L0.503,0L0.03,0C0.03,0.021 0.033,0.041 0.041,0.061C0.053,0.093 0.072,0.125 0.098,0.156C0.125,0.187 0.163,0.224 0.213,0.264C0.291,0.328 0.344,0.379 0.371,0.416C0.398,0.453 0.412,0.488 0.412,0.522C0.412,0.556 0.4,0.586 0.375,0.61C0.35,0.634 0.317,0.646 0.277,0.646C0.235,0.646 0.201,0.633 0.176,0.607C0.15,0.582 0.138,0.547 0.137,0.502L0.047,0.511C0.053,0.579 0.076,0.63 0.117,0.666C0.157,0.701 0.211,0.719 0.279,0.719C0.348,0.719 0.402,0.7 0.442,0.662C0.482,0.624 0.502,0.576 0.502,0.52C0.502,0.491 0.497,0.463 0.485,0.435C0.473,0.408 0.454,0.379 0.427,0.348C0.399,0.317 0.354,0.275 0.291,0.222C0.238,0.178 0.204,0.148 0.189,0.132C0.174,0.116 0.162,0.1 0.152,0.084L0.503,0.084Z" style="fill-rule:nonzero;"/>
            </g>
            <g id="font_35_22" transform="matrix(5.844,0,0,-5.844,46.59253,112.58285)">
                <path d="M0.042,0.19L0.13,0.202C0.14,0.152 0.157,0.116 0.181,0.094C0.206,0.073 0.235,0.062 0.27,0.062C0.311,0.062 0.346,0.076 0.375,0.104C0.403,0.133 0.417,0.168 0.417,0.211C0.417,0.251 0.404,0.284 0.378,0.31C0.352,0.337 0.318,0.35 0.277,0.35C0.261,0.35 0.24,0.346 0.215,0.34L0.225,0.417C0.231,0.416 0.236,0.416 0.239,0.416C0.277,0.416 0.31,0.426 0.34,0.445C0.37,0.464 0.385,0.494 0.385,0.535C0.385,0.567 0.374,0.593 0.353,0.614C0.331,0.635 0.303,0.646 0.268,0.646C0.234,0.646 0.205,0.635 0.183,0.613C0.16,0.592 0.145,0.56 0.139,0.517L0.051,0.532C0.062,0.591 0.086,0.637 0.124,0.67C0.162,0.702 0.209,0.719 0.266,0.719C0.305,0.719 0.341,0.71 0.374,0.694C0.407,0.677 0.432,0.654 0.449,0.625C0.467,0.596 0.476,0.566 0.476,0.533C0.476,0.502 0.467,0.474 0.451,0.449C0.434,0.424 0.41,0.404 0.377,0.389C0.419,0.379 0.452,0.359 0.476,0.328C0.499,0.297 0.511,0.259 0.511,0.212C0.511,0.15 0.488,0.097 0.442,0.053C0.397,0.01 0.339,-0.012 0.27,-0.012C0.207,-0.012 0.155,0.007 0.113,0.045C0.072,0.082 0.048,0.131 0.042,0.19Z" style="fill-rule:nonzero;"/>
            </g>
            <g id="font_35_23" transform="matrix(5.844,0,0,-5.844,64.475269,112.58285)">
                <path d="M0.323,0L0.323,0.171L0.013,0.171L0.013,0.252L0.339,0.716L0.411,0.716L0.411,0.252L0.508,0.252L0.508,0.171L0.411,0.171L0.411,0L0.323,0M0.323,0.252L0.323,0.575L0.099,0.252L0.323,0.252Z" style="fill-rule:nonzero;"/>
            </g>
            <g transform="matrix(0.486954,0,0,-0.486954,8.402237,90.39743)">
                <path d="M0,0C0,3.9 3.19,7.07 7.12,7.07C11.06,7.07 14.25,3.9 14.25,0C14.25,-3.91 11.06,-7.08 7.12,-7.08C3.19,-7.08 0,-3.91 0,0Z"/>
            </g>
            <g transform="matrix(0.486954,0,0,-0.486954,8.402252,90.39743)">
                <path d="M0,0C0,3.9 3.19,7.07 7.12,7.07C11.06,7.07 14.25,3.9 14.25,0C14.25,-3.91 11.06,-7.08 7.12,-7.08C3.19,-7.08 0,-3.91 0,0Z" style="fill:none;fill-rule:nonzero;stroke:black;stroke-width:0.75px;stroke-linejoin:round;stroke-miterlimit:4;"/>
            </g>
            <g transform="matrix(0.486954,0,0,-0.486954,-107.71066,292.93403)">
                <rect x="233.75" y="573.45" width="140.25" height="19.9" style="fill:white;"/>
            </g>
            <g transform="matrix(0.486954,0,0,-0.486954,-107.71065,292.93403)">
                <rect x="233.75" y="573.45" width="140.25" height="19.9" style="fill:none;fill-rule:nonzero;stroke:white;stroke-width:0.75px;stroke-miterlimit:8;"/>
            </g>
            <g id="font_35_27" transform="matrix(5.844,0,0,-5.844,9.824112,11.307251)">
                <path d="M0.177,0.389C0.14,0.402 0.113,0.421 0.096,0.446C0.078,0.471 0.069,0.5 0.069,0.535C0.069,0.587 0.088,0.63 0.125,0.666C0.163,0.701 0.213,0.719 0.275,0.719C0.337,0.719 0.388,0.701 0.426,0.664C0.464,0.628 0.483,0.584 0.483,0.532C0.483,0.499 0.474,0.47 0.457,0.446C0.439,0.421 0.413,0.402 0.377,0.389C0.421,0.375 0.455,0.352 0.478,0.32C0.501,0.288 0.512,0.25 0.512,0.205C0.512,0.144 0.491,0.093 0.447,0.051C0.404,0.009 0.347,-0.012 0.276,-0.012C0.206,-0.012 0.149,0.009 0.105,0.051C0.062,0.093 0.041,0.145 0.041,0.208C0.041,0.254 0.052,0.293 0.076,0.325C0.1,0.356 0.133,0.378 0.177,0.389M0.159,0.537C0.159,0.504 0.17,0.476 0.192,0.455C0.214,0.433 0.242,0.423 0.277,0.423C0.311,0.423 0.338,0.433 0.36,0.455C0.382,0.476 0.393,0.502 0.393,0.532C0.393,0.564 0.381,0.591 0.359,0.613C0.337,0.635 0.309,0.646 0.276,0.646C0.242,0.646 0.215,0.635 0.192,0.614C0.17,0.592 0.159,0.567 0.159,0.537M0.131,0.208C0.131,0.183 0.137,0.159 0.149,0.135C0.161,0.112 0.178,0.094 0.202,0.081C0.225,0.068 0.25,0.062 0.277,0.062C0.319,0.062 0.354,0.075 0.381,0.102C0.409,0.129 0.422,0.163 0.422,0.205C0.422,0.247 0.408,0.282 0.38,0.31C0.352,0.337 0.317,0.351 0.274,0.351C0.233,0.351 0.199,0.337 0.172,0.31C0.144,0.283 0.131,0.249 0.131,0.208Z" style="fill-rule:nonzero;"/>
            </g>
            <g id="font_35_26" transform="matrix(5.844,0,0,-5.844,27.683396,11.307251)">
                <path d="M0.047,0.623L0.047,0.707L0.511,0.707L0.511,0.639C0.465,0.59 0.42,0.526 0.375,0.445C0.33,0.365 0.296,0.282 0.271,0.197C0.254,0.137 0.243,0.071 0.238,0L0.147,0C0.148,0.056 0.16,0.124 0.181,0.204C0.202,0.284 0.232,0.361 0.272,0.435C0.311,0.509 0.353,0.572 0.398,0.623L0.047,0.623Z" style="fill-rule:nonzero;"/>
            </g>
            <g id="font_35_25" transform="matrix(5.844,0,0,-5.844,45.531068,11.307251)">
                <path d="M0.498,0.54L0.41,0.533C0.402,0.568 0.391,0.593 0.377,0.608C0.353,0.633 0.324,0.646 0.289,0.646C0.261,0.646 0.236,0.638 0.215,0.622C0.188,0.602 0.166,0.573 0.15,0.534C0.134,0.496 0.126,0.441 0.125,0.37C0.146,0.402 0.172,0.426 0.203,0.441C0.233,0.457 0.265,0.465 0.299,0.465C0.357,0.465 0.407,0.443 0.448,0.4C0.49,0.357 0.51,0.301 0.51,0.233C0.51,0.188 0.501,0.146 0.481,0.108C0.462,0.069 0.435,0.04 0.401,0.019C0.368,-0.001 0.329,-0.012 0.286,-0.012C0.213,-0.012 0.153,0.015 0.107,0.069C0.061,0.123 0.038,0.212 0.038,0.335C0.038,0.473 0.063,0.574 0.114,0.637C0.159,0.691 0.219,0.719 0.294,0.719C0.351,0.719 0.397,0.703 0.433,0.671C0.469,0.64 0.49,0.596 0.498,0.54M0.139,0.233C0.139,0.203 0.145,0.174 0.158,0.146C0.171,0.119 0.189,0.098 0.212,0.083C0.235,0.069 0.259,0.062 0.285,0.062C0.322,0.062 0.354,0.076 0.38,0.106C0.407,0.136 0.42,0.177 0.42,0.228C0.42,0.277 0.407,0.316 0.381,0.345C0.354,0.373 0.321,0.387 0.281,0.387C0.242,0.387 0.208,0.373 0.18,0.345C0.153,0.316 0.139,0.279 0.139,0.233Z" style="fill-rule:nonzero;"/>
            </g>
            <g id="font_35_24" transform="matrix(5.844,0,0,-5.844,63.39618,11.307251)">
                <path d="M0.042,0.188L0.134,0.196C0.141,0.152 0.156,0.118 0.181,0.095C0.206,0.073 0.236,0.062 0.271,0.062C0.314,0.062 0.35,0.077 0.379,0.109C0.408,0.141 0.423,0.183 0.423,0.236C0.423,0.286 0.409,0.326 0.381,0.355C0.352,0.383 0.316,0.398 0.27,0.398C0.242,0.398 0.216,0.392 0.193,0.379C0.171,0.366 0.153,0.349 0.14,0.329L0.057,0.34L0.126,0.707L0.482,0.707L0.482,0.624L0.197,0.624L0.158,0.431C0.201,0.461 0.246,0.476 0.293,0.476C0.356,0.476 0.409,0.454 0.452,0.411C0.495,0.367 0.516,0.312 0.516,0.243C0.516,0.179 0.497,0.123 0.459,0.075C0.414,0.017 0.351,-0.012 0.271,-0.012C0.206,-0.012 0.153,0.007 0.112,0.043C0.071,0.08 0.047,0.128 0.042,0.188Z" style="fill-rule:nonzero;"/>
            </g>
            <g id="font_36_48" transform="matrix(10,0,0,-10,28.144959,50.94664)">
                <path d="M0.074,0L0.074,0.716L0.217,0.716L0.386,0.209C0.402,0.162 0.413,0.126 0.42,0.103C0.429,0.129 0.441,0.167 0.458,0.218L0.63,0.716L0.757,0.716L0.757,0L0.666,0L0.666,0.599L0.458,0L0.373,0L0.166,0.609L0.166,0L0.074,0Z" style="fill-rule:nonzero;"/>
            </g>
            <g id="font_36_38" transform="matrix(10,0,0,-10,36.474961,50.94664)">
                <path d="M0.588,0.252L0.683,0.228C0.663,0.15 0.627,0.091 0.575,0.05C0.524,0.009 0.461,-0.012 0.386,-0.012C0.309,-0.012 0.246,0.004 0.198,0.035C0.15,0.067 0.113,0.112 0.088,0.172C0.062,0.231 0.05,0.295 0.05,0.364C0.05,0.438 0.064,0.503 0.093,0.559C0.121,0.614 0.162,0.656 0.214,0.685C0.267,0.714 0.325,0.729 0.388,0.729C0.459,0.729 0.52,0.71 0.568,0.674C0.617,0.637 0.651,0.586 0.67,0.52L0.577,0.498C0.561,0.55 0.536,0.588 0.505,0.612C0.473,0.636 0.434,0.648 0.386,0.648C0.331,0.648 0.285,0.635 0.248,0.608C0.211,0.582 0.185,0.546 0.17,0.502C0.155,0.457 0.147,0.412 0.147,0.364C0.147,0.303 0.156,0.25 0.174,0.205C0.192,0.159 0.219,0.125 0.257,0.103C0.294,0.08 0.335,0.069 0.378,0.069C0.431,0.069 0.476,0.084 0.513,0.115C0.55,0.146 0.575,0.191 0.588,0.252Z" style="fill-rule:nonzero;"/>
            </g>
            <g id="font_36_381" serif:id="font_36_38" transform="matrix(10,0,0,-10,43.694961,50.94664)">
                <path d="M0.588,0.252L0.683,0.228C0.663,0.15 0.627,0.091 0.575,0.05C0.524,0.009 0.461,-0.012 0.386,-0.012C0.309,-0.012 0.246,0.004 0.198,0.035C0.15,0.067 0.113,0.112 0.088,0.172C0.062,0.231 0.05,0.295 0.05,0.364C0.05,0.438 0.064,0.503 0.093,0.559C0.121,0.614 0.162,0.656 0.214,0.685C0.267,0.714 0.325,0.729 0.388,0.729C0.459,0.729 0.52,0.71 0.568,0.674C0.617,0.637 0.651,0.586 0.67,0.52L0.577,0.498C0.561,0.55 0.536,0.588 0.505,0.612C0.473,0.636 0.434,0.648 0.386,0.648C0.331,0.648 0.285,0.635 0.248,0.608C0.211,0.582 0.185,0.546 0.17,0.502C0.155,0.457 0.147,0.412 0.147,0.364C0.147,0.303 0.156,0.25 0.174,0.205C0.192,0.159 0.219,0.125 0.257,0.103C0.294,0.08 0.335,0.069 0.378,0.069C0.431,0.069 0.476,0.084 0.513,0.115C0.55,0.146 0.575,0.191 0.588,0.252Z" style="fill-rule:nonzero;"/>
            </g>
            <g transform="matrix(1,0,0,1,5.292462,-8.342441)">
                <g transform="matrix(10,0,0,10,47.761287,71.373417)">
                </g>
                <text x="21.082px" y="71.373px" style="font-family:'ArialMT', 'Arial', sans-serif;font-size:10px;">XXXX</text>
            </g>
            <g transform="matrix(1,0,0,1,1.193341,4.035312)">
                <g transform="matrix(10,0,0,10,55.896053,71.373417)">
                </g>
                <text x="21.082px" y="71.373px" style="font-family:'ArialMT', 'Arial', sans-serif;font-size:10px;">YY<tspan x="34.241px 37.019px " y="71.373px 71.373px "> W</tspan>W</text>
            </g>
        </g>
    </g>
</svg>
