<svg xmlns="http://www.w3.org/2000/svg" xmlns:xlink="http://www.w3.org/1999/xlink" xmlns:inkscape="http://www.inkscape.org/namespaces/inkscape" version="1.1" width="79.40828" height="118.90375" viewBox="0 0 79.40828 118.90375">
<defs>
<clipPath id="clip_1">
<path transform="matrix(1,0,0,-1,-167.5427,200.47565)" d="M167.5427 81.5719H246.95098V200.47565H167.5427Z" clip-rule="evenodd"/>
</clipPath>
<clipPath id="clip_2">
<path transform="matrix(1,0,0,-1,-167.5427,200.47565)" d="M0 0H612.283V824.882H0Z"/>
</clipPath>
<clipPath id="clip_3">
<path transform="matrix(1,0,0,-1,-167.5427,200.47565)" d="M25.167 17.598H101.46V776.428H25.167Z"/>
</clipPath>
<clipPath id="clip_4">
<path transform="matrix(1,0,0,-1,-167.5427,200.47565)" d="M22.5522 30.8293H589.857V776.886H22.5522Z"/>
</clipPath>
<clipPath id="clip_5">
<path transform="matrix(1,0,0,-1,-242.909,262.99156)" d="M49.44 112.32H437.26V788.62H49.44Z" clip-rule="evenodd"/>
</clipPath>
<clipPath id="clip_6">
<path transform="matrix(1,0,0,-1,-243.49771,237.56378)" d="M49.44 112.32H437.26V788.62H49.44Z" clip-rule="evenodd"/>
</clipPath>
<clipPath id="clip_7">
<path transform="matrix(1.0000153,0,0,-.8243408,21.088425,174.47472)" d="M49.44 112.32H437.26V788.62H49.44Z" clip-rule="evenodd"/>
</clipPath>
<clipPath id="clip_8">
<path transform="matrix(1,0,0,-.7453613,-143.49771,113.25734)" d="M49.44 112.32H437.26V788.62H49.44Z" clip-rule="evenodd"/>
</clipPath>
<clipPath id="clip_9">
<path transform="matrix(1,0,0,-1,-242.909,276.99156)" d="M49.44 112.32H437.26V788.62H49.44Z" clip-rule="evenodd"/>
</clipPath>
<clipPath id="clip_10">
<path transform="matrix(1,0,0,-1,-242.909,290.99156)" d="M49.44 112.32H437.26V788.62H49.44Z" clip-rule="evenodd"/>
</clipPath>
<clipPath id="clip_11">
<path transform="matrix(1,0,0,-1,-243.49771,250.56378)" d="M49.44 112.32H437.26V788.62H49.44Z" clip-rule="evenodd"/>
</clipPath>
<clipPath id="clip_12">
<path transform="matrix(1,0,0,-1,-242.909,278.99156)" d="M49.44 112.32H437.26V788.62H49.44Z" clip-rule="evenodd"/>
</clipPath>
<clipPath id="clip_13">
<path transform="matrix(.8545837,0,0,-.8545837,117.767,1085.9609)" d="M103.77 443.55H659.37V1642.73H103.77Z" clip-rule="evenodd"/>
</clipPath>
<clipPath id="clip_14">
<path transform="matrix(1,0,0,-1,-243.49771,185.56378)" d="M49.44 112.32H437.26V788.62H49.44Z" clip-rule="evenodd"/>
</clipPath>
<clipPath id="clip_15">
<path transform="matrix(.8545837,0,0,-.8545837,117.60617,699.0781)" d="M103.77 443.55H659.37V1642.73H103.77Z" clip-rule="evenodd"/>
</clipPath>
<clipPath id="clip_16">
<path transform="matrix(.8505554,0,0,-.8505554,118.219577,1063.4325)" d="M103.77 360.3H659.37V1642.73H103.77Z" clip-rule="evenodd"/>
</clipPath>
<clipPath id="clip_17">
<path transform="matrix(1,0,0,-1,-167.54271,236.27364)" d="M30.12 53.28H577.8V780.33999H30.12Z" clip-rule="evenodd"/>
</clipPath>
<clipPath id="clip_18">
<path transform="matrix(1,0,0,-1,-167.54271,236.27364)" d="M30.12 53.28H577.8V780.33999H30.12Z" clip-rule="evenodd"/>
</clipPath>
<clipPath id="clip_19">
<path transform="matrix(1,0,0,-1,-167.54271,236.27364)" d="M30.12 53.28H577.8V780.33999H30.12Z" clip-rule="evenodd"/>
</clipPath>
<clipPath id="clip_20">
<path transform="matrix(1,0,0,-1,-167.54271,236.27364)" d="M30.12 53.28H577.8V780.33999H30.12Z" clip-rule="evenodd"/>
</clipPath>
<clipPath id="clip_21">
<path transform="matrix(1,0,0,-1,-167.54271,236.27364)" d="M30.12 53.28H577.8V780.33999H30.12Z" clip-rule="evenodd"/>
</clipPath>
<clipPath id="clip_22">
<path transform="matrix(1,0,0,-1,-167.54271,236.27364)" d="M30.12 53.28H577.8V780.33999H30.12Z" clip-rule="evenodd"/>
</clipPath>
<clipPath id="clip_23">
<path transform="matrix(1,0,0,-1,-167.54271,236.27364)" d="M30.12 53.28H577.8V780.33999H30.12Z" clip-rule="evenodd"/>
</clipPath>
<clipPath id="clip_24">
<path transform="matrix(1,0,0,-1,-167.54271,236.27364)" d="M30.12 53.28H577.8V780.33999H30.12Z" clip-rule="evenodd"/>
</clipPath>
<clipPath id="clip_25">
<path transform="matrix(1,0,0,-1,-167.54271,236.27364)" d="M30.12 53.28H577.8V780.33999H30.12Z" clip-rule="evenodd"/>
</clipPath>
<clipPath id="clip_26">
<path transform="matrix(1,0,0,-1,-167.54271,236.27364)" d="M30.12 53.28H577.8V780.33999H30.12Z" clip-rule="evenodd"/>
</clipPath>
<clipPath id="clip_27">
<path transform="matrix(1,0,0,-1,-167.54271,236.27364)" d="M30.12 53.28H577.8V780.33999H30.12Z" clip-rule="evenodd"/>
</clipPath>
<clipPath id="clip_28">
<path transform="matrix(1,0,0,-1,-167.54271,236.27364)" d="M30.12 53.28H577.8V780.33999H30.12Z" clip-rule="evenodd"/>
</clipPath>
<clipPath id="clip_29">
<path transform="matrix(1,0,0,-1,-167.54271,236.27364)" d="M30.12 53.28H577.8V780.33999H30.12Z" clip-rule="evenodd"/>
</clipPath>
<clipPath id="clip_30">
<path transform="matrix(.6652374,0,0,-1,-80.99986,236.27364)" d="M30.12 53.28H577.8V780.33999H30.12Z" clip-rule="evenodd"/>
</clipPath>
<clipPath id="clip_31">
<path transform="matrix(1,0,0,-1,-167.54271,236.27364)" d="M30.12 53.28H577.8V780.33999H30.12Z" clip-rule="evenodd"/>
</clipPath>
<clipPath id="clip_32">
<path transform="matrix(1,0,0,-1,-167.54271,236.27364)" d="M30.12 53.28H577.8V780.33999H30.12Z" clip-rule="evenodd"/>
</clipPath>
<clipPath id="clip_33">
<path transform="matrix(1,0,0,-1,-167.54271,236.27364)" d="M30.12 53.28H577.8V780.33999H30.12Z" clip-rule="evenodd"/>
</clipPath>
<clipPath id="clip_34">
<path transform="matrix(1,0,0,-1,-167.54271,236.27364)" d="M30.12 53.28H577.8V780.33999H30.12Z" clip-rule="evenodd"/>
</clipPath>
<path id="font_35_20" d="M.3725586 0H.28466798V.5600586C.26350913 .5398763 .23575847 .51969406 .20141602 .49951173 .16707357 .47932945 .13623047 .46419273 .10888672 .45410157V.5390625C.15804036 .5621745 .20100911 .59016928 .23779297 .6230469 .2745768 .6559245 .3006185 .6878255 .31591798 .71875H.3725586V0Z"/>
<path id="font_35_3" d=""/>
<path id="font_35_21" d="M.50341799 .084472659V0H.030273438C.029622397 .021148682 .033040365 .041483564 .040527345 .06100464 .052571615 .09321085 .07185873 .124928798 .09838867 .15615845 .12491862 .1873881 .1632487 .22350057 .2133789 .26449586 .29117839 .3282369 .34375 .37872825 .37109376 .41596986 .3984375 .45321147 .41210938 .48841859 .41210938 .5215912 .41210938 .5563914 .3996582 .5857442 .37475587 .60964968 .34985353 .6335551 .3173828 .6455078 .27734376 .6455078 .23502605 .6455078 .20117188 .6328125 .17578125 .6074219 .15039063 .58203127 .13753255 .546875 .13720703 .5019531L.046875 .5112457C.053059896 .5787811 .07633463 .630249 .11669922 .6656494 .1570638 .7010498 .21126302 .71875 .27929688 .71875 .34798179 .71875 .40234376 .69970199 .4423828 .66160586 .48242188 .6235097 .5024414 .57629397 .5024414 .5199585 .5024414 .4913025 .49658204 .46313478 .48486329 .43545533 .47314454 .40777589 .45369468 .3786316 .42651368 .34802247 .39933268 .3174235 .35416667 .27542115 .29101563 .22201538 .23828125 .17779541 .20442708 .14779663 .18945313 .13201905 .17447917 .116251628 .16210938 .10040283 .15234375 .084472659H.50341799Z"/>
<path id="font_35_22" d="M.041992189 .19042969 .12988281 .20214844C.13997396 .15234375 .15714519 .11645508 .18139649 .09448242 .20564778 .072509769 .2351888 .061523439 .27001954 .061523439 .3113607 .061523439 .3462728 .07582092 .37475587 .10441589 .40323893 .13301087 .41748048 .1684316 .41748048 .2106781 .41748048 .25098167 .40429688 .2842102 .3779297 .31036378 .3515625 .3365275 .31803385 .34960938 .27734376 .34960938 .2607422 .34960938 .24007161 .34635417 .21533203 .33984376L.22509766 .4169922C.23095703 .41634117 .23567708 .41601563 .23925781 .41601563 .27669273 .41601563 .31038413 .42569987 .34033204 .44506837 .37027995 .46443687 .3852539 .4942932 .3852539 .53463748 .3852539 .56658938 .37434898 .59305319 .35253907 .61402896 .33072917 .63501486 .30257163 .6455078 .2680664 .6455078 .23388672 .6455078 .20540364 .6347656 .18261719 .61328127 .15983074 .5917969 .1451823 .5595703 .13867188 .51660159L.05078125 .53222659C.061523439 .591451 .0859375 .63734439 .12402344 .6699066 .16210938 .7024689 .20947266 .71875 .26611329 .71875 .30517579 .71875 .34114585 .71039327 .37402345 .6936798 .40690104 .67696639 .43204753 .6541646 .4494629 .62527468 .46687828 .59639486 .47558595 .5657247 .47558595 .53326418 .47558595 .5024312 .46728517 .47435508 .4506836 .44903565 .43408204 .4237264 .40950523 .40360514 .37695313 .38867188 .41927085 .37890626 .45214845 .35864259 .47558595 .32788087 .49902345 .29711915 .5107422 .2586263 .5107422 .21240235 .5107422 .14990235 .48795573 .09692383 .4423828 .053466798 .3968099 .010009766 .33919273-.01171875 .26953126-.01171875 .20670574-.01171875 .15454102 .007044474 .11303711 .044570924 .0715332 .082097377 .047851564 .13071697 .041992189 .19042969Z"/>
<path id="font_35_23" d="M.3232422 0V.17138672H.0126953129V.25195313L.33935548 .7158203H.4111328V.25195313H.5078125V.17138672H.4111328V0H.3232422M.3232422 .25195313V.57470706L.099121097 .25195313H.3232422Z"/>
<path id="font_35_27" d="M.17675781 .38916017C.14029949 .40246583 .11328125 .42145286 .095703128 .44612123 .078125 .47078959 .06933594 .5003255 .06933594 .534729 .06933594 .5866597 .08805338 .63031008 .12548828 .66567996 .16292317 .70106 .21272786 .71875 .27490235 .71875 .33740235 .71875 .3876953 .7006531 .42578126 .6644592 .4638672 .6282756 .48291017 .5842183 .48291017 .5322876 .48291017 .4991862 .47420249 .4703827 .4567871 .44587709 .43937174 .42137147 .4129232 .40246583 .3774414 .38916017 .42138673 .3748169 .45483399 .3516744 .4777832 .31973268 .5007324 .28780113 .51220706 .24966939 .51220706 .20533753 .51220706 .1440684 .4905599 .09257507 .44726563 .050857545 .40397135 .009140015 .34700523-.01171875 .2763672-.01171875 .20572917-.01171875 .14876302 .009221395 .10546875 .051101686 .06217448 .09298197 .040527345 .14521282 .040527345 .20779419 .040527345 .25439454 .052327474 .29342143 .075927738 .32487489 .09952799 .35632835 .13313802 .37775675 .17675781 .38916017M.15917969 .53707888C.15917969 .5035197 .17008464 .47608949 .19189453 .4547882 .21370442 .4334971 .24202474 .42285157 .27685548 .42285157 .31070964 .42285157 .3384603 .4334208 .36010743 .45455934 .38175456 .47569786 .39257813 .501592 .39257813 .5322418 .39257813 .5641937 .38142906 .5910594 .35913087 .61283877 .33683268 .6346181 .30908204 .6455078 .2758789 .6455078 .24235027 .6455078 .21451824 .6348572 .19238281 .6135559 .17024739 .59226486 .15917969 .56677249 .15917969 .53707888M.13085938 .20776367C.13085938 .18273926 .13680013 .15852864 .14868164 .13513184 .16056316 .11173502 .17822266 .09361776 .20166016 .08078003 .22509766 .0679423 .25032554 .061523439 .27734376 .061523439 .31933595 .061523439 .3540039 .07500712 .38134767 .10197449 .4086914 .12895203 .42236329 .16323853 .42236329 .20483399 .42236329 .24708049 .40828453 .28201295 .38012696 .30963136 .3519694 .33725993 .31673179 .35107423 .27441407 .35107423 .23307292 .35107423 .19881185 .3374227 .17163086 .31011964 .14444988 .28282676 .13085938 .24870809 .13085938 .20776367Z"/>
<path id="font_35_26" d="M.04736328 .6225586V.70703127H.5107422V.6386719C.46516929 .5901286 .42000328 .5256246 .37524415 .4451599 .33048503 .36469523 .29589845 .2819519 .27148438 .19692993 .25390626 .13698323 .24267578 .07133993 .23779297 0H.14746094C.1484375 .056355794 .1595052 .12444051 .18066406 .20425415 .20182292 .28407798 .23217774 .3610433 .27172853 .43515016 .3112793 .50926718 .35335288 .57173666 .39794923 .6225586H.04736328Z"/>
<path id="font_35_25" d="M.4975586 .5400543 .41015626 .5332031C.40234376 .5675557 .39127604 .59251406 .37695313 .608078 .3531901 .6330312 .32389323 .6455078 .2890625 .6455078 .26106773 .6455078 .23649089 .637736 .21533203 .6221924 .18766277 .602122 .16585286 .57282 .14990235 .5342865 .13395183 .49575297 .12565105 .4408671 .125 .3696289 .14615886 .40185548 .17203777 .42578126 .20263672 .44140626 .23323567 .45703126 .26529948 .46484376 .29882813 .46484376 .35742188 .46484376 .40730796 .44327799 .44848634 .40014649 .4896647 .35701499 .5102539 .30126954 .5102539 .23291016 .5102539 .18798828 .50056967 .14624024 .48120118 .107666019 .46183268 .0690918 .43522135 .03955078 .4013672 .019042969 .36751304-.0014648438 .32910157-.01171875 .2861328-.01171875 .21289063-.01171875 .15315755 .015197754 .106933597 .06903076 .060709638 .12287394 .037597658 .2116038 .037597658 .33522035 .037597658 .47347514 .06315104 .57399496 .11425781 .6367798 .15885417 .6914266 .21891277 .71875 .2944336 .71875 .3507487 .71875 .39689128 .70292159 .43286134 .67126467 .4688314 .6396077 .49039714 .595871 .4975586 .5400543M.13867188 .23287964C.13867188 .20269776 .1451009 .17381287 .15795899 .14622498 .17081706 .118637088 .18880208 .09762064 .21191406 .08317566 .23502605 .068740848 .25927735 .061523439 .28466798 .061523439 .32177735 .061523439 .35367839 .07645162 .3803711 .10630798 .4070638 .13616435 .42041017 .17673238 .42041017 .22801209 .42041017 .27734886 .40722657 .31621299 .38085938 .3446045 .3544922 .3730062 .32128907 .38720704 .28125 .38720704 .24153646 .38720704 .20784505 .3730062 .18017578 .3446045 .15250652 .31621299 .13867188 .27897135 .13867188 .23287964Z"/>
<path id="font_35_24" d="M.041503908 .18847656 .13378906 .19628906C.140625 .15151978 .15649414 .117863979 .18139649 .095321658 .20629883 .07278951 .23632813 .061523439 .27148438 .061523439 .3138021 .061523439 .34960938 .077448528 .37890626 .109298709 .40820313 .14115906 .42285157 .18341573 .42285157 .23606873 .42285157 .28612773 .4087728 .32562257 .38061524 .35455323 .35245768 .3834839 .31559245 .39794923 .27001954 .39794923 .24169922 .39794923 .21614583 .39156596 .19335938 .37879945 .17057292 .36603294 .15266927 .34946696 .13964844 .32910157L.057128908 .33984376 .12646485 .70703127H.48242188V.62402346H.19677735L.15820313 .43115235C.20117188 .46077476 .24625652 .47558595 .29345704 .47558595 .35595704 .47558595 .4086914 .45391337 .45166017 .41056825 .4946289 .36723329 .5161133 .31151835 .5161133 .24342346 .5161133 .17857361 .49723307 .122528079 .45947267 .075286868 .41357423 .017283122 .35091148-.01171875 .27148438-.01171875 .2063802-.01171875 .15323894 .006556193 .11206055 .04310608 .070882167 .07965597 .04736328 .1281128 .041503908 .18847656Z"/>
<path id="font_36_48" d="M.07421875 0V.7158203H.21679688L.38623048 .20898438C.40185548 .16178386 .4132487 .12646485 .42041017 .103027347 .4285482 .12906902 .4412435 .1673177 .4584961 .21777344L.6298828 .7158203H.7573242V0H.6660156V.5991211L.4580078 0H.3725586L.16552735 .609375V0H.07421875Z"/>
<path id="font_36_38" d="M.5878906 .25195313 .6826172 .22802735C.66276046 .15006511 .6270345 .09061686 .57543948 .049682619 .5238444 .008748372 .46077476-.01171875 .38623048-.01171875 .30908204-.01171875 .24633789 .0039876305 .19799805 .03540039 .1496582 .06681315 .11287435 .11230469 .087646488 .171875 .06241862 .23144531 .049804689 .29541017 .049804689 .36376954 .049804689 .4383138 .06404623 .5033366 .0925293 .5588379 .12101237 .6143392 .16153972 .65649417 .21411133 .68530276 .26668296 .7141113 .32454429 .7285156 .3876953 .7285156 .4593099 .7285156 .51953127 .71028646 .5683594 .6738281 .6171875 .6373698 .6512044 .5861003 .67041018 .52001956L.57714846 .49804688C.5605469 .55030319 .5364583 .5883484 .5048828 .6121826 .47330729 .63602706 .43359376 .6479492 .3857422 .6479492 .33072917 .6479492 .28474937 .6347402 .24780274 .60832217 .21085613 .58191427 .18489583 .5464528 .16992188 .50193789 .15494792 .45743308 .14746094 .4115448 .14746094 .36427308 .14746094 .30329896 .15633138 .25006614 .17407227 .20457459 .19181316 .15908306 .21940105 .12508647 .25683595 .10258484 .29427085 .080093387 .3347982 .068847659 .37841798 .068847659 .43147788 .068847659 .47639976 .084228519 .5131836 .114990238 .54996749 .14575196 .5748698 .19140625 .5878906 .25195313Z"/>
<path id="font_37_48" d="M.07421875 0V.7158203H.21679688L.38623048 .20898438C.40185548 .16178386 .4132487 .12646485 .42041017 .103027347 .4285482 .12906902 .4412435 .1673177 .4584961 .21777344L.6298828 .7158203H.7573242V0H.6660156V.5991211L.4580078 0H.3725586L.16552735 .609375V0H.07421875Z"/>
<path id="font_37_38" d="M.5878906 .25195313 .6826172 .22802735C.66276046 .15006511 .6270345 .09061686 .57543948 .049682619 .5238444 .008748372 .46077476-.01171875 .38623048-.01171875 .30908204-.01171875 .24633789 .0039876305 .19799805 .03540039 .1496582 .06681315 .11287435 .11230469 .087646488 .171875 .06241862 .23144531 .049804689 .29541017 .049804689 .36376954 .049804689 .4383138 .06404623 .5033366 .0925293 .5588379 .12101237 .6143392 .16153972 .65649417 .21411133 .68530276 .26668296 .7141113 .32454429 .7285156 .3876953 .7285156 .4593099 .7285156 .51953127 .71028646 .5683594 .6738281 .6171875 .6373698 .6512044 .5861003 .67041018 .52001956L.57714846 .49804688C.5605469 .55030319 .5364583 .5883484 .5048828 .6121826 .47330729 .63602706 .43359376 .6479492 .3857422 .6479492 .33072917 .6479492 .28474937 .6347402 .24780274 .60832217 .21085613 .58191427 .18489583 .5464528 .16992188 .50193789 .15494792 .45743308 .14746094 .4115448 .14746094 .36427308 .14746094 .30329896 .15633138 .25006614 .17407227 .20457459 .19181316 .15908306 .21940105 .12508647 .25683595 .10258484 .29427085 .080093387 .3347982 .068847659 .37841798 .068847659 .43147788 .068847659 .47639976 .084228519 .5131836 .114990238 .54996749 .14575196 .5748698 .19140625 .5878906 .25195313Z"/>
<path id="font_37_36" d="M-.0014648438 0 .2734375 .7158203H.37548829L.66845706 0H.5605469L.47705079 .21582031H.17773438L.099121097 0H-.0014648438M.20507813 .2939453H.4477539L.37304688 .4921875C.3502604 .5524089 .33333335 .601888 .32226563 .640625 .31315104 .59472659 .30029298 .5491536 .2836914 .50390627L.20507813 .2939453Z"/>
<path id="font_37_51" d="M.07714844 0V.7158203H.34716798C.394694 .7158203 .4309896 .71354678 .4560547 .70899966 .49121095 .70314028 .5206706 .69200137 .5444336 .6755829 .5681966 .6591644 .587321 .63615927 .60180667 .6065674 .6162923 .57698568 .62353518 .5444743 .62353518 .5090332 .62353518 .44822184 .6041667 .39676414 .5654297 .35466004 .5266927 .31255595 .45670573 .2915039 .35546876 .2915039H.171875V0H.07714844M.171875 .37597657H.3569336C.4181315 .37597657 .46158854 .38734437 .4873047 .41007997 .5130208 .4328257 .5258789 .4648336 .5258789 .5061035 .5258789 .5359904 .51831057 .5615743 .5031738 .5828552 .4880371 .60413619 .46809898 .6181895 .44335938 .62501528 .42740885 .6292369 .39794923 .63134768 .35498048 .63134768H.171875V.37597657Z"/>
<path id="font_37_19" d="M.041503908 .35327149C.041503908 .43784587 .05021159 .50591537 .06762695 .55747988 .08504232 .6090444 .11092123 .6488139 .14526367 .67678835 .17960613 .70476278 .22281902 .71875 .27490235 .71875 .3133138 .71875 .34700523 .711024 .37597657 .6955719 .4049479 .6801198 .4288737 .6578369 .4477539 .62872317 .46663413 .5996094 .4814453 .56414797 .4921875 .52233889 .5029297 .48053996 .5083008 .42418418 .5083008 .35327149 .5083008 .26934815 .49967448 .2016042 .48242188 .15003968 .46516929 .098475139 .43937174 .058624269 .4050293 .03048706 .37068687 .0023498536 .3273112-.01171875 .27490235-.01171875 .20589192-.01171875 .1516927 .013005574 .11230469 .062454225 .065104167 .12198385 .041503908 .21892293 .041503908 .35327149M.13183594 .35351563C.13183594 .23639934 .14558919 .15845235 .1730957 .11967468 .20060222 .08090719 .23453777 .061523439 .27490235 .061523439 .31526695 .061523439 .34920249 .08098856 .37670899 .11991882 .40421549 .15884908 .41796876 .23671468 .41796876 .35351563 .41796876 .47095744 .40421549 .5489807 .37670899 .58758547 .34920249 .6262004 .3149414 .6455078 .27392579 .6455078 .2335612 .6455078 .20133464 .62847396 .1772461 .5944061 .14697266 .5509288 .13183594 .47063194 .13183594 .35351563Z"/>
</defs>
<g clip-path="url(#clip_1)">
<g clip-path="url(#clip_2)">
</g>
<g clip-path="url(#clip_3)">
<path transform="matrix(1,0,0,-1,-66.5824,-575.452)" d="M0 0" fill="#e30213"/>
<path transform="matrix(1,0,0,-1,-66.5824,-575.452)" stroke-width=".5" stroke-linecap="butt" stroke-miterlimit="4" stroke-linejoin="miter" fill="none" stroke="#2c292a" d="M0 0"/>
</g>
<g clip-path="url(#clip_4)">
</g>
<path transform="matrix(1,0,0,-1,-167.5427,200.47565)" stroke-width=".5" stroke-linecap="butt" stroke-miterlimit="4" stroke-linejoin="miter" fill="none" stroke="#030000" d="M369.004 62.612H578.213V572.348H369.004Z"/>
<g clip-path="url(#clip_5)">
</g>
<g clip-path="url(#clip_6)">
</g>
<g clip-path="url(#clip_7)">
</g>
<g clip-path="url(#clip_8)">
</g>
<g clip-path="url(#clip_9)">
</g>
<g clip-path="url(#clip_10)">
</g>
<g clip-path="url(#clip_11)">
</g>
<g clip-path="url(#clip_12)">
</g>
<g clip-path="url(#clip_13)">
</g>
<g clip-path="url(#clip_14)">
</g>
<g clip-path="url(#clip_15)">
</g>
<g clip-path="url(#clip_16)">
</g>
<g clip-path="url(#clip_17)">
</g>
<g clip-path="url(#clip_18)">
</g>
<g clip-path="url(#clip_19)">
</g>
<g clip-path="url(#clip_20)">
</g>
<g clip-path="url(#clip_21)">
</g>
<g clip-path="url(#clip_22)">
</g>
<g clip-path="url(#clip_23)">
</g>
<g clip-path="url(#clip_24)">
</g>
<g clip-path="url(#clip_25)">
</g>
<g clip-path="url(#clip_26)">
</g>
<g clip-path="url(#clip_27)">
</g>
<g clip-path="url(#clip_28)">
</g>
<g clip-path="url(#clip_29)">
</g>
<g clip-path="url(#clip_30)">
</g>
<g clip-path="url(#clip_31)">
</g>
<g clip-path="url(#clip_32)">
</g>
<g clip-path="url(#clip_33)">
</g>
<g clip-path="url(#clip_34)">
</g>
<path transform="matrix(.4869537,0,0,-.4869537,-107.71066,292.93403)" d="M225.3 397.25H375.55V561.65H225.3Z" fill="#ffffff" fill-rule="evenodd"/>
<path transform="matrix(.4869537,0,0,-.4869537,-107.71066,292.93403)" stroke-width="1.5" stroke-linecap="butt" stroke-miterlimit="10" stroke-linejoin="miter" fill="none" stroke="#000000" d="M225.3 397.25H375.55V561.65H225.3Z"/>
<path transform="matrix(.4869537,0,0,-.4869537,-107.71066,292.93403)" d="M348.55 561.65H362.94999V567.30007H348.55Z" fill="#ffffff" fill-rule="evenodd"/>
<path transform="matrix(.4869537,0,0,-.4869537,-107.71066,292.93403)" stroke-width="1.5" stroke-linecap="butt" stroke-miterlimit="10" stroke-linejoin="miter" fill="none" stroke="#000000" d="M348.55 561.65H362.94999V567.30007H348.55Z"/>
<path transform="matrix(.4869537,0,0,-.4869537,-107.71066,292.93403)" d="M236.55 561.85H250.95V567.5H236.55Z" fill="#ffffff" fill-rule="evenodd"/>
<path transform="matrix(.4869537,0,0,-.4869537,-107.71065,292.93403)" stroke-width="1.5" stroke-linecap="butt" stroke-miterlimit="10" stroke-linejoin="miter" fill="none" stroke="#000000" d="M236.55 561.85H250.95V567.5H236.55Z"/>
<path transform="matrix(.4869537,0,0,-.4869537,-107.71066,292.93403)" d="M311.6 561.65H326V567.30007H311.6Z" fill="#ffffff" fill-rule="evenodd"/>
<path transform="matrix(.4869537,0,0,-.4869537,-107.71066,292.93403)" stroke-width="1.5" stroke-linecap="butt" stroke-miterlimit="10" stroke-linejoin="miter" fill="none" stroke="#000000" d="M311.6 561.65H326V567.30007H311.6Z"/>
<path transform="matrix(.4869537,0,0,-.4869537,-107.71065,292.93403)" d="M349.95 391.65H364.35V397.3H349.95Z" fill="#ffffff" fill-rule="evenodd"/>
<path transform="matrix(.4869537,0,0,-.4869537,-107.71066,292.93403)" stroke-width="1.5" stroke-linecap="butt" stroke-miterlimit="10" stroke-linejoin="miter" fill="none" stroke="#000000" d="M349.95 391.65H364.35V397.3H349.95Z"/>
<path transform="matrix(.4869537,0,0,-.4869537,-107.71066,292.93403)" d="M237.95 391.6H252.34999V397.25H237.95Z" fill="#ffffff" fill-rule="evenodd"/>
<path transform="matrix(.4869537,0,0,-.4869537,-107.71065,292.93403)" stroke-width="1.5" stroke-linecap="butt" stroke-miterlimit="10" stroke-linejoin="miter" fill="none" stroke="#000000" d="M237.95 391.6H252.34999V397.25H237.95Z"/>
<path transform="matrix(.4869537,0,0,-.4869537,-107.71066,292.93403)" d="M274.25 561.85H288.65V567.5H274.25Z" fill="#ffffff" fill-rule="evenodd"/>
<path transform="matrix(.4869537,0,0,-.4869537,-107.71066,292.93403)" stroke-width="1.5" stroke-linecap="butt" stroke-miterlimit="10" stroke-linejoin="miter" fill="none" stroke="#000000" d="M274.25 561.85H288.65V567.5H274.25Z"/>
<path transform="matrix(.4869537,0,0,-.4869537,-107.71065,292.93403)" d="M312.95 391.6H327.35V397.25H312.95Z" fill="#ffffff" fill-rule="evenodd"/>
<path transform="matrix(.4869537,0,0,-.4869537,-107.71066,292.93403)" stroke-width="1.5" stroke-linecap="butt" stroke-miterlimit="10" stroke-linejoin="miter" fill="none" stroke="#000000" d="M312.95 391.6H327.35V397.25H312.95Z"/>
<path transform="matrix(.4869537,0,0,-.4869537,-107.71066,292.93403)" d="M275.85 391.6H290.25V397.25H275.85Z" fill="#ffffff" fill-rule="evenodd"/>
<path transform="matrix(.4869537,0,0,-.4869537,-107.71066,292.93403)" stroke-width="1.5" stroke-linecap="butt" stroke-miterlimit="10" stroke-linejoin="miter" fill="none" stroke="#000000" d="M275.85 391.6H290.25V397.25H275.85Z"/>
<path transform="matrix(.4869537,0,0,-.4869537,-107.71066,292.93403)" d="M235.8 365.6H376.05V385.5H235.8Z" fill="#ffffff" fill-rule="evenodd"/>
<path transform="matrix(.4869537,0,0,-.4869537,-107.71066,292.934)" stroke-width=".75" stroke-linecap="butt" stroke-miterlimit="10" stroke-linejoin="miter" fill="none" stroke="#ffffff" d="M235.8 365.6H376.05V385.5H235.8Z"/>
<use data-text="1" xlink:href="#font_35_20" transform="matrix(5.844,0,0,-5.844,10.817505,112.58285)"/>
<use data-text=" " xlink:href="#font_35_3" transform="matrix(5.844,0,0,-5.844,14.090103,112.58285)"/>
<use data-text=" " xlink:href="#font_35_3" transform="matrix(5.844,0,0,-5.844,25.474259,112.58285)"/>
<use data-text=" " xlink:href="#font_35_3" transform="matrix(5.844,0,0,-5.844,27.098893,112.58285)"/>
<use data-text="2" xlink:href="#font_35_21" transform="matrix(5.844,0,0,-5.844,28.709839,112.58285)"/>
<use data-text=" " xlink:href="#font_35_3" transform="matrix(5.844,0,0,-5.844,31.982438,112.58285)"/>
<use data-text=" " xlink:href="#font_35_3" transform="matrix(5.844,0,0,-5.844,33.60707,112.58285)"/>
<use data-text=" " xlink:href="#font_35_3" transform="matrix(5.844,0,0,-5.844,44.95047,112.58285)"/>
<use data-text="3" xlink:href="#font_35_22" transform="matrix(5.844,0,0,-5.844,46.59253,112.58285)"/>
<use data-text=" " xlink:href="#font_35_3" transform="matrix(5.844,0,0,-5.844,49.86522,112.58285)"/>
<use data-text=" " xlink:href="#font_35_3" transform="matrix(5.844,0,0,-5.844,51.489854,112.58285)"/>
<use data-text=" " xlink:href="#font_35_3" transform="matrix(5.844,0,0,-5.844,62.8331,112.58285)"/>
<use data-text="4" xlink:href="#font_35_23" transform="matrix(5.844,0,0,-5.844,64.475269,112.58285)"/>
<use data-text=" " xlink:href="#font_35_3" transform="matrix(5.844,0,0,-5.844,67.68942,112.58285)"/>
<path transform="matrix(.4869537,0,0,-.4869537,8.402237,90.39743)" d="M0 0C0 3.9 3.19 7.07 7.12 7.07 11.06 7.07 14.25 3.9 14.25 0 14.25-3.91 11.06-7.08 7.12-7.08 3.19-7.08 0-3.91 0 0Z" fill-rule="evenodd"/>
<path transform="matrix(.4869537,0,0,-.4869537,8.402252,90.39743)" stroke-width=".75" stroke-linecap="butt" stroke-linejoin="round" fill="none" stroke="#000000" d="M0 0C0 3.9 3.19 7.07 7.12 7.07 11.06 7.07 14.25 3.9 14.25 0 14.25-3.91 11.06-7.08 7.12-7.08 3.19-7.08 0-3.91 0 0Z"/>
<path transform="matrix(.4869537,0,0,-.4869537,-107.71066,292.93403)" d="M233.75 573.45H374V593.35006H233.75Z" fill="#ffffff" fill-rule="evenodd"/>
<path transform="matrix(.4869537,0,0,-.4869537,-107.71065,292.93403)" stroke-width=".75" stroke-linecap="butt" stroke-miterlimit="8" stroke-linejoin="miter" fill="none" stroke="#ffffff" d="M233.75 573.45H374V593.35006H233.75Z"/>
<use data-text="8" xlink:href="#font_35_27" transform="matrix(5.844,0,0,-5.844,9.824112,11.307251)"/>
<use data-text=" " xlink:href="#font_35_3" transform="matrix(5.844,0,0,-5.844,13.090866,11.307251)"/>
<use data-text=" " xlink:href="#font_35_3" transform="matrix(5.844,0,0,-5.844,14.7155,11.307251)"/>
<use data-text=" " xlink:href="#font_35_3" transform="matrix(5.844,0,0,-5.844,24.469193,11.307251)"/>
<use data-text=" " xlink:href="#font_35_3" transform="matrix(5.844,0,0,-5.844,26.093827,11.307251)"/>
<use data-text="7" xlink:href="#font_35_26" transform="matrix(5.844,0,0,-5.844,27.683396,11.307251)"/>
<use data-text=" " xlink:href="#font_35_3" transform="matrix(5.844,0,0,-5.844,30.950242,11.307251)"/>
<use data-text=" " xlink:href="#font_35_3" transform="matrix(5.844,0,0,-5.844,32.574876,11.307251)"/>
<use data-text=" " xlink:href="#font_35_3" transform="matrix(5.844,0,0,-5.844,43.906435,11.307251)"/>
<use data-text="6" xlink:href="#font_35_25" transform="matrix(5.844,0,0,-5.844,45.531068,11.307251)"/>
<use data-text=" " xlink:href="#font_35_3" transform="matrix(5.844,0,0,-5.844,48.809556,11.307251)"/>
<use data-text=" " xlink:href="#font_35_3" transform="matrix(5.844,0,0,-5.844,50.43419,11.307251)"/>
<use data-text=" " xlink:href="#font_35_3" transform="matrix(5.844,0,0,-5.844,61.771547,11.307251)"/>
<use data-text="5" xlink:href="#font_35_24" transform="matrix(5.844,0,0,-5.844,63.39618,11.307251)"/>
<use data-text=" " xlink:href="#font_35_3" transform="matrix(5.844,0,0,-5.844,66.69609,11.307251)"/>
<use data-text="M" xlink:href="#font_36_48" transform="matrix(10,0,0,-10,27.606308,52.94664)"/>
<use data-text="C" xlink:href="#font_36_38" transform="matrix(10,0,0,-10,35.93631,52.94664)"/>
<use data-text="C" xlink:href="#font_36_38" transform="matrix(10,0,0,-10,43.15631,52.94664)"/>
<use data-text=" " xlink:href="#font_35_3" transform="matrix(10,0,0,-10,50.376314,52.94664)"/>
<use data-text="M" xlink:href="#font_37_48" transform="matrix(10,0,0,-10,9.813309,64.94664)"/>
<use data-text="C" xlink:href="#font_37_38" transform="matrix(10,0,0,-10,18.14331,64.94664)"/>
<use data-text="A" xlink:href="#font_37_36" transform="matrix(10,0,0,-10,25.363312,64.94664)"/>
<use data-text="C" xlink:href="#font_37_38" transform="matrix(10,0,0,-10,32.03331,64.94664)"/>
<use data-text="5" xlink:href="#font_35_24" transform="matrix(10,0,0,-10,39.25331,64.94664)"/>
<use data-text="5" xlink:href="#font_35_24" transform="matrix(10,0,0,-10,44.81331,64.94664)"/>
<use data-text="P" xlink:href="#font_37_51" transform="matrix(10,0,0,-10,50.373308,64.94664)"/>
<use data-text="0" xlink:href="#font_37_19" transform="matrix(10,0,0,-10,57.043306,64.94664)"/>
<use data-text="3" xlink:href="#font_35_22" transform="matrix(10,0,0,-10,62.603303,64.94664)"/>
<path transform="matrix(1,0,0,-1,209.71829,-171.61133)" stroke-width=".207" stroke-linecap="square" stroke-linejoin="round" fill="none" stroke="#231f20" d="M0 0V-175.21"/>
<path transform="matrix(1,0,0,-1,-155.5427,215.59368)" d="M365.154 211.895H365.361V387.313H365.154Z" fill="#231f20"/>
<path transform="matrix(1,0,0,-1,400.6473,-171.40433)" stroke-width=".207" stroke-linecap="square" stroke-linejoin="round" fill="none" stroke="#231f20" d="M0 0V-175.003"/>
<path transform="matrix(1,0,0,-1,-155.5427,215.59368)" d="M556.091 211.895H556.297V387.10603H556.091Z" fill="#231f20"/>
<path transform="matrix(1,0,0,-1,237.40232,-160.45633)" stroke-width=".207" stroke-linecap="square" stroke-linejoin="round" fill="none" stroke="#231f20" d="M0 0V-164.055"/>
<path transform="matrix(1,0,0,-1,-155.5427,215.59368)" d="M392.846 211.895H393.053V376.15803H392.846Z" fill="#231f20"/>
<path transform="matrix(1,0,0,-1,292.7913,-160.45633)" stroke-width=".207" stroke-linecap="square" stroke-linejoin="round" fill="none" stroke="#231f20" d="M0 0V-164.055"/>
<path transform="matrix(1,0,0,-1,-155.5427,215.59368)" d="M448.226 211.895H448.433V376.15803H448.226Z" fill="#231f20"/>
<path transform="matrix(1,0,0,-1,348.1583,-160.45633)" stroke-width=".207" stroke-linecap="square" stroke-linejoin="round" fill="none" stroke="#231f20" d="M0 0V-164.055"/>
<path transform="matrix(1,0,0,-1,-155.5427,215.59368)" d="M503.594 211.895H503.8V376.15803H503.594Z" fill="#231f20"/>
<path transform="matrix(1,0,0,-1,265.0863,-116.66031)" stroke-width=".207" stroke-linecap="square" stroke-linejoin="round" fill="none" stroke="#231f20" d="M0 0V-120.259"/>
<path transform="matrix(1,0,0,-1,-155.5427,215.59368)" d="M420.529 211.895H420.736V332.36103H420.529Z" fill="#231f20"/>
<path transform="matrix(1,0,0,-1,320.4753,-116.66031)" stroke-width=".207" stroke-linecap="square" stroke-linejoin="round" fill="none" stroke="#231f20" d="M0 0V-120.259"/>
<path transform="matrix(1,0,0,-1,-155.5427,215.59368)" d="M475.91 211.895H476.117V332.36103H475.91Z" fill="#231f20"/>
</g>
</svg>
