<svg width="600" height="600" viewBox="0 0 600 600" fill="none" xmlns="http://www.w3.org/2000/svg">
<circle cx="300" cy="300" r="200" fill="url(#paint0_linear_90_20)" stroke="black" stroke-width="22" stroke-linejoin="round"/>
<mask id="path-2-inside-1_90_20" fill="white">
<path d="M502.268 73.8129C456.689 125.491 389.124 185.725 326.292 213.936C263.45 242.223 180.888 238.077 132.833 188.668C159.347 130.907 216.532 89.8074 279.257 79.4254C353.01 67.2196 431.422 97.566 502.165 73.417"/>
</mask>
<path d="M502.268 73.8129C456.689 125.491 389.124 185.725 326.292 213.936C263.45 242.223 180.888 238.077 132.833 188.668C159.347 130.907 216.532 89.8074 279.257 79.4254C353.01 67.2196 431.422 97.566 502.165 73.417" fill="#329F00"/>
<path d="M326.292 213.936L325.982 213.246L325.981 213.246L326.292 213.936ZM132.833 188.668L132.146 188.352L131.929 188.823L132.291 189.195L132.833 188.668ZM279.257 79.4254L279.134 78.6787L279.134 78.6787L279.257 79.4254ZM501.7 73.3123C456.152 124.955 388.672 185.099 325.982 213.246L326.602 214.627C389.577 186.352 457.226 126.026 502.836 74.3135L501.7 73.3123ZM325.981 213.246C263.332 241.446 181.142 237.253 133.376 188.14L132.291 189.195C180.633 238.901 263.568 243 326.603 214.626L325.981 213.246ZM133.521 188.983C159.923 131.468 216.885 90.5162 279.381 80.1721L279.134 78.6787C216.179 89.0987 158.772 130.346 132.146 188.352L133.521 188.983ZM279.381 80.1721C316.142 74.0883 354.066 78.6081 391.779 81.6543C429.444 84.6965 466.875 86.2635 502.409 74.1333L501.92 72.7007C466.712 84.7194 429.566 83.1877 391.901 80.1455C354.284 77.1071 316.126 72.5567 279.134 78.6787L279.381 80.1721Z" fill="black" mask="url(#path-2-inside-1_90_20)"/>
<path d="M496.751 69.5939C458.439 112.847 414.881 152.757 366.199 184.133C343.282 198.852 318.661 211.901 292.089 218.577C266.789 224.878 240.401 226.448 214.596 222.194C186.087 217.522 158.708 205.106 138.267 184.453C138.584 186.79 138.911 189.052 139.153 191.38C160.167 146.249 200.108 111.932 246.652 95.0655C300.333 75.6541 356.662 86.2123 412.03 89.2212C443.36 90.9563 474.76 89.7137 504.815 79.7246C513.29 76.8893 507.774 64.1703 499.374 67.0152C442.697 85.8951 382.276 70.149 324.304 69.5681C270.77 69.0116 219.178 84.0154 177.86 118.925C156.088 137.311 138.429 160.122 126.353 186.012C125.409 188.036 125.612 191.278 127.24 192.939C166.684 232.915 225.593 244.871 279.714 235.317C337.906 225.052 388.97 188.769 433.07 151.225C459.578 128.689 484.505 104.115 507.634 78.0131C513.683 71.3488 502.649 62.9107 496.751 69.5939Z" fill="black"/>
<path d="M132.106 182.297C112.203 183.459 92.6441 180.071 74.2308 172.462C66.0085 169.05 60.6401 181.85 68.9378 185.271C89.6869 193.787 111.677 197.33 134.125 196.029C142.993 195.54 140.974 181.808 132.106 182.297Z" fill="black"/>
<path d="M491.195 74.7883C402.242 109.733 311.354 139.379 218.685 162.52C191.725 169.225 164.673 175.458 137.526 181.219C128.873 183.037 130.731 196.825 139.469 194.942C233.662 174.902 326.495 149.254 417.385 117.158C443.99 107.806 470.359 97.8874 496.55 87.5636C504.922 84.3324 499.491 71.5476 491.195 74.7883Z" fill="black"/>
<path d="M354.362 140.214C371.45 152.25 390.777 159.898 411.505 162.515C420.324 163.629 422.056 149.91 413.237 148.797C394.921 146.484 377.836 139.886 362.79 129.256C355.475 124.121 347.046 135.079 354.362 140.214Z" fill="black"/>
<path d="M361.586 74.5046C347.024 92.193 335.126 111.826 326.195 132.829C322.707 141.042 335.517 146.335 339.004 138.122C347.5 118.136 358.794 99.6521 372.629 82.8675C378.311 76.0803 367.277 67.6421 361.586 74.5046Z" fill="black"/>
<path d="M242.848 168.252C263.833 191.883 290.715 209.444 321.037 218.557C329.525 221.083 334.884 208.359 326.33 205.747C298.297 197.307 273.241 181.661 253.724 159.747C247.89 153.19 236.948 161.61 242.848 168.252Z" fill="black"/>
<path d="M267.528 77.1018C241.673 98.112 225.153 128.878 222.181 162.119C221.369 170.976 235.153 172.793 235.899 163.852C238.575 134.171 252.894 106.88 276.024 88.0528C282.929 82.4922 274.518 71.4753 267.528 77.1018Z" fill="black"/>
<circle cx="299.5" cy="468.5" r="64.5" fill="#329F00" stroke="black" stroke-width="9.55556"/>
<path d="M266.056 475.416C276.386 485.736 285.91 495.251 285.91 495.251C285.91 495.251 313.457 467.657 332.945 448.115" stroke="white" stroke-width="14.3333" stroke-linecap="round" stroke-linejoin="round"/>
<path d="M153.837 307V254.636H168.053V275.091H186.871V254.636H201.087V307H186.871V286.545H168.053V307H153.837ZM218.985 307.614C216.479 307.614 214.263 307.205 212.337 306.386C210.428 305.551 208.928 304.29 207.837 302.602C206.746 300.915 206.201 298.767 206.201 296.159C206.201 294.011 206.567 292.179 207.3 290.662C208.033 289.128 209.056 287.875 210.368 286.903C211.681 285.932 213.206 285.19 214.945 284.679C216.701 284.168 218.593 283.835 220.621 283.682C222.82 283.511 224.584 283.307 225.914 283.068C227.26 282.812 228.232 282.463 228.829 282.02C229.425 281.56 229.723 280.955 229.723 280.205V280.102C229.723 279.08 229.331 278.295 228.547 277.75C227.763 277.205 226.757 276.932 225.53 276.932C224.184 276.932 223.084 277.23 222.232 277.827C221.397 278.406 220.894 279.301 220.723 280.511H207.735C207.905 278.125 208.664 275.926 210.01 273.915C211.374 271.886 213.36 270.267 215.968 269.057C218.576 267.83 221.831 267.216 225.735 267.216C228.547 267.216 231.07 267.548 233.303 268.213C235.536 268.861 237.436 269.773 239.005 270.949C240.573 272.108 241.766 273.472 242.584 275.04C243.419 276.591 243.837 278.278 243.837 280.102V307H230.644V301.477H230.337C229.553 302.943 228.598 304.128 227.473 305.031C226.365 305.935 225.096 306.591 223.664 307C222.249 307.409 220.689 307.614 218.985 307.614ZM223.587 298.716C224.661 298.716 225.667 298.494 226.604 298.051C227.559 297.608 228.334 296.969 228.931 296.134C229.527 295.298 229.826 294.284 229.826 293.091V289.818C229.451 289.972 229.05 290.116 228.624 290.253C228.215 290.389 227.772 290.517 227.294 290.636C226.834 290.756 226.34 290.866 225.811 290.969C225.3 291.071 224.763 291.165 224.201 291.25C223.11 291.42 222.215 291.702 221.516 292.094C220.834 292.469 220.323 292.938 219.982 293.5C219.658 294.045 219.496 294.659 219.496 295.341C219.496 296.432 219.88 297.267 220.647 297.847C221.414 298.426 222.394 298.716 223.587 298.716ZM264.694 254.636V307H250.581V254.636H264.694ZM290.806 307.716C286.544 307.716 282.897 306.872 279.863 305.185C276.829 303.48 274.502 301.111 272.882 298.077C271.263 295.026 270.454 291.489 270.454 287.466C270.454 283.443 271.263 279.915 272.882 276.881C274.502 273.83 276.829 271.46 279.863 269.773C282.897 268.068 286.544 267.216 290.806 267.216C295.067 267.216 298.715 268.068 301.749 269.773C304.783 271.46 307.11 273.83 308.729 276.881C310.348 279.915 311.158 283.443 311.158 287.466C311.158 291.489 310.348 295.026 308.729 298.077C307.11 301.111 304.783 303.48 301.749 305.185C298.715 306.872 295.067 307.716 290.806 307.716ZM290.908 297.284C292.101 297.284 293.132 296.884 294.002 296.082C294.871 295.281 295.544 294.139 296.022 292.656C296.499 291.173 296.738 289.409 296.738 287.364C296.738 285.301 296.499 283.537 296.022 282.071C295.544 280.588 294.871 279.446 294.002 278.645C293.132 277.844 292.101 277.443 290.908 277.443C289.647 277.443 288.564 277.844 287.661 278.645C286.757 279.446 286.067 280.588 285.59 282.071C285.113 283.537 284.874 285.301 284.874 287.364C284.874 289.409 285.113 291.173 285.59 292.656C286.067 294.139 286.757 295.281 287.661 296.082C288.564 296.884 289.647 297.284 290.908 297.284ZM335.806 322.545C331.868 322.545 328.493 321.983 325.681 320.858C322.885 319.75 320.712 318.216 319.161 316.256C317.627 314.313 316.766 312.08 316.579 309.557H330.181C330.317 310.392 330.658 311.065 331.204 311.577C331.749 312.088 332.448 312.455 333.3 312.676C334.169 312.915 335.141 313.034 336.215 313.034C338.039 313.034 339.547 312.591 340.74 311.705C341.951 310.818 342.556 309.216 342.556 306.898V300.25H342.147C341.635 301.58 340.851 302.713 339.794 303.651C338.738 304.571 337.468 305.278 335.985 305.773C334.502 306.25 332.874 306.489 331.101 306.489C328.306 306.489 325.732 305.841 323.38 304.545C321.044 303.25 319.169 301.196 317.755 298.384C316.357 295.571 315.658 291.898 315.658 287.364C315.658 282.625 316.391 278.773 317.857 275.807C319.34 272.841 321.249 270.668 323.584 269.287C325.936 267.906 328.408 267.216 330.999 267.216C332.942 267.216 334.647 267.557 336.113 268.239C337.579 268.903 338.806 269.798 339.794 270.923C340.783 272.031 341.533 273.25 342.044 274.58H342.351V267.727H356.465V306.898C356.465 310.222 355.604 313.043 353.882 315.361C352.178 317.696 349.775 319.477 346.672 320.705C343.57 321.932 339.948 322.545 335.806 322.545ZM336.317 296.466C337.613 296.466 338.721 296.108 339.641 295.392C340.579 294.659 341.294 293.619 341.789 292.273C342.3 290.909 342.556 289.273 342.556 287.364C342.556 285.42 342.3 283.759 341.789 282.378C341.294 280.98 340.579 279.915 339.641 279.182C338.721 278.432 337.613 278.057 336.317 278.057C335.022 278.057 333.914 278.432 332.993 279.182C332.09 279.915 331.391 280.98 330.897 282.378C330.419 283.759 330.181 285.42 330.181 287.364C330.181 289.307 330.419 290.96 330.897 292.324C331.391 293.67 332.09 294.702 332.993 295.418C333.914 296.116 335.022 296.466 336.317 296.466ZM382.461 307.716C378.268 307.716 374.655 306.915 371.62 305.312C368.603 303.693 366.277 301.375 364.64 298.358C363.021 295.324 362.211 291.693 362.211 287.466C362.211 283.409 363.03 279.864 364.666 276.83C366.302 273.795 368.612 271.435 371.595 269.747C374.578 268.06 378.098 267.216 382.155 267.216C385.12 267.216 387.805 267.676 390.208 268.597C392.612 269.517 394.666 270.855 396.37 272.611C398.075 274.349 399.387 276.463 400.308 278.952C401.228 281.44 401.689 284.244 401.689 287.364V290.636H366.609V282.864H388.7C388.683 281.739 388.393 280.75 387.831 279.898C387.285 279.028 386.544 278.355 385.606 277.878C384.686 277.384 383.637 277.136 382.461 277.136C381.319 277.136 380.271 277.384 379.316 277.878C378.362 278.355 377.595 279.02 377.015 279.872C376.453 280.724 376.155 281.722 376.12 282.864V291.25C376.12 292.511 376.385 293.636 376.913 294.625C377.441 295.614 378.2 296.389 379.189 296.952C380.177 297.514 381.37 297.795 382.768 297.795C383.74 297.795 384.626 297.659 385.427 297.386C386.245 297.114 386.944 296.722 387.524 296.21C388.103 295.682 388.53 295.051 388.802 294.318H401.689C401.245 297.045 400.197 299.415 398.544 301.426C396.89 303.42 394.7 304.972 391.973 306.08C389.262 307.17 386.092 307.716 382.461 307.716ZM421.561 284.909V307H407.448V267.727H420.846V275.193H421.255C422.107 272.705 423.607 270.753 425.755 269.338C427.919 267.923 430.442 267.216 433.323 267.216C436.101 267.216 438.513 267.855 440.559 269.134C442.621 270.395 444.215 272.134 445.34 274.349C446.482 276.565 447.044 279.097 447.027 281.943V307H432.914V284.909C432.931 282.966 432.436 281.44 431.431 280.332C430.442 279.224 429.061 278.67 427.289 278.67C426.13 278.67 425.115 278.926 424.246 279.438C423.394 279.932 422.738 280.648 422.277 281.585C421.817 282.506 421.579 283.614 421.561 284.909Z" fill="black"/>
<path d="M224.923 383V330.636H261.741V342.091H239.139V351.091H259.491V362.545H239.139V383H224.923ZM266.331 383V343.727H280.035V351.193H280.444C281.16 348.432 282.294 346.412 283.845 345.134C285.413 343.855 287.245 343.216 289.342 343.216C289.956 343.216 290.561 343.267 291.157 343.369C291.771 343.455 292.359 343.582 292.922 343.753V355.795C292.223 355.557 291.362 355.378 290.339 355.259C289.316 355.139 288.439 355.08 287.706 355.08C286.325 355.08 285.081 355.395 283.973 356.026C282.882 356.639 282.021 357.509 281.39 358.634C280.76 359.741 280.444 361.045 280.444 362.545V383H266.331ZM314.118 383.716C309.924 383.716 306.311 382.915 303.277 381.312C300.26 379.693 297.933 377.375 296.297 374.358C294.677 371.324 293.868 367.693 293.868 363.466C293.868 359.409 294.686 355.864 296.322 352.83C297.958 349.795 300.268 347.435 303.251 345.747C306.234 344.06 309.754 343.216 313.811 343.216C316.777 343.216 319.461 343.676 321.865 344.597C324.268 345.517 326.322 346.855 328.027 348.611C329.731 350.349 331.044 352.463 331.964 354.952C332.885 357.44 333.345 360.244 333.345 363.364V366.636H298.265V358.864H320.356C320.339 357.739 320.049 356.75 319.487 355.898C318.941 355.028 318.2 354.355 317.262 353.878C316.342 353.384 315.294 353.136 314.118 353.136C312.976 353.136 311.927 353.384 310.973 353.878C310.018 354.355 309.251 355.02 308.672 355.872C308.109 356.724 307.811 357.722 307.777 358.864V367.25C307.777 368.511 308.041 369.636 308.569 370.625C309.098 371.614 309.856 372.389 310.845 372.952C311.833 373.514 313.027 373.795 314.424 373.795C315.396 373.795 316.282 373.659 317.083 373.386C317.902 373.114 318.601 372.722 319.18 372.21C319.76 371.682 320.186 371.051 320.458 370.318H333.345C332.902 373.045 331.853 375.415 330.2 377.426C328.547 379.42 326.356 380.972 323.629 382.08C320.919 383.17 317.748 383.716 314.118 383.716ZM357.922 383.716C353.729 383.716 350.115 382.915 347.081 381.312C344.064 379.693 341.738 377.375 340.101 374.358C338.482 371.324 337.672 367.693 337.672 363.466C337.672 359.409 338.49 355.864 340.127 352.83C341.763 349.795 344.073 347.435 347.056 345.747C350.039 344.06 353.559 343.216 357.615 343.216C360.581 343.216 363.266 343.676 365.669 344.597C368.073 345.517 370.127 346.855 371.831 348.611C373.536 350.349 374.848 352.463 375.769 354.952C376.689 357.44 377.15 360.244 377.15 363.364V366.636H342.07V358.864H364.161C364.144 357.739 363.854 356.75 363.292 355.898C362.746 355.028 362.005 354.355 361.067 353.878C360.147 353.384 359.098 353.136 357.922 353.136C356.78 353.136 355.732 353.384 354.777 353.878C353.823 354.355 353.056 355.02 352.476 355.872C351.914 356.724 351.615 357.722 351.581 358.864V367.25C351.581 368.511 351.846 369.636 352.374 370.625C352.902 371.614 353.661 372.389 354.65 372.952C355.638 373.514 356.831 373.795 358.229 373.795C359.201 373.795 360.087 373.659 360.888 373.386C361.706 373.114 362.405 372.722 362.985 372.21C363.564 371.682 363.99 371.051 364.263 370.318H377.15C376.706 373.045 375.658 375.415 374.005 377.426C372.351 379.42 370.161 380.972 367.434 382.08C364.723 383.17 361.553 383.716 357.922 383.716Z" fill="#329F00"/>
<defs>
<linearGradient id="paint0_linear_90_20" x1="300" y1="100" x2="300" y2="500" gradientUnits="userSpaceOnUse">
<stop offset="0.161458" stop-color="white"/>
<stop offset="0.734375" stop-color="#D9D9D9"/>
</linearGradient>
</defs>
</svg>
