<svg width="600" height="600" viewBox="0 0 600 600" fill="none" xmlns="http://www.w3.org/2000/svg">
<circle cx="300" cy="300" r="200" fill="url(#paint0_linear_90_36)" stroke="black" stroke-width="22" stroke-linejoin="round"/>
<mask id="path-2-inside-1_90_36" fill="white">
<path d="M502.268 73.8129C456.689 125.491 389.124 185.725 326.292 213.936C263.45 242.223 180.888 238.077 132.833 188.668C159.347 130.907 216.532 89.8074 279.257 79.4254C353.01 67.2196 431.422 97.566 502.165 73.417"/>
</mask>
<path d="M502.268 73.8129C456.689 125.491 389.124 185.725 326.292 213.936C263.45 242.223 180.888 238.077 132.833 188.668C159.347 130.907 216.532 89.8074 279.257 79.4254C353.01 67.2196 431.422 97.566 502.165 73.417" fill="#329F00"/>
<path d="M326.292 213.936L325.982 213.246L325.981 213.246L326.292 213.936ZM132.833 188.668L132.146 188.352L131.929 188.823L132.291 189.195L132.833 188.668ZM279.257 79.4254L279.134 78.6787L279.134 78.6787L279.257 79.4254ZM501.7 73.3123C456.152 124.955 388.672 185.099 325.982 213.246L326.602 214.627C389.577 186.352 457.226 126.026 502.836 74.3135L501.7 73.3123ZM325.981 213.246C263.332 241.446 181.142 237.253 133.376 188.14L132.291 189.195C180.633 238.901 263.568 243 326.603 214.626L325.981 213.246ZM133.521 188.983C159.923 131.468 216.885 90.5162 279.381 80.1721L279.134 78.6787C216.179 89.0987 158.772 130.346 132.146 188.352L133.521 188.983ZM279.381 80.1721C316.142 74.0883 354.066 78.6081 391.779 81.6543C429.444 84.6965 466.875 86.2635 502.409 74.1333L501.92 72.7007C466.712 84.7194 429.566 83.1877 391.901 80.1455C354.284 77.1071 316.126 72.5567 279.134 78.6787L279.381 80.1721Z" fill="black" mask="url(#path-2-inside-1_90_36)"/>
<path d="M496.751 69.5939C458.439 112.847 414.881 152.757 366.199 184.133C343.282 198.852 318.661 211.901 292.089 218.577C266.789 224.878 240.401 226.448 214.596 222.194C186.087 217.522 158.708 205.106 138.267 184.453C138.584 186.79 138.911 189.052 139.153 191.38C160.167 146.249 200.108 111.932 246.652 95.0655C300.333 75.6541 356.662 86.2123 412.03 89.2212C443.36 90.9563 474.76 89.7137 504.815 79.7246C513.29 76.8893 507.774 64.1703 499.374 67.0152C442.697 85.8951 382.276 70.149 324.304 69.5681C270.77 69.0116 219.178 84.0154 177.86 118.925C156.088 137.311 138.429 160.122 126.353 186.012C125.409 188.036 125.612 191.278 127.24 192.939C166.684 232.915 225.593 244.871 279.714 235.317C337.906 225.052 388.97 188.769 433.07 151.225C459.578 128.689 484.505 104.115 507.634 78.0131C513.683 71.3488 502.649 62.9107 496.751 69.5939Z" fill="black"/>
<path d="M132.106 182.297C112.203 183.459 92.6441 180.071 74.2308 172.462C66.0085 169.05 60.6401 181.85 68.9378 185.271C89.6869 193.787 111.677 197.33 134.125 196.029C142.993 195.54 140.974 181.808 132.106 182.297Z" fill="black"/>
<path d="M491.195 74.7883C402.242 109.733 311.354 139.379 218.685 162.52C191.725 169.225 164.673 175.458 137.526 181.219C128.873 183.037 130.731 196.825 139.469 194.942C233.662 174.902 326.495 149.254 417.385 117.158C443.99 107.806 470.359 97.8874 496.55 87.5636C504.922 84.3324 499.491 71.5476 491.195 74.7883Z" fill="black"/>
<path d="M354.362 140.214C371.45 152.25 390.777 159.898 411.505 162.515C420.324 163.629 422.056 149.91 413.237 148.797C394.921 146.484 377.836 139.886 362.79 129.256C355.475 124.121 347.046 135.079 354.362 140.214Z" fill="black"/>
<path d="M361.586 74.5046C347.024 92.193 335.126 111.826 326.195 132.829C322.707 141.042 335.517 146.335 339.004 138.122C347.5 118.136 358.794 99.6521 372.629 82.8675C378.311 76.0803 367.277 67.6421 361.586 74.5046Z" fill="black"/>
<path d="M242.848 168.252C263.833 191.883 290.715 209.444 321.037 218.557C329.525 221.083 334.884 208.359 326.33 205.747C298.297 197.307 273.241 181.661 253.724 159.747C247.89 153.19 236.948 161.61 242.848 168.252Z" fill="black"/>
<path d="M267.528 77.1018C241.673 98.112 225.153 128.878 222.181 162.119C221.369 170.976 235.153 172.793 235.899 163.852C238.575 134.171 252.894 106.88 276.024 88.0528C282.929 82.4922 274.518 71.4753 267.528 77.1018Z" fill="black"/>
<circle cx="299.5" cy="468.5" r="64.5" fill="#329F00" stroke="black" stroke-width="9.55556"/>
<path d="M266.056 475.416C276.386 485.736 285.91 495.251 285.91 495.251C285.91 495.251 313.457 467.657 332.945 448.115" stroke="white" stroke-width="14.3333" stroke-linecap="round" stroke-linejoin="round"/>
<path d="M216.872 307V254.636H231.088V295.545H252.259V307H216.872ZM277.028 307.716C272.835 307.716 269.221 306.915 266.187 305.312C263.17 303.693 260.843 301.375 259.207 298.358C257.587 295.324 256.778 291.693 256.778 287.466C256.778 283.409 257.596 279.864 259.232 276.83C260.869 273.795 263.178 271.435 266.161 269.747C269.144 268.06 272.664 267.216 276.721 267.216C279.687 267.216 282.371 267.676 284.775 268.597C287.178 269.517 289.232 270.855 290.937 272.611C292.641 274.349 293.954 276.463 294.874 278.952C295.795 281.44 296.255 284.244 296.255 287.364V290.636H261.175V282.864H283.266C283.249 281.739 282.96 280.75 282.397 279.898C281.852 279.028 281.11 278.355 280.173 277.878C279.252 277.384 278.204 277.136 277.028 277.136C275.886 277.136 274.837 277.384 273.883 277.878C272.928 278.355 272.161 279.02 271.582 279.872C271.019 280.724 270.721 281.722 270.687 282.864V291.25C270.687 292.511 270.951 293.636 271.479 294.625C272.008 295.614 272.766 296.389 273.755 296.952C274.744 297.514 275.937 297.795 277.335 297.795C278.306 297.795 279.193 297.659 279.994 297.386C280.812 297.114 281.511 296.722 282.09 296.21C282.67 295.682 283.096 295.051 283.369 294.318H296.255C295.812 297.045 294.764 299.415 293.11 301.426C291.457 303.42 289.266 304.972 286.539 306.08C283.829 307.17 280.658 307.716 277.028 307.716ZM312.957 307.614C310.452 307.614 308.236 307.205 306.31 306.386C304.401 305.551 302.901 304.29 301.81 302.602C300.719 300.915 300.173 298.767 300.173 296.159C300.173 294.011 300.54 292.179 301.273 290.662C302.006 289.128 303.028 287.875 304.341 286.903C305.653 285.932 307.179 285.19 308.918 284.679C310.673 284.168 312.565 283.835 314.594 283.682C316.793 283.511 318.557 283.307 319.886 283.068C321.233 282.812 322.205 282.463 322.801 282.02C323.398 281.56 323.696 280.955 323.696 280.205V280.102C323.696 279.08 323.304 278.295 322.52 277.75C321.736 277.205 320.73 276.932 319.503 276.932C318.156 276.932 317.057 277.23 316.205 277.827C315.369 278.406 314.867 279.301 314.696 280.511H301.707C301.878 278.125 302.636 275.926 303.983 273.915C305.347 271.886 307.332 270.267 309.94 269.057C312.548 267.83 315.804 267.216 319.707 267.216C322.52 267.216 325.043 267.548 327.276 268.213C329.509 268.861 331.409 269.773 332.977 270.949C334.545 272.108 335.739 273.472 336.557 275.04C337.392 276.591 337.81 278.278 337.81 280.102V307H324.617V301.477H324.31C323.526 302.943 322.571 304.128 321.446 305.031C320.338 305.935 319.068 306.591 317.636 307C316.222 307.409 314.662 307.614 312.957 307.614ZM317.56 298.716C318.634 298.716 319.639 298.494 320.577 298.051C321.531 297.608 322.307 296.969 322.903 296.134C323.5 295.298 323.798 294.284 323.798 293.091V289.818C323.423 289.972 323.023 290.116 322.597 290.253C322.188 290.389 321.744 290.517 321.267 290.636C320.807 290.756 320.313 290.866 319.784 290.969C319.273 291.071 318.736 291.165 318.173 291.25C317.082 291.42 316.188 291.702 315.489 292.094C314.807 292.469 314.295 292.938 313.955 293.5C313.631 294.045 313.469 294.659 313.469 295.341C313.469 296.432 313.852 297.267 314.619 297.847C315.386 298.426 316.367 298.716 317.56 298.716ZM358.769 307.511C355.974 307.511 353.4 306.778 351.048 305.312C348.712 303.847 346.837 301.622 345.423 298.639C344.025 295.656 343.326 291.898 343.326 287.364C343.326 282.625 344.059 278.773 345.525 275.807C347.008 272.841 348.917 270.668 351.252 269.287C353.604 267.906 356.076 267.216 358.667 267.216C360.61 267.216 362.315 267.557 363.781 268.239C365.246 268.903 366.474 269.798 367.462 270.923C368.451 272.031 369.201 273.25 369.712 274.58H369.917V254.636H384.031V307H370.019V300.557H369.712C369.167 301.886 368.383 303.08 367.36 304.136C366.354 305.176 365.127 306.003 363.678 306.616C362.246 307.213 360.61 307.511 358.769 307.511ZM363.985 296.67C365.281 296.67 366.389 296.295 367.309 295.545C368.246 294.778 368.962 293.705 369.457 292.324C369.968 290.926 370.224 289.273 370.224 287.364C370.224 285.42 369.968 283.759 369.457 282.378C368.962 280.98 368.246 279.915 367.309 279.182C366.389 278.432 365.281 278.057 363.985 278.057C362.69 278.057 361.582 278.432 360.661 279.182C359.758 279.915 359.059 280.98 358.565 282.378C358.087 283.759 357.849 285.42 357.849 287.364C357.849 289.307 358.087 290.977 358.565 292.375C359.059 293.756 359.758 294.821 360.661 295.571C361.582 296.304 362.69 296.67 363.985 296.67Z" fill="black"/>
<path d="M224.923 383V330.636H261.741V342.091H239.139V351.091H259.491V362.545H239.139V383H224.923ZM266.331 383V343.727H280.035V351.193H280.444C281.16 348.432 282.294 346.412 283.845 345.134C285.413 343.855 287.245 343.216 289.342 343.216C289.956 343.216 290.561 343.267 291.157 343.369C291.771 343.455 292.359 343.582 292.922 343.753V355.795C292.223 355.557 291.362 355.378 290.339 355.259C289.316 355.139 288.439 355.08 287.706 355.08C286.325 355.08 285.081 355.395 283.973 356.026C282.882 356.639 282.021 357.509 281.39 358.634C280.76 359.741 280.444 361.045 280.444 362.545V383H266.331ZM314.118 383.716C309.924 383.716 306.311 382.915 303.277 381.312C300.26 379.693 297.933 377.375 296.297 374.358C294.677 371.324 293.868 367.693 293.868 363.466C293.868 359.409 294.686 355.864 296.322 352.83C297.958 349.795 300.268 347.435 303.251 345.747C306.234 344.06 309.754 343.216 313.811 343.216C316.777 343.216 319.461 343.676 321.865 344.597C324.268 345.517 326.322 346.855 328.027 348.611C329.731 350.349 331.044 352.463 331.964 354.952C332.885 357.44 333.345 360.244 333.345 363.364V366.636H298.265V358.864H320.356C320.339 357.739 320.049 356.75 319.487 355.898C318.941 355.028 318.2 354.355 317.262 353.878C316.342 353.384 315.294 353.136 314.118 353.136C312.976 353.136 311.927 353.384 310.973 353.878C310.018 354.355 309.251 355.02 308.672 355.872C308.109 356.724 307.811 357.722 307.777 358.864V367.25C307.777 368.511 308.041 369.636 308.569 370.625C309.098 371.614 309.856 372.389 310.845 372.952C311.833 373.514 313.027 373.795 314.424 373.795C315.396 373.795 316.282 373.659 317.083 373.386C317.902 373.114 318.601 372.722 319.18 372.21C319.76 371.682 320.186 371.051 320.458 370.318H333.345C332.902 373.045 331.853 375.415 330.2 377.426C328.547 379.42 326.356 380.972 323.629 382.08C320.919 383.17 317.748 383.716 314.118 383.716ZM357.922 383.716C353.729 383.716 350.115 382.915 347.081 381.312C344.064 379.693 341.738 377.375 340.101 374.358C338.482 371.324 337.672 367.693 337.672 363.466C337.672 359.409 338.49 355.864 340.127 352.83C341.763 349.795 344.073 347.435 347.056 345.747C350.039 344.06 353.559 343.216 357.615 343.216C360.581 343.216 363.266 343.676 365.669 344.597C368.073 345.517 370.127 346.855 371.831 348.611C373.536 350.349 374.848 352.463 375.769 354.952C376.689 357.44 377.15 360.244 377.15 363.364V366.636H342.07V358.864H364.161C364.144 357.739 363.854 356.75 363.292 355.898C362.746 355.028 362.005 354.355 361.067 353.878C360.147 353.384 359.098 353.136 357.922 353.136C356.78 353.136 355.732 353.384 354.777 353.878C353.823 354.355 353.056 355.02 352.476 355.872C351.914 356.724 351.615 357.722 351.581 358.864V367.25C351.581 368.511 351.846 369.636 352.374 370.625C352.902 371.614 353.661 372.389 354.65 372.952C355.638 373.514 356.831 373.795 358.229 373.795C359.201 373.795 360.087 373.659 360.888 373.386C361.706 373.114 362.405 372.722 362.985 372.21C363.564 371.682 363.99 371.051 364.263 370.318H377.15C376.706 373.045 375.658 375.415 374.005 377.426C372.351 379.42 370.161 380.972 367.434 382.08C364.723 383.17 361.553 383.716 357.922 383.716Z" fill="#329F00"/>
<defs>
<linearGradient id="paint0_linear_90_36" x1="300" y1="100" x2="300" y2="500" gradientUnits="userSpaceOnUse">
<stop offset="0.161458" stop-color="white"/>
<stop offset="0.734375" stop-color="#D9D9D9"/>
</linearGradient>
</defs>
</svg>
