<svg width="97" height="42" xmlns="http://www.w3.org/2000/svg" xmlns:xlink="http://www.w3.org/1999/xlink"
    xml:space="preserve" overflow="hidden">
    <g transform="translate(-40 -22)">
        <path
            d="M0.0159985 0 92.6955 0 92.6955 2.75175 0.0159985 2.75175ZM0.0159985 29.2133 92.6955 29.2133 92.6955 31.9651 0.0159985 31.9651Z"
            fill="#CC0000" fill-rule="evenodd" transform="matrix(1 0 0 1.00622 40.0884 22)" />
        <path
            d="M0 40.1883 0 34.5408 1.37587 34.5408 2.1918 38.3965 3.00773 34.5408 4.3996 34.5408 4.3996 40.1883 3.55168 40.1883 3.55168 35.7247 2.63976 40.1883 1.75984 40.1883 0.847923 35.7247 0.847923 40.1883Z"
            fill="#373435" transform="matrix(1 0 0 1.00622 40.0884 22)" />
        <path
            d="M5.21552 35.5328 5.21552 34.5408 6.09544 34.5408 6.09544 35.5328 5.21552 35.5328ZM5.21552 40.1883 5.21552 36.0927 6.09544 36.0927 6.09544 40.1883 5.21552 40.1883Z"
            fill="#373435" transform="matrix(1 0 0 1.00622 40.0884 22)" />
        <path
            d="M9.77511 37.3086 8.91119 37.5006C8.84719 37.0686 8.63921 36.8446 8.30324 36.8446 8.09526 36.8446 7.91928 36.9406 7.79129 37.1326 7.6473 37.3086 7.58331 37.6286 7.58331 38.0605 7.58331 38.5565 7.6473 38.8924 7.79129 39.1004 7.91928 39.2924 8.09526 39.4044 8.31924 39.4044 8.47923 39.4044 8.60721 39.3404 8.7192 39.2284 8.83119 39.1164 8.89519 38.9084 8.94318 38.6205L9.8071 38.7965C9.63112 39.7884 9.11917 40.2843 8.28724 40.2843 7.74329 40.2843 7.34333 40.0763 7.08735 39.6604 6.83138 39.2444 6.70339 38.7325 6.70339 38.1565 6.70339 37.4526 6.84737 36.9086 7.13535 36.5407 7.43932 36.1727 7.82329 35.9967 8.30324 35.9967 8.68721 35.9967 8.99118 36.1087 9.24716 36.3167 9.48713 36.5247 9.66312 36.8606 9.77511 37.3086Z"
            fill="#373435" transform="matrix(1 0 0 1.00622 40.0884 22)" />
        <path
            d="M11.167 40.1883 10.3031 40.1883 10.3031 36.0927 11.119 36.0927 11.119 36.6687C11.247 36.3967 11.375 36.2207 11.487 36.1247 11.5989 36.0447 11.7269 35.9967 11.8709 35.9967 12.0629 35.9967 12.2549 36.0607 12.4309 36.2047L12.1589 37.1486C12.0149 37.0206 11.8869 36.9726 11.7589 36.9726 11.6309 36.9726 11.5189 37.0206 11.439 37.1006 11.343 37.1966 11.279 37.3566 11.231 37.5966 11.199 37.8365 11.167 38.2845 11.167 38.9244L11.167 40.1883Z"
            fill="#373435" transform="matrix(1 0 0 1.00622 40.0884 22)" />
        <path
            d="M12.5109 38.0765C12.5109 37.6766 12.5908 37.3086 12.7348 36.9886 12.8948 36.6527 13.1028 36.4127 13.3588 36.2527 13.6148 36.0767 13.8867 35.9967 14.2067 35.9967 14.7347 35.9967 15.1506 36.2047 15.4546 36.6367 15.7586 37.0526 15.9185 37.5486 15.9185 38.1245 15.9185 38.5405 15.8386 38.9244 15.6786 39.2604 15.5186 39.5964 15.3106 39.8524 15.0546 40.0283 14.7986 40.2043 14.5107 40.2843 14.2067 40.2843 13.7267 40.2843 13.3108 40.0923 12.9908 39.7084 12.6708 39.3244 12.5109 38.7805 12.5109 38.0765ZM13.4068 38.1405C13.4068 38.5565 13.4868 38.8605 13.6308 39.0844 13.7907 39.2924 13.9987 39.4044 14.2227 39.4044 14.4307 39.4044 14.6227 39.2924 14.7826 39.0844 14.9426 38.8605 15.0226 38.5565 15.0226 38.1405 15.0226 37.7246 14.9426 37.4206 14.7826 37.1966 14.6227 36.9886 14.4307 36.8766 14.2067 36.8766 13.9827 36.8766 13.7907 36.9886 13.6308 37.1966 13.4708 37.4206 13.4068 37.7246 13.4068 38.1405Z"
            fill="#373435" transform="matrix(1 0 0 1.00622 40.0884 22)" />
        <path
            d="M21.1981 38.1085 22.094 38.4605C21.95 39.0844 21.71 39.5484 21.39 39.8364 21.0701 40.1403 20.6701 40.2843 20.2062 40.2843 19.6142 40.2843 19.1343 40.0443 18.7663 39.5804 18.3343 39.0524 18.1263 38.3325 18.1263 37.4206 18.1263 36.4447 18.3343 35.6927 18.7663 35.1488 19.1343 34.6848 19.6302 34.4449 20.2542 34.4449 20.7661 34.4449 21.1981 34.6208 21.534 34.9728 21.79 35.2288 21.966 35.5967 22.078 36.0927L21.1661 36.3647C21.1181 36.0607 20.9901 35.8367 20.8301 35.6607 20.6541 35.5008 20.4461 35.4208 20.2062 35.4208 19.8702 35.4208 19.5982 35.5648 19.3902 35.8687 19.1822 36.1727 19.0703 36.6527 19.0703 37.3406 19.0703 38.0445 19.1662 38.5565 19.3742 38.8605 19.5822 39.1484 19.8542 39.3084 20.1902 39.3084 20.4301 39.3084 20.6381 39.2124 20.8141 39.0204 20.9901 38.8285 21.1181 38.5245 21.1981 38.1085Z"
            fill="#373435" transform="matrix(1 0 0 1.00622 40.0884 22)" />
        <path
            d="M22.5739 38.0765C22.5739 37.6766 22.6539 37.3086 22.7979 36.9886 22.9579 36.6527 23.1659 36.4127 23.4219 36.2527 23.6618 36.0767 23.9498 35.9967 24.2698 35.9967 24.7977 35.9967 25.2137 36.2047 25.5177 36.6367 25.8216 37.0526 25.9656 37.5486 25.9656 38.1245 25.9656 38.5405 25.8856 38.9244 25.7416 39.2604 25.5817 39.5964 25.3737 39.8524 25.1177 40.0283 24.8617 40.2043 24.5738 40.2843 24.2698 40.2843 23.7898 40.2843 23.3739 40.0923 23.0539 39.7084 22.7339 39.3244 22.5739 38.7805 22.5739 38.0765ZM23.4539 38.1405C23.4539 38.5565 23.5338 38.8605 23.6938 39.0844 23.8538 39.2924 24.0458 39.4044 24.2698 39.4044 24.4938 39.4044 24.6857 39.2924 24.8457 39.0844 25.0057 38.8605 25.0857 38.5565 25.0857 38.1405 25.0857 37.7246 25.0057 37.4206 24.8457 37.1966 24.6857 36.9886 24.4938 36.8766 24.2698 36.8766 24.0458 36.8766 23.8538 36.9886 23.6938 37.1966 23.5338 37.4206 23.4539 37.7246 23.4539 38.1405Z"
            fill="#373435" transform="matrix(1 0 0 1.00622 40.0884 22)" />
        <path
            d="M26.4936 36.0927 27.3095 36.0927 27.3095 36.6527C27.4535 36.4287 27.6135 36.2687 27.7895 36.1567 27.9654 36.0447 28.1414 35.9967 28.3494 35.9967 28.5574 35.9967 28.7334 36.0447 28.8934 36.1567 29.0533 36.2687 29.1813 36.4287 29.2773 36.6527 29.4213 36.4287 29.5813 36.2687 29.7413 36.1567 29.9173 36.0447 30.0933 35.9967 30.2852 35.9967 30.5092 35.9967 30.7012 36.0607 30.8612 36.1567 31.0212 36.2687 31.1492 36.4287 31.2291 36.6367 31.3251 36.8286 31.3571 37.1486 31.3571 37.5646L31.3571 40.1883 30.4932 40.1883 30.4932 37.8525C30.4932 37.4366 30.4452 37.1646 30.3812 37.0366 30.3012 36.8926 30.1892 36.8286 30.0293 36.8286 29.8213 36.8286 29.6613 36.9246 29.5493 37.1166 29.4373 37.2926 29.3733 37.6766 29.3733 38.2205L29.3733 40.1883 28.4934 40.1883 28.4934 37.9485C28.4934 37.5006 28.4614 37.2126 28.4134 37.0846 28.3654 36.9086 28.2374 36.8286 28.0454 36.8286 27.9174 36.8286 27.7895 36.8766 27.6775 36.9566 27.5815 37.0526 27.5015 37.1806 27.4535 37.3406 27.4055 37.5166 27.3735 37.7885 27.3735 38.2045L27.3735 40.1883 26.4936 40.1883 26.4936 36.0927Z"
            fill="#373435" transform="matrix(1 0 0 1.00622 40.0884 22)" />
        <path
            d="M32.0611 36.0927 32.877 36.0927 32.877 36.6527C33.021 36.4287 33.181 36.2687 33.357 36.1567 33.5169 36.0447 33.7089 35.9967 33.9009 35.9967 34.1249 35.9967 34.3009 36.0447 34.4609 36.1567 34.6048 36.2687 34.7328 36.4287 34.8448 36.6527 34.9888 36.4287 35.1488 36.2687 35.3088 36.1567 35.4848 36.0447 35.6607 35.9967 35.8527 35.9967 36.0767 35.9967 36.2687 36.0607 36.4287 36.1567 36.5887 36.2687 36.7166 36.4287 36.7966 36.6367 36.8766 36.8286 36.9246 37.1486 36.9246 37.5646L36.9246 40.1883 36.0447 40.1883 36.0447 37.8525C36.0447 37.4366 36.0127 37.1646 35.9487 37.0366 35.8687 36.8926 35.7567 36.8286 35.5807 36.8286 35.3888 36.8286 35.2288 36.9246 35.1168 37.1166 34.9888 37.2926 34.9248 37.6766 34.9248 38.2205L34.9248 40.1883 34.0609 40.1883 34.0609 37.9485C34.0609 37.5006 34.0289 37.2126 33.9809 37.0846 33.9169 36.9086 33.7889 36.8286 33.5969 36.8286 33.4689 36.8286 33.357 36.8766 33.245 36.9566 33.133 37.0526 33.053 37.1806 33.005 37.3406 32.957 37.5166 32.941 37.7885 32.941 38.2045L32.941 40.1883 32.0611 40.1883 32.0611 36.0927Z"
            fill="#373435" transform="matrix(1 0 0 1.00622 40.0884 22)" />
        <path
            d="M39.6124 38.8924 40.4763 39.0684C40.3643 39.4844 40.1883 39.7884 39.9324 39.9803 39.6924 40.1883 39.3884 40.2843 39.0364 40.2843 38.5565 40.2843 38.1725 40.1243 37.9165 39.7884 37.5966 39.4044 37.4366 38.8605 37.4366 38.1565 37.4366 37.4846 37.5966 36.9246 37.9165 36.5247 38.1725 36.1727 38.5245 35.9967 38.9564 35.9967 39.4204 35.9967 39.7884 36.1727 40.0603 36.5247 40.3643 36.9406 40.5243 37.5326 40.5243 38.3325L40.5243 38.4605 38.3325 38.4605C38.3325 38.7805 38.4125 39.0204 38.5405 39.2124 38.6845 39.3884 38.8445 39.4684 39.0524 39.4684 39.3244 39.4684 39.5164 39.2764 39.6124 38.8924ZM39.6604 37.7885C39.6444 37.4686 39.5804 37.2286 39.4524 37.0686 39.3244 36.9086 39.1804 36.8286 39.0044 36.8286 38.8125 36.8286 38.6685 36.9086 38.5405 37.0846 38.4125 37.2446 38.3485 37.4846 38.3485 37.7885L39.6604 37.7885Z"
            fill="#373435" transform="matrix(1 0 0 1.00622 40.0884 22)" />
        <path
            d="M41.9802 40.1883 41.1002 40.1883 41.1002 36.0927 41.9162 36.0927 41.9162 36.6687C42.0602 36.3967 42.1721 36.2207 42.2841 36.1247 42.3961 36.0447 42.5241 35.9967 42.6681 35.9967 42.8761 35.9967 43.0521 36.0607 43.244 36.2047L42.9721 37.1486C42.8281 37.0206 42.6841 36.9726 42.5561 36.9726 42.4441 36.9726 42.3321 37.0206 42.2361 37.1006 42.1402 37.1966 42.0762 37.3566 42.0442 37.5966 41.9962 37.8365 41.9802 38.2845 41.9802 38.9244L41.9802 40.1883Z"
            fill="#373435" transform="matrix(1 0 0 1.00622 40.0884 22)" />
        <path
            d="M46.3958 37.3086 45.5318 37.5006C45.4678 37.0686 45.2759 36.8446 44.9399 36.8446 44.7159 36.8446 44.5399 36.9406 44.4119 37.1326 44.284 37.3086 44.22 37.6286 44.22 38.0605 44.22 38.5565 44.284 38.8924 44.4119 39.1004 44.5399 39.2924 44.7159 39.4044 44.9399 39.4044 45.0999 39.4044 45.2439 39.3404 45.3399 39.2284 45.4518 39.1164 45.5318 38.9084 45.5798 38.6205L46.4438 38.7965C46.2518 39.7884 45.7558 40.2843 44.9079 40.2843 44.3799 40.2843 43.98 40.0763 43.724 39.6604 43.452 39.2444 43.324 38.7325 43.324 38.1565 43.324 37.4526 43.468 36.9086 43.772 36.5407 44.06 36.1727 44.4439 35.9967 44.9239 35.9967 45.3079 35.9967 45.6278 36.1087 45.8678 36.3167 46.1078 36.5247 46.2838 36.8606 46.3958 37.3086Z"
            fill="#373435" transform="matrix(1 0 0 1.00622 40.0884 22)" />
        <path
            d="M46.9717 35.5328 46.9717 34.5408 47.8356 34.5408 47.8356 35.5328 46.9717 35.5328ZM46.9717 40.1883 46.9717 36.0927 47.8356 36.0927 47.8356 40.1883 46.9717 40.1883Z"
            fill="#373435" transform="matrix(1 0 0 1.00622 40.0884 22)" />
        <path
            d="M49.3075 37.3406 48.5076 37.1806C48.6036 36.7486 48.7635 36.4607 48.9875 36.2687 49.1955 36.0927 49.5155 35.9967 49.9314 35.9967 50.2994 35.9967 50.5874 36.0447 50.7794 36.1567 50.9713 36.2687 51.1153 36.3967 51.1953 36.5887 51.2753 36.7646 51.3233 37.1006 51.3233 37.5806L51.3073 38.8445C51.3073 39.1964 51.3233 39.4684 51.3553 39.6284 51.3713 39.8044 51.4353 39.9963 51.4993 40.1883L50.6354 40.1883 50.5234 39.7404C50.3794 39.9164 50.2194 40.0603 50.0434 40.1403 49.8834 40.2363 49.6915 40.2843 49.4995 40.2843 49.1795 40.2843 48.9235 40.1723 48.7155 39.9483 48.5076 39.7404 48.4116 39.4364 48.4116 39.0684 48.4116 38.8445 48.4436 38.6365 48.5396 38.4605 48.6196 38.3005 48.7315 38.1565 48.8915 38.0605 49.0355 37.9485 49.2755 37.8525 49.6115 37.7725 50.0274 37.6766 50.2994 37.5966 50.4594 37.5166 50.4594 37.2926 50.4434 37.1326 50.4114 37.0686 50.3794 37.0046 50.3314 36.9406 50.2354 36.8926 50.1554 36.8446 50.0434 36.8286 49.8834 36.8286 49.7235 36.8286 49.6115 36.8606 49.5155 36.9406 49.4355 37.0046 49.3555 37.1486 49.3075 37.3406ZM50.4594 38.2205C50.3474 38.2685 50.1714 38.3165 49.9474 38.3805 49.6755 38.4445 49.4995 38.5245 49.4035 38.6205 49.3235 38.7005 49.2915 38.8285 49.2915 38.9564 49.2915 39.1164 49.3235 39.2444 49.4195 39.3564 49.5155 39.4684 49.6275 39.5164 49.7715 39.5164 49.8994 39.5164 50.0114 39.4684 50.1394 39.3884 50.2674 39.3084 50.3474 39.1964 50.3954 39.0844 50.4434 38.9564 50.4594 38.7485 50.4594 38.4285L50.4594 38.2205Z"
            fill="#373435" transform="matrix(1 0 0 1.00622 40.0884 22)" />
        <path d="M52.0912 40.1883 52.0912 34.5408 52.9552 34.5408 52.9552 40.1883Z" fill="#373435"
            transform="matrix(1 0 0 1.00622 40.0884 22)" />
        <path
            d="M58.4427 38.1085 59.3386 38.4605C59.1946 39.0844 58.9706 39.5484 58.6506 39.8364 58.3147 40.1403 57.9307 40.2843 57.4508 40.2843 56.8588 40.2843 56.3788 40.0443 56.0109 39.5804 55.5949 39.0524 55.3709 38.3325 55.3709 37.4206 55.3709 36.4447 55.5949 35.6927 56.0109 35.1488 56.3948 34.6848 56.8908 34.4449 57.5147 34.4449 58.0267 34.4449 58.4427 34.6208 58.7946 34.9728 59.0346 35.2288 59.2106 35.5967 59.3386 36.0927L58.4267 36.3647C58.3627 36.0607 58.2507 35.8367 58.0747 35.6607 57.8987 35.5008 57.6907 35.4208 57.4668 35.4208 57.1308 35.4208 56.8588 35.5648 56.6348 35.8687 56.4268 36.1727 56.3149 36.6527 56.3149 37.3406 56.3149 38.0445 56.4268 38.5565 56.6348 38.8605 56.8428 39.1484 57.0988 39.3084 57.4348 39.3084 57.6747 39.3084 57.8827 39.2124 58.0587 39.0204 58.2347 38.8285 58.3627 38.5245 58.4427 38.1085Z"
            fill="#373435" transform="matrix(1 0 0 1.00622 40.0884 22)" />
        <path
            d="M59.8185 38.0765C59.8185 37.6766 59.8985 37.3086 60.0585 36.9886 60.2185 36.6527 60.4105 36.4127 60.6665 36.2527 60.9224 36.0767 61.2104 35.9967 61.5144 35.9967 62.0583 35.9967 62.4743 36.2047 62.7623 36.6367 63.0662 37.0526 63.2262 37.5486 63.2262 38.1245 63.2262 38.5405 63.1462 38.9244 62.9862 39.2604 62.8263 39.5964 62.6183 39.8524 62.3623 40.0283 62.1063 40.2043 61.8344 40.2843 61.5304 40.2843 61.0344 40.2843 60.6345 40.0923 60.2985 39.7084 59.9785 39.3244 59.8185 38.7805 59.8185 38.0765ZM60.7145 38.1405C60.7145 38.5565 60.7944 38.8605 60.9544 39.0844 61.1144 39.2924 61.3064 39.4044 61.5304 39.4044 61.7544 39.4044 61.9463 39.2924 62.0903 39.0844 62.2503 38.8605 62.3303 38.5565 62.3303 38.1405 62.3303 37.7246 62.2503 37.4206 62.0903 37.1966 61.9303 36.9886 61.7384 36.8766 61.5144 36.8766 61.2904 36.8766 61.1144 36.9886 60.9544 37.1966 60.7944 37.4206 60.7145 37.7246 60.7145 38.1405Z"
            fill="#373435" transform="matrix(1 0 0 1.00622 40.0884 22)" />
        <path
            d="M63.7542 36.0927 64.5701 36.0927 64.5701 36.6527C64.7141 36.4287 64.8741 36.2687 65.0341 36.1567 65.21 36.0447 65.402 35.9967 65.594 35.9967 65.802 35.9967 65.994 36.0447 66.154 36.1567 66.2979 36.2687 66.4259 36.4287 66.5219 36.6527 66.6819 36.4287 66.8259 36.2687 67.0019 36.1567 67.1619 36.0447 67.3538 35.9967 67.5298 35.9967 67.7538 35.9967 67.9618 36.0607 68.1218 36.1567 68.2818 36.2687 68.4098 36.4287 68.4897 36.6367 68.5697 36.8286 68.6177 37.1486 68.6177 37.5646L68.6177 40.1883 67.7378 40.1883 67.7378 37.8525C67.7378 37.4366 67.7058 37.1646 67.6258 37.0366 67.5618 36.8926 67.4338 36.8286 67.2739 36.8286 67.0819 36.8286 66.9219 36.9246 66.8099 37.1166 66.6819 37.2926 66.6179 37.6766 66.6179 38.2205L66.6179 40.1883 65.738 40.1883 65.738 37.9485C65.738 37.5006 65.722 37.2126 65.674 37.0846 65.61 36.9086 65.482 36.8286 65.29 36.8286 65.162 36.8286 65.0501 36.8766 64.9381 36.9566 64.8261 37.0526 64.7461 37.1806 64.6981 37.3406 64.6501 37.5166 64.6341 37.7885 64.6341 38.2045L64.6341 40.1883 63.7542 40.1883 63.7542 36.0927Z"
            fill="#373435" transform="matrix(1 0 0 1.00622 40.0884 22)" />
        <path
            d="M69.3537 36.0927 70.1696 36.0927 70.1696 36.7006C70.2816 36.4767 70.4256 36.3007 70.6175 36.1887 70.7935 36.0607 70.9855 35.9967 71.2095 35.9967 71.5775 35.9967 71.8974 36.1727 72.1694 36.5407 72.4414 36.9086 72.5854 37.4366 72.5854 38.1085 72.5854 38.8125 72.4414 39.3404 72.1694 39.7244 71.8974 40.0923 71.5775 40.2843 71.1935 40.2843 71.0175 40.2843 70.8575 40.2363 70.7135 40.1563 70.5696 40.0603 70.4096 39.9164 70.2336 39.6924L70.2336 41.7402 69.3537 41.7402 69.3537 36.0927ZM70.2336 38.0765C70.2336 38.5405 70.2976 38.8764 70.4416 39.1004 70.6015 39.3084 70.7775 39.4204 70.9855 39.4204 71.1775 39.4204 71.3535 39.3244 71.4815 39.1164 71.6255 38.9244 71.6895 38.5885 71.6895 38.1245 71.6895 37.6926 71.6255 37.3726 71.4815 37.1646 71.3375 36.9566 71.1615 36.8446 70.9695 36.8446 70.7615 36.8446 70.5856 36.9566 70.4416 37.1486 70.2976 37.3566 70.2336 37.6606 70.2336 38.0765Z"
            fill="#373435" transform="matrix(1 0 0 1.00622 40.0884 22)" />
        <path
            d="M72.9693 38.0765C72.9693 37.6766 73.0493 37.3086 73.2093 36.9886 73.3533 36.6527 73.5613 36.4127 73.8173 36.2527 74.0732 36.0767 74.3612 35.9967 74.6652 35.9967 75.1931 35.9967 75.6091 36.2047 75.9131 36.6367 76.217 37.0526 76.377 37.5486 76.377 38.1245 76.377 38.5405 76.297 38.9244 76.137 39.2604 75.9771 39.5964 75.7691 39.8524 75.5131 40.0283 75.2571 40.2043 74.9852 40.2843 74.6812 40.2843 74.1852 40.2843 73.7693 40.0923 73.4493 39.7084 73.1293 39.3244 72.9693 38.7805 72.9693 38.0765ZM73.8652 38.1405C73.8652 38.5565 73.9452 38.8605 74.1052 39.0844 74.2652 39.2924 74.4572 39.4044 74.6812 39.4044 74.9052 39.4044 75.0811 39.2924 75.2411 39.0844 75.4011 38.8605 75.4811 38.5565 75.4811 38.1405 75.4811 37.7246 75.4011 37.4206 75.2411 37.1966 75.0811 36.9886 74.8892 36.8766 74.6652 36.8766 74.4412 36.8766 74.2652 36.9886 74.1052 37.1966 73.9452 37.4206 73.8652 37.7246 73.8652 38.1405Z"
            fill="#373435" transform="matrix(1 0 0 1.00622 40.0884 22)" />
        <path
            d="M79.9607 40.1883 79.0968 40.1883 79.0968 38.0925C79.0968 37.6766 79.0648 37.4046 79.0328 37.2606 79.0008 37.1166 78.9528 37.0206 78.8568 36.9406 78.7608 36.8606 78.6648 36.8286 78.5528 36.8286 78.4088 36.8286 78.2808 36.8766 78.1529 36.9726 78.0409 37.0686 77.9609 37.1966 77.9129 37.3726 77.8649 37.5486 77.8329 37.8685 77.8329 38.3325L77.8329 40.1883 76.953 40.1883 76.953 36.0927 77.7689 36.0927 77.7689 36.6847C77.9129 36.4607 78.0729 36.2847 78.2489 36.1727 78.4408 36.0607 78.6328 35.9967 78.8568 35.9967 79.1128 35.9967 79.3208 36.0607 79.4967 36.2047 79.6727 36.3327 79.8007 36.5087 79.8647 36.7166 79.9287 36.9406 79.9607 37.2446 79.9607 37.6446L79.9607 40.1883Z"
            fill="#373435" transform="matrix(1 0 0 1.00622 40.0884 22)" />
        <path
            d="M82.6805 38.8924 83.5444 39.0684C83.4324 39.4844 83.2564 39.7884 83.0004 39.9803 82.7604 40.1883 82.4565 40.2843 82.1045 40.2843 81.6245 40.2843 81.2406 40.1243 80.9846 39.7884 80.6646 39.4044 80.5046 38.8605 80.5046 38.1565 80.5046 37.4846 80.6646 36.9246 80.9846 36.5247 81.2566 36.1727 81.5925 35.9967 82.0245 35.9967 82.4885 35.9967 82.8564 36.1727 83.1284 36.5247 83.4324 36.9406 83.5924 37.5326 83.5924 38.3325L83.5924 38.4605 81.4006 38.4605C81.4006 38.7805 81.4806 39.0204 81.6245 39.2124 81.7525 39.3884 81.9285 39.4684 82.1205 39.4684 82.3925 39.4684 82.5845 39.2764 82.6805 38.8924ZM82.7284 37.7885C82.7124 37.4686 82.6485 37.2286 82.5205 37.0686 82.3925 36.9086 82.2485 36.8286 82.0725 36.8286 81.8965 36.8286 81.7365 36.9086 81.6085 37.0846 81.4806 37.2446 81.4166 37.4846 81.4166 37.7885L82.7284 37.7885Z"
            fill="#373435" transform="matrix(1 0 0 1.00622 40.0884 22)" />
        <path
            d="M87.208 40.1883 86.3281 40.1883 86.3281 38.0925C86.3281 37.6766 86.3121 37.4046 86.2801 37.2606 86.2481 37.1166 86.1841 37.0206 86.0881 36.9406 86.0081 36.8606 85.8962 36.8286 85.7842 36.8286 85.6402 36.8286 85.5122 36.8766 85.4002 36.9726 85.2722 37.0686 85.1922 37.1966 85.1442 37.3726 85.0962 37.5486 85.0642 37.8685 85.0642 38.3325L85.0642 40.1883 84.2003 40.1883 84.2003 36.0927 85.0162 36.0927 85.0162 36.6847C85.1602 36.4607 85.3202 36.2847 85.4962 36.1727 85.6722 36.0607 85.8802 35.9967 86.0881 35.9967 86.3441 35.9967 86.5681 36.0607 86.7441 36.2047 86.9201 36.3327 87.0321 36.5087 87.096 36.7166 87.176 36.9406 87.208 37.2446 87.208 37.6446L87.208 40.1883Z"
            fill="#373435" transform="matrix(1 0 0 1.00622 40.0884 22)" />
        <path
            d="M89.5118 36.0927 89.5118 36.9566 88.9199 36.9566 88.9199 38.6045C88.9199 38.9724 88.9359 39.1644 88.9519 39.2284 88.9839 39.3404 89.0479 39.3884 89.1599 39.3884 89.2398 39.3884 89.3518 39.3564 89.5118 39.2764L89.5918 40.1243C89.3838 40.2363 89.1599 40.2843 88.9039 40.2843 88.6799 40.2843 88.5039 40.2363 88.3599 40.1243 88.2319 40.0123 88.1359 39.8524 88.104 39.6604 88.056 39.5004 88.04 39.1964 88.04 38.7485L88.04 36.9566 87.64 36.9566 87.64 36.0927 88.04 36.0927 88.04 35.2768 88.9199 34.6528 88.9199 36.0927 89.5118 36.0927Z"
            fill="#373435" transform="matrix(1 0 0 1.00622 40.0884 22)" />
        <path
            d="M89.7198 39.0204 90.5997 38.8605C90.6797 39.2924 90.9197 39.5004 91.3037 39.5004 91.5116 39.5004 91.6716 39.4684 91.7676 39.3724 91.8796 39.2924 91.9276 39.1964 91.9276 39.0524 91.9276 38.9724 91.9116 38.8924 91.8636 38.8445 91.8156 38.7965 91.7196 38.7485 91.5756 38.7165 90.8557 38.5245 90.4077 38.3325 90.1998 38.1565 89.9598 37.9325 89.8478 37.6446 89.8478 37.2606 89.8478 36.8766 89.9598 36.5727 90.1998 36.3487 90.4397 36.1087 90.7757 35.9967 91.2397 35.9967 91.6716 35.9967 91.9916 36.0767 92.2156 36.2527 92.4556 36.4287 92.5995 36.7006 92.6955 37.0846L91.8796 37.2766C91.7996 36.9406 91.5916 36.7806 91.2557 36.7806 91.0317 36.7806 90.8877 36.8126 90.7917 36.8766 90.6957 36.9406 90.6637 37.0206 90.6637 37.1166 90.6637 37.2126 90.6957 37.2926 90.7757 37.3566 90.8557 37.4046 91.1277 37.5006 91.5596 37.6286 92.0396 37.7565 92.3756 37.9325 92.5515 38.1245 92.7275 38.3325 92.8075 38.5885 92.8075 38.9244 92.8075 39.3084 92.6795 39.6444 92.4076 39.9004 92.1356 40.1563 91.7676 40.2843 91.3037 40.2843 90.8717 40.2843 90.5357 40.1723 90.2638 39.9643 89.9918 39.7404 89.8158 39.4364 89.7198 39.0204Z"
            fill="#373435" transform="matrix(1 0 0 1.00622 40.0884 22)" />
        <path
            d="M15.3586 8.12726 21.758 8.12726 21.598 17.6944 26.6536 8.12726 33.021 8.12726 28.7494 23.8378 24.7817 23.8378 28.0294 11.8549 21.71 23.8378 18.1103 23.8378 18.3183 11.8549 15.0546 23.8378 11.087 23.8378Z"
            fill="#373435" transform="matrix(1 0 0 1.00622 40.0884 22)" />
        <path
            d="M51.3873 17.4064 55.291 18.6863C54.683 19.8862 53.9631 20.8781 53.1311 21.678 52.2992 22.4779 51.3713 23.0859 50.3474 23.4859 49.3235 23.9018 48.1076 24.1098 46.6997 24.1098 44.9879 24.1098 43.66 23.8538 42.7001 23.3579 41.7562 22.8619 41.0682 21.982 40.6203 20.7341 40.1723 19.5022 40.2043 17.8864 40.7323 15.9505 41.4522 13.3428 42.6841 11.343 44.4439 9.95109 46.2038 8.55922 48.3636 7.85528 50.8913 7.85528 52.8752 7.85528 54.315 8.25525 55.243 9.05517 56.1549 9.8551 56.6508 11.087 56.7628 12.7508L52.2192 13.6947C52.2032 13.2308 52.1392 12.8788 52.0272 12.6548 51.8513 12.2869 51.5953 11.9989 51.2593 11.8069 50.9233 11.5989 50.5074 11.5029 50.0274 11.5029 48.9235 11.5029 47.9476 11.9509 47.1317 12.8308 46.5078 13.4868 45.9958 14.5107 45.6278 15.9185 45.1479 17.6624 45.0839 18.8463 45.4358 19.5022 45.8038 20.1422 46.4598 20.4621 47.4037 20.4621 48.3476 20.4621 49.1155 20.2062 49.7235 19.6782 50.3474 19.1503 50.8913 18.3983 51.3873 17.4064Z"
            fill="#373435" transform="matrix(1 0 0 1.00622 40.0884 22)" />
        <path
            d="M75.7851 17.4064 79.6887 18.6863C79.0808 19.8862 78.3608 20.8781 77.5289 21.678 76.681 22.4779 75.7691 23.0859 74.7452 23.4859 73.7213 23.9018 72.5054 24.1098 71.0975 24.1098 69.3857 24.1098 68.0578 23.8538 67.0979 23.3579 66.154 22.8619 65.466 21.982 65.0181 20.7341 64.5701 19.5022 64.6021 17.8864 65.1301 15.9505 65.85 13.3428 67.0819 11.343 68.8417 9.95109 70.6015 8.55922 72.7614 7.85528 75.2891 7.85528 77.2569 7.85528 78.7128 8.25525 79.6247 9.05517 80.5366 9.8551 81.0486 11.087 81.1446 12.7508L76.617 13.6947C76.585 13.2308 76.537 12.8788 76.425 12.6548 76.249 12.2869 75.9931 11.9989 75.6571 11.8069 75.3211 11.5989 74.9052 11.5029 74.4252 11.5029 73.3213 11.5029 72.3454 11.9509 71.5295 12.8308 70.9055 13.4868 70.3936 14.5107 70.0096 15.9185 69.5456 17.6624 69.4817 18.8463 69.8336 19.5022 70.1856 20.1422 70.8415 20.4621 71.8014 20.4621 72.7294 20.4621 73.5133 20.2062 74.1212 19.6782 74.7452 19.1503 75.2891 18.3983 75.7851 17.4064Z"
            fill="#373435" transform="matrix(1 0 0 1.00622 40.0884 22)" />
        <path
            d="M10.0631 15.9825C10.0631 17.5376 8.80243 18.7983 7.24734 18.7983 5.69225 18.7983 4.4316 17.5376 4.4316 15.9825 4.4316 14.4274 5.69225 13.1668 7.24734 13.1668 8.80243 13.1668 10.0631 14.4274 10.0631 15.9825Z"
            fill="#CC0000" fill-rule="evenodd" transform="matrix(1 0 0 1.00622 40.0884 22)" />
        <path
            d="M38.9084 15.9825C38.9084 17.5376 37.6478 18.7983 36.0927 18.7983 34.5376 18.7983 33.277 17.5376 33.277 15.9825 33.277 14.4274 34.5376 13.1668 36.0927 13.1668 37.6478 13.1668 38.9084 14.4274 38.9084 15.9825Z"
            fill="#CC0000" fill-rule="evenodd" transform="matrix(1 0 0 1.00622 40.0884 22)" />
        <path
            d="M63.1462 15.9825C63.1462 17.5376 61.8856 18.7983 60.3305 18.7983 58.7754 18.7983 57.5147 17.5376 57.5147 15.9825 57.5147 14.4274 58.7754 13.1668 60.3305 13.1668 61.8856 13.1668 63.1462 14.4274 63.1462 15.9825Z"
            fill="#CC0000" fill-rule="evenodd" transform="matrix(1 0 0 1.00622 40.0884 22)" />
        <path
            d="M88.1679 15.9825C88.1679 17.5376 86.9073 18.7983 85.3522 18.7983 83.7971 18.7983 82.5365 17.5376 82.5365 15.9825 82.5365 14.4274 83.7971 13.1668 85.3522 13.1668 86.9073 13.1668 88.1679 14.4274 88.1679 15.9825Z"
            fill="#CC0000" fill-rule="evenodd" transform="matrix(1 0 0 1.00622 40.0884 22)" />
        <path
            d="M95.2713 29.1333C95.5273 29.1333 95.7832 29.1973 96.0392 29.3253 96.2792 29.4533 96.4712 29.6453 96.6152 29.9013 96.7432 30.1412 96.8232 30.4132 96.8232 30.6692 96.8232 30.9412 96.7432 31.1972 96.6152 31.4371 96.4712 31.6931 96.2952 31.8851 96.0392 32.0131 95.7992 32.1571 95.5433 32.2211 95.2713 32.2211 94.9993 32.2211 94.7433 32.1571 94.5034 32.0131 94.2634 31.8851 94.0714 31.6931 93.9274 31.4371 93.7994 31.1972 93.7194 30.9412 93.7194 30.6692 93.7194 30.4132 93.7994 30.1412 93.9274 29.9013 94.0714 29.6453 94.2634 29.4533 94.5194 29.3253 94.7593 29.1973 95.0153 29.1333 95.2713 29.1333ZM95.2713 29.3893C95.0633 29.3893 94.8393 29.4373 94.6474 29.5493 94.4394 29.6613 94.2794 29.8213 94.1514 30.0293 94.0394 30.2372 93.9754 30.4452 93.9754 30.6692 93.9754 30.8932 94.0394 31.1172 94.1514 31.3091 94.2634 31.5171 94.4234 31.6771 94.6314 31.7891 94.8393 31.9011 95.0473 31.9651 95.2713 31.9651 95.4953 31.9651 95.7033 31.9011 95.9112 31.7891 96.1192 31.6771 96.2792 31.5171 96.3912 31.3091 96.5032 31.1172 96.5672 30.8932 96.5672 30.6692 96.5672 30.4452 96.5032 30.2372 96.3912 30.0293 96.2792 29.8213 96.1192 29.6613 95.9112 29.5493 95.7033 29.4373 95.4953 29.3893 95.2713 29.3893ZM94.5994 31.5331 94.5994 29.8693 95.1753 29.8693C95.3673 29.8693 95.5113 29.8853 95.5913 29.9173 95.6873 29.9493 95.7513 29.9973 95.7992 30.0773 95.8472 30.1412 95.8792 30.2372 95.8792 30.3172 95.8792 30.4292 95.8312 30.5412 95.7513 30.6372 95.6553 30.7172 95.5433 30.7652 95.3993 30.7812 95.4633 30.8132 95.5113 30.8452 95.5433 30.8772 95.6073 30.9412 95.6873 31.0532 95.7832 31.1972L95.9912 31.5331 95.6713 31.5331 95.5113 31.2611C95.3993 31.0532 95.3033 30.9252 95.2393 30.8772 95.1913 30.8452 95.1113 30.8292 95.0153 30.8292L94.8713 30.8292 94.8713 31.5331 94.5994 31.5331ZM94.8713 30.5892 95.1913 30.5892C95.3513 30.5892 95.4473 30.5732 95.5113 30.5252 95.5593 30.4772 95.5913 30.4132 95.5913 30.3332 95.5913 30.2852 95.5753 30.2532 95.5593 30.2052 95.5273 30.1732 95.4953 30.1412 95.4313 30.1252 95.3833 30.1092 95.3033 30.0933 95.1753 30.0933L94.8713 30.0933 94.8713 30.5892Z"
            fill="#373435" transform="matrix(1 0 0 1.00622 40.0884 22)" />
    </g>
</svg>