<svg width="600" height="600" viewBox="0 0 600 600" fill="none" xmlns="http://www.w3.org/2000/svg">
<circle cx="300" cy="300" r="200" fill="url(#paint0_linear_3_593)" stroke="black" stroke-width="22" stroke-linejoin="round"/>
<mask id="path-2-inside-1_3_593" fill="white">
<path d="M502.268 73.8127C456.689 125.49 389.124 185.725 326.292 213.936C263.45 242.222 180.888 238.077 132.833 188.667C159.347 130.907 216.532 89.8072 279.257 79.4252C353.01 67.2193 431.422 97.5657 502.165 73.4168"/>
</mask>
<path d="M502.268 73.8127C456.689 125.49 389.124 185.725 326.292 213.936C263.45 242.222 180.888 238.077 132.833 188.667C159.347 130.907 216.532 89.8072 279.257 79.4252C353.01 67.2193 431.422 97.5657 502.165 73.4168" fill="#329F00"/>
<path d="M326.292 213.936L325.982 213.246L325.981 213.246L326.292 213.936ZM132.833 188.667L132.146 188.352L131.929 188.823L132.291 189.195L132.833 188.667ZM279.257 79.4252L279.134 78.6785L279.134 78.6785L279.257 79.4252ZM501.7 73.312C456.152 124.955 388.672 185.099 325.982 213.246L326.602 214.627C389.577 186.352 457.226 126.025 502.836 74.3133L501.7 73.312ZM325.981 213.246C263.332 241.445 181.142 237.253 133.376 188.14L132.291 189.195C180.633 238.901 263.568 242.999 326.603 214.626L325.981 213.246ZM133.521 188.983C159.923 131.468 216.885 90.5159 279.381 80.1719L279.134 78.6785C216.179 89.0984 158.772 130.346 132.146 188.352L133.521 188.983ZM279.381 80.1719C316.142 74.0881 354.066 78.6079 391.779 81.6541C429.444 84.6963 466.875 86.2633 502.409 74.133L501.92 72.7005C466.712 84.7192 429.566 83.1875 391.901 80.1452C354.284 77.1069 316.126 72.5564 279.134 78.6785L279.381 80.1719Z" fill="black" mask="url(#path-2-inside-1_3_593)"/>
<path d="M496.751 69.5937C458.439 112.846 414.881 152.757 366.199 184.133C343.282 198.852 318.661 211.901 292.089 218.577C266.789 224.878 240.401 226.447 214.596 222.194C186.087 217.522 158.708 205.106 138.267 184.452C138.584 186.79 138.911 189.052 139.153 191.38C160.167 146.249 200.108 111.932 246.652 95.0652C300.333 75.6539 356.662 86.212 412.03 89.2209C443.36 90.956 474.76 89.7135 504.815 79.7244C513.29 76.889 507.774 64.1701 499.374 67.0149C442.697 85.8949 382.276 70.1488 324.304 69.5679C270.77 69.0113 219.178 84.0152 177.86 118.925C156.088 137.311 138.429 160.122 126.353 186.011C125.409 188.036 125.612 191.278 127.24 192.939C166.684 232.914 225.593 244.87 279.714 235.316C337.906 225.051 388.97 188.769 433.07 151.224C459.578 128.688 484.505 104.115 507.634 78.0128C513.683 71.3486 502.649 62.9104 496.751 69.5937Z" fill="black"/>
<path d="M132.106 182.297C112.203 183.459 92.6441 180.071 74.2308 172.462C66.0085 169.05 60.6401 181.85 68.9378 185.271C89.6869 193.787 111.677 197.33 134.125 196.029C142.993 195.54 140.974 181.808 132.106 182.297Z" fill="black"/>
<path d="M491.195 74.7881C402.242 109.732 311.354 139.378 218.685 162.52C191.725 169.224 164.673 175.457 137.526 181.219C128.873 183.036 130.731 196.825 139.469 194.942C233.662 174.902 326.495 149.254 417.385 117.158C443.99 107.805 470.359 97.8871 496.55 87.5634C504.922 84.3321 499.491 71.5473 491.195 74.7881Z" fill="black"/>
<path d="M354.362 140.214C371.45 152.25 390.777 159.898 411.505 162.515C420.324 163.629 422.056 149.91 413.237 148.797C394.921 146.484 377.836 139.886 362.79 129.256C355.475 124.121 347.046 135.079 354.362 140.214Z" fill="black"/>
<path d="M361.586 74.5049C347.024 92.1933 335.126 111.826 326.195 132.829C322.707 141.042 335.517 146.335 339.004 138.122C347.5 118.136 358.794 99.6524 372.629 82.8677C378.311 76.0805 367.277 67.6423 361.586 74.5049Z" fill="black"/>
<path d="M242.848 168.252C263.833 191.883 290.715 209.444 321.037 218.557C329.525 221.083 334.884 208.359 326.33 205.747C298.297 197.307 273.241 181.661 253.724 159.747C247.89 153.19 236.948 161.61 242.848 168.252Z" fill="black"/>
<path d="M267.528 77.1018C241.673 98.112 225.153 128.878 222.181 162.119C221.369 170.976 235.153 172.793 235.899 163.852C238.575 134.171 252.894 106.88 276.024 88.0528C282.929 82.4922 274.518 71.4753 267.528 77.1018Z" fill="black"/>
<path d="M177.662 320V251.407H207.27C212.361 251.407 216.815 252.333 220.634 254.187C224.452 256.04 227.422 258.708 229.543 262.191C231.664 265.675 232.725 269.85 232.725 274.718C232.725 279.63 231.63 283.772 229.442 287.144C227.276 290.515 224.229 293.061 220.299 294.78C216.391 296.499 211.825 297.359 206.6 297.359H188.916V282.89H202.849C205.037 282.89 206.902 282.622 208.442 282.086C210.005 281.528 211.2 280.646 212.026 279.44C212.874 278.235 213.299 276.66 213.299 274.718C213.299 272.753 212.874 271.156 212.026 269.928C211.2 268.678 210.005 267.762 208.442 267.182C206.902 266.579 205.037 266.278 202.849 266.278H196.284V320H177.662ZM217.854 288.517L235.002 320H214.772L198.026 288.517H217.854Z" fill="#329F00"/>
<path d="M264.61 320.938C259.028 320.938 254.249 319.833 250.275 317.622C246.3 315.389 243.252 312.286 241.131 308.311C239.01 304.314 237.949 299.681 237.949 294.412C237.949 289.142 239.01 284.52 241.131 280.546C243.252 276.549 246.3 273.445 250.275 271.235C254.249 269.002 259.028 267.885 264.61 267.885C270.192 267.885 274.97 269.002 278.945 271.235C282.919 273.445 285.967 276.549 288.088 280.546C290.209 284.52 291.27 289.142 291.27 294.412C291.27 299.681 290.209 304.314 288.088 308.311C285.967 312.286 282.919 315.389 278.945 317.622C274.97 319.833 270.192 320.938 264.61 320.938ZM264.744 307.273C266.307 307.273 267.658 306.748 268.796 305.699C269.935 304.649 270.817 303.153 271.442 301.211C272.067 299.268 272.38 296.957 272.38 294.278C272.38 291.576 272.067 289.265 271.442 287.345C270.817 285.402 269.935 283.906 268.796 282.857C267.658 281.807 266.307 281.282 264.744 281.282C263.091 281.282 261.674 281.807 260.49 282.857C259.307 283.906 258.402 285.402 257.777 287.345C257.152 289.265 256.839 291.576 256.839 294.278C256.839 296.957 257.152 299.268 257.777 301.211C258.402 303.153 259.307 304.649 260.49 305.699C261.674 306.748 263.091 307.273 264.744 307.273Z" fill="#329F00"/>
<path d="M298.504 320V251.407H317.126V278.201H341.777V251.407H360.399V320H341.777V293.206H317.126V320H298.504Z" fill="#329F00"/>
<path d="M406.217 272.842C406.039 270.609 405.201 268.868 403.705 267.617C402.232 266.367 399.988 265.742 396.973 265.742C395.053 265.742 393.479 265.976 392.251 266.445C391.045 266.892 390.152 267.506 389.571 268.287C388.991 269.069 388.689 269.962 388.667 270.967C388.622 271.793 388.768 272.541 389.103 273.211C389.46 273.858 390.018 274.45 390.777 274.986C391.536 275.499 392.508 275.968 393.691 276.392C394.874 276.817 396.281 277.196 397.911 277.531L403.538 278.737C407.334 279.541 410.583 280.601 413.284 281.919C415.986 283.236 418.197 284.788 419.916 286.574C421.635 288.338 422.897 290.325 423.701 292.536C424.527 294.747 424.951 297.158 424.973 299.77C424.951 304.281 423.823 308.099 421.591 311.225C419.358 314.351 416.165 316.729 412.012 318.359C407.881 319.989 402.913 320.804 397.107 320.804C391.146 320.804 385.943 319.922 381.5 318.158C377.079 316.394 373.64 313.681 371.184 310.019C368.75 306.335 367.522 301.624 367.5 295.885H385.184C385.296 297.984 385.82 299.748 386.758 301.177C387.696 302.606 389.013 303.689 390.71 304.426C392.43 305.163 394.473 305.531 396.839 305.531C398.827 305.531 400.49 305.286 401.83 304.794C403.17 304.303 404.185 303.622 404.878 302.751C405.57 301.88 405.927 300.887 405.949 299.77C405.927 298.721 405.581 297.806 404.911 297.024C404.264 296.22 403.192 295.506 401.696 294.88C400.2 294.233 398.179 293.63 395.634 293.072L388.801 291.598C382.728 290.281 377.938 288.081 374.433 285C370.949 281.896 369.219 277.665 369.241 272.306C369.219 267.952 370.38 264.145 372.725 260.885C375.091 257.603 378.363 255.046 382.538 253.215C386.736 251.384 391.548 250.469 396.973 250.469C402.511 250.469 407.3 251.396 411.342 253.249C415.383 255.102 418.498 257.715 420.686 261.086C422.897 264.436 424.013 268.354 424.036 272.842H406.217Z" fill="#329F00"/>
<path d="M209.788 350.507H201.176C201.061 349.623 200.826 348.825 200.47 348.113C200.114 347.401 199.643 346.792 199.058 346.287C198.472 345.782 197.777 345.397 196.974 345.133C196.181 344.858 195.303 344.72 194.339 344.72C192.628 344.72 191.152 345.139 189.912 345.977C188.684 346.815 187.736 348.027 187.07 349.611C186.416 351.196 186.089 353.113 186.089 355.364C186.089 357.706 186.422 359.669 187.088 361.254C187.765 362.827 188.712 364.015 189.929 364.819C191.158 365.611 192.611 366.008 194.287 366.008C195.228 366.008 196.084 365.887 196.853 365.646C197.634 365.405 198.317 365.054 198.903 364.595C199.5 364.124 199.988 363.556 200.367 362.89C200.757 362.213 201.027 361.449 201.176 360.599L209.788 360.651C209.638 362.213 209.185 363.751 208.427 365.267C207.681 366.783 206.653 368.166 205.344 369.418C204.035 370.658 202.439 371.645 200.556 372.38C198.684 373.115 196.537 373.482 194.115 373.482C190.923 373.482 188.064 372.782 185.538 371.381C183.023 369.969 181.037 367.914 179.578 365.215C178.12 362.517 177.391 359.233 177.391 355.364C177.391 351.483 178.132 348.193 179.613 345.495C181.094 342.797 183.098 340.747 185.624 339.346C188.15 337.945 190.98 337.245 194.115 337.245C196.25 337.245 198.225 337.544 200.039 338.141C201.854 338.726 203.45 339.587 204.827 340.724C206.205 341.849 207.325 343.233 208.186 344.875C209.047 346.517 209.581 348.394 209.788 350.507Z" fill="black"/>
<path d="M227.015 373.5C224.236 373.5 221.848 372.931 219.85 371.794C217.864 370.646 216.331 369.05 215.252 367.006C214.184 364.951 213.65 362.569 213.65 359.859C213.65 357.138 214.184 354.755 215.252 352.711C216.331 350.656 217.864 349.06 219.85 347.923C221.848 346.775 224.236 346.201 227.015 346.201C229.794 346.201 232.176 346.775 234.162 347.923C236.16 349.06 237.693 350.656 238.761 352.711C239.84 354.755 240.38 357.138 240.38 359.859C240.38 362.569 239.84 364.951 238.761 367.006C237.693 369.05 236.16 370.646 234.162 371.794C232.176 372.931 229.794 373.5 227.015 373.5ZM227.067 367.144C228.077 367.144 228.932 366.834 229.633 366.214C230.333 365.594 230.867 364.733 231.235 363.631C231.613 362.528 231.803 361.254 231.803 359.807C231.803 358.338 231.613 357.052 231.235 355.949C230.867 354.847 230.333 353.986 229.633 353.366C228.932 352.746 228.077 352.436 227.067 352.436C226.022 352.436 225.138 352.746 224.414 353.366C223.702 353.986 223.157 354.847 222.778 355.949C222.411 357.052 222.227 358.338 222.227 359.807C222.227 361.254 222.411 362.528 222.778 363.631C223.157 364.733 223.702 365.594 224.414 366.214C225.138 366.834 226.022 367.144 227.067 367.144Z" fill="black"/>
<path d="M244.694 373V346.545H252.703V351.402H252.996C253.547 349.795 254.477 348.526 255.786 347.596C257.095 346.666 258.656 346.201 260.471 346.201C262.308 346.201 263.881 346.672 265.19 347.613C266.499 348.555 267.331 349.818 267.687 351.402H267.963C268.456 349.829 269.421 348.572 270.856 347.631C272.291 346.678 273.985 346.201 275.937 346.201C278.44 346.201 280.472 347.005 282.034 348.612C283.595 350.208 284.376 352.401 284.376 355.191V373H275.954V357.12C275.954 355.8 275.615 354.795 274.938 354.106C274.261 353.406 273.382 353.056 272.303 353.056C271.143 353.056 270.23 353.435 269.564 354.193C268.91 354.939 268.583 355.944 268.583 357.207V373H260.488V357.034C260.488 355.806 260.155 354.836 259.489 354.124C258.823 353.412 257.945 353.056 256.854 353.056C256.119 353.056 255.47 353.234 254.908 353.59C254.345 353.934 253.903 354.428 253.581 355.071C253.271 355.714 253.116 356.472 253.116 357.344V373H244.694Z" fill="black"/>
<path d="M289.595 382.921V346.545H297.931V351.075H298.189C298.533 350.271 299.021 349.496 299.653 348.75C300.296 348.004 301.111 347.395 302.099 346.924C303.098 346.442 304.292 346.201 305.681 346.201C307.518 346.201 309.235 346.683 310.831 347.648C312.438 348.612 313.736 350.099 314.723 352.109C315.711 354.118 316.204 356.678 316.204 359.79C316.204 362.787 315.728 365.296 314.775 367.316C313.833 369.337 312.559 370.853 310.951 371.863C309.355 372.874 307.581 373.379 305.629 373.379C304.297 373.379 303.144 373.161 302.168 372.724C301.192 372.288 300.371 371.714 299.705 371.002C299.05 370.29 298.545 369.527 298.189 368.712H298.017V382.921H289.595ZM297.845 359.773C297.845 361.197 298.034 362.437 298.413 363.493C298.803 364.549 299.36 365.37 300.084 365.956C300.818 366.53 301.697 366.817 302.719 366.817C303.752 366.817 304.63 366.53 305.354 365.956C306.077 365.37 306.623 364.549 306.99 363.493C307.369 362.437 307.558 361.197 307.558 359.773C307.558 358.349 307.369 357.115 306.99 356.07C306.623 355.025 306.077 354.215 305.354 353.641C304.642 353.067 303.764 352.78 302.719 352.78C301.685 352.78 300.807 353.062 300.084 353.624C299.36 354.187 298.803 354.991 298.413 356.035C298.034 357.08 297.845 358.326 297.845 359.773Z" fill="black"/>
<path d="M329.04 337.727V373H320.618V337.727H329.04Z" fill="black"/>
<path d="M334.4 373V346.545H342.822V373H334.4ZM338.62 343.463C337.437 343.463 336.421 343.072 335.572 342.291C334.722 341.499 334.297 340.546 334.297 339.432C334.297 338.33 334.722 337.389 335.572 336.608C336.421 335.816 337.437 335.419 338.62 335.419C339.814 335.419 340.83 335.816 341.669 336.608C342.518 337.389 342.943 338.33 342.943 339.432C342.943 340.546 342.518 341.499 341.669 342.291C340.83 343.072 339.814 343.463 338.62 343.463Z" fill="black"/>
<path d="M355.641 373.448C353.953 373.448 352.454 373.167 351.145 372.604C349.848 372.03 348.82 371.169 348.063 370.02C347.316 368.861 346.943 367.408 346.943 365.663C346.943 364.193 347.201 362.953 347.718 361.943C348.235 360.932 348.947 360.111 349.854 359.48C350.761 358.848 351.806 358.372 352.988 358.05C354.171 357.717 355.434 357.494 356.777 357.379C358.282 357.241 359.493 357.097 360.411 356.948C361.33 356.787 361.996 356.564 362.409 356.277C362.834 355.978 363.047 355.559 363.047 355.019V354.933C363.047 354.049 362.742 353.366 362.134 352.884C361.525 352.401 360.704 352.16 359.671 352.16C358.557 352.16 357.662 352.401 356.984 352.884C356.307 353.366 355.876 354.032 355.692 354.881L347.925 354.606C348.154 352.998 348.746 351.563 349.699 350.3C350.663 349.026 351.984 348.027 353.66 347.303C355.348 346.568 357.374 346.201 359.74 346.201C361.428 346.201 362.983 346.402 364.407 346.804C365.831 347.194 367.071 347.768 368.127 348.526C369.184 349.272 369.999 350.191 370.573 351.282C371.159 352.373 371.451 353.618 371.451 355.019V373H363.529V369.314H363.322C362.851 370.21 362.249 370.968 361.514 371.588C360.79 372.208 359.935 372.673 358.947 372.983C357.972 373.293 356.869 373.448 355.641 373.448ZM358.241 367.936C359.148 367.936 359.964 367.753 360.687 367.385C361.422 367.018 362.007 366.513 362.444 365.87C362.88 365.215 363.098 364.457 363.098 363.596V361.082C362.857 361.208 362.564 361.323 362.22 361.426C361.887 361.53 361.519 361.627 361.118 361.719C360.716 361.811 360.302 361.891 359.878 361.96C359.453 362.029 359.045 362.092 358.655 362.15C357.862 362.276 357.185 362.471 356.622 362.735C356.071 362.999 355.646 363.344 355.348 363.769C355.061 364.182 354.917 364.676 354.917 365.25C354.917 366.122 355.227 366.788 355.847 367.248C356.479 367.707 357.277 367.936 358.241 367.936Z" fill="black"/>
<path d="M385.023 357.913V373H376.601V346.545H384.61V351.402H384.903C385.488 349.783 386.487 348.515 387.899 347.596C389.312 346.666 390.994 346.201 392.946 346.201C394.806 346.201 396.419 346.62 397.785 347.458C399.163 348.285 400.231 349.445 400.989 350.937C401.758 352.419 402.137 354.152 402.126 356.139V373H393.704V357.792C393.715 356.322 393.342 355.174 392.584 354.348C391.838 353.521 390.799 353.107 389.467 353.107C388.583 353.107 387.802 353.303 387.124 353.693C386.458 354.072 385.942 354.617 385.574 355.329C385.218 356.041 385.035 356.902 385.023 357.913Z" fill="black"/>
<path d="M422.272 346.545V352.746H405.583V346.545H422.272ZM409.079 340.207H417.501V364.681C417.501 365.198 417.582 365.617 417.743 365.939C417.915 366.249 418.162 366.473 418.483 366.61C418.805 366.737 419.189 366.8 419.637 366.8C419.959 366.8 420.297 366.771 420.653 366.714C421.021 366.645 421.296 366.587 421.48 366.541L422.754 372.621C422.353 372.736 421.784 372.879 421.049 373.052C420.326 373.224 419.459 373.333 418.449 373.379C416.474 373.471 414.78 373.241 413.368 372.69C411.967 372.127 410.894 371.255 410.147 370.072C409.412 368.889 409.056 367.403 409.079 365.611V340.207Z" fill="black"/>
<circle cx="299.5" cy="468.5" r="64.5" fill="#329F00" stroke="black" stroke-width="9.55556"/>
<path d="M266.056 475.416C276.386 485.736 285.91 495.251 285.91 495.251C285.91 495.251 313.457 467.657 332.945 448.115" stroke="white" stroke-width="14.3333" stroke-linecap="round" stroke-linejoin="round"/>
<defs>
<linearGradient id="paint0_linear_3_593" x1="300" y1="100" x2="300" y2="500" gradientUnits="userSpaceOnUse">
<stop offset="0.161458" stop-color="white"/>
<stop offset="0.734375" stop-color="#D9D9D9"/>
</linearGradient>
</defs>
</svg>
